<svg width="1667" height="501" viewBox="0 0 1667 501" fill="none" xmlns="http://www.w3.org/2000/svg">
<path fill-rule="evenodd" clip-rule="evenodd" d="M261.983 0.740051C307.799 0.740051 339.522 28.187 376.64 49.7997C432.364 82.2541 478.622 111.764 488.273 177.5C493.157 210.71 488.273 243.132 488.273 268.949C488.273 343.472 473.598 386.792 423.735 433.868C398.664 457.535 368.36 470.763 335.452 482.644C308.915 492.234 263.541 499.602 233.749 499.602C184.048 499.602 162.536 468.495 123.348 443.363C52.1812 397.681 5.17899 362.25 6.13253 258.816C6.73721 190.577 33.1572 157.06 75.8803 110.929C122.162 60.9483 189.142 0.740051 261.983 0.740051ZM416.805 108.189C442.922 136.132 450.643 157.65 459.016 192.609C471.575 245.093 470.296 321.127 436.899 364.494C420.038 386.391 401.386 408.121 386.106 422.86C342.034 465.306 292.705 464.81 236.446 461.219C208.166 459.424 189.537 444.473 163.768 431.175C142.953 420.427 107.603 398.791 90.6249 380.65C62.2978 350.322 55.8791 319.096 48.4136 280.878C34.878 211.434 46.7393 161.098 108.44 102.732C149.163 64.2074 196.328 50.8628 247.959 50.6266C303.915 50.3904 375.291 63.7587 416.805 108.189Z" fill="#0C1B26"/>
<path d="M687.177 226.506H728.574L678.592 83.3907H622.505L572.713 226.506H613.729L620.406 205.856H680.5L687.177 226.506ZM630.899 173.962L647.114 123.667H653.982L670.198 173.962H630.899Z" fill="#0C1B26"/>
<path d="M848.99 83.3907H711.634V119.17H760.281V226.506H800.343V119.17H848.99V83.3907Z" fill="#0C1B26"/>
<path d="M865.995 226.506H978.932V190.727H905.866V83.3907H865.995V226.506Z" fill="#0C1B26"/>
<path d="M1104.35 226.506H1145.74L1095.76 83.3907H1039.67L989.883 226.506H1030.9L1037.58 205.856H1097.67L1104.35 226.506ZM1048.07 173.962L1064.28 123.667H1071.15L1087.37 173.962H1048.07Z" fill="#0C1B26"/>
<path d="M1158.72 226.506H1197.63V142.886H1201.07L1252.39 226.506H1297.41V83.3907H1258.49V167.011H1254.87L1204.5 83.3907H1158.72V226.506Z" fill="#0C1B26"/>
<path d="M1451.55 83.3907H1314.2V119.17H1362.84V226.506H1402.91V119.17H1451.55V83.3907Z" fill="#0C1B26"/>
<path d="M1508.44 83.3907H1468.57V226.506H1508.44V83.3907Z" fill="#0C1B26"/>
<path d="M1598.04 231.205C1629.9 231.205 1661.76 216.484 1666.91 169.87H1628.76C1624.37 186.635 1613.11 194.404 1598.04 194.404C1578.58 194.404 1563.32 178.457 1563.32 154.945C1563.32 131.229 1578.58 115.69 1598.04 115.69C1613.11 115.69 1624.37 123.255 1628.76 139.816H1666.91C1661.76 93.4054 1629.52 78.685 1598.04 78.685C1553.59 78.685 1523.64 109.557 1523.64 154.945C1523.64 200.537 1553.59 231.205 1598.04 231.205Z" fill="#0C1B26"/>
<path fill-rule="evenodd" clip-rule="evenodd" d="M617.157 376.028H686.698V417.543H571.721V273.96H617.157V376.028ZM609.665 281.452H579.213V410.05H679.206V383.52H609.665V281.452Z" fill="#0C1B26"/>
<path fill-rule="evenodd" clip-rule="evenodd" d="M748.653 397.938L742.304 417.543H695.151L745.234 273.96H803.765L854.006 417.543H806.697L800.348 397.938H748.653ZM812.146 410.05H843.448L798.45 281.452H750.556L705.7 410.05H736.855L743.204 390.446H805.797L812.146 410.05ZM750.617 367.644H798.386L780.556 312.197H768.445L750.617 367.644ZM773.905 319.687L760.894 360.152H788.107L775.096 319.687H773.905Z" fill="#0C1B26"/>
<path fill-rule="evenodd" clip-rule="evenodd" d="M979.132 341.886C990.88 349.029 997.726 359.498 997.726 375.401C997.726 385.139 995.114 393.851 989.308 400.83C980.912 410.92 965.548 417.543 940.616 417.543H863.248V273.96H942.126C962.211 273.96 975.052 278.85 982.934 285.939C991.17 293.341 994.25 303.237 994.25 313.349C994.25 328.243 987.948 336.229 979.132 341.886ZM870.74 410.05H940.616C962.487 410.05 976.184 404.891 983.549 396.038C988.25 390.388 990.234 383.287 990.234 375.401C990.234 361.155 983.413 352.312 972.02 346.496L969.977 345.454V338.503L971.932 337.439C980.32 332.873 986.757 326.62 986.757 313.349C986.757 305.317 984.469 297.39 977.927 291.509C971.034 285.312 959.687 281.452 942.126 281.452H870.74V410.05ZM939.557 386.274C946.378 386.274 951.215 384.06 954.394 380.922C957.739 377.625 959.328 373.224 959.328 368.757C959.328 364.098 957.68 359.891 954.272 356.82C951.118 353.979 946.324 352.049 939.557 352.049H901.192V386.274H939.557ZM908.684 378.781H939.557C943.922 378.781 947.099 377.595 949.133 375.588C951.006 373.743 951.836 371.257 951.836 368.757C951.836 366.288 951.065 364.016 949.258 362.387C947.197 360.531 943.979 359.542 939.557 359.542H908.684V378.781ZM938.349 305.229H901.192V336.375H938.349C945.07 336.375 949.743 334.686 952.786 332.178C956.208 329.359 957.816 325.453 957.816 320.965C957.816 316.518 956.229 312.535 952.839 309.633C949.784 307.018 945.095 305.229 938.349 305.229ZM908.684 328.882H938.349C946.553 328.882 950.324 325.835 950.324 320.965C950.324 318.768 949.643 316.758 947.968 315.324C945.959 313.604 942.789 312.722 938.349 312.722H908.684V328.882Z" fill="#0C1B26"/>
<path fill-rule="evenodd" clip-rule="evenodd" d="M1071.3 422.087C1097.94 422.189 1116.52 416.208 1127.2 405.134C1134.61 397.459 1138.4 387.316 1138.4 374.759C1138.4 365.328 1136.25 358.052 1132.71 352.348C1127.4 343.808 1118.88 338.727 1109.1 335.453C1099.01 332.08 1087.57 330.634 1077.43 328.787C1077.46 328.795 1063.98 326.199 1063.98 326.199C1055.8 324.736 1052.68 321.737 1052.68 317.73C1052.68 314.629 1054.5 312.282 1058.03 310.804C1061.13 309.501 1065.34 308.84 1070.71 308.84C1085.17 308.84 1092.06 313.742 1093.47 322.384L1093.98 325.526H1134.73L1134.77 321.827C1134.97 305.742 1130.68 294.182 1123.21 286.043C1112.23 274.065 1093.99 269.433 1071.61 269.433C1029.97 269.433 1008.76 287.309 1008.76 315.786C1008.76 351.196 1037.33 356.584 1063.08 361.272C1063.12 361.276 1079.15 364.032 1079.15 364.032C1089.56 365.809 1093.26 368.448 1093.26 373.138C1093.26 375.751 1091.68 377.892 1088.81 379.483C1084.95 381.622 1079.13 382.752 1071.35 382.679C1055.21 382.541 1047.75 377.979 1047.23 369.194L1047.03 365.665H1005.67L1005.59 369.33C1005.26 384.091 1008.76 395.428 1015.81 403.775C1026.17 416.028 1044.57 421.982 1071.3 422.087ZM1127.24 318.036C1126.8 306.199 1123.48 297.414 1117.69 291.107C1107.92 280.453 1091.51 276.922 1071.61 276.922C1035.55 276.922 1016.25 291.122 1016.25 315.786C1016.25 333.628 1025.04 342.2 1036.76 347.038C1045.21 350.528 1055.07 352.197 1064.39 353.894C1064.39 353.894 1080.41 356.647 1080.41 356.647C1096.64 359.415 1100.76 365.823 1100.76 373.138C1100.76 378.305 1098.12 382.886 1092.44 386.033C1087.76 388.633 1080.73 390.259 1071.28 390.169C1051.53 390.001 1042.38 383.214 1040.23 373.158H1013.08C1013.37 383.987 1016.11 392.526 1021.54 398.937C1030.79 409.883 1047.45 414.502 1071.33 414.595C1110.64 414.745 1130.91 401.491 1130.91 374.759C1130.91 367.004 1129.26 360.995 1126.34 356.304C1121.96 349.257 1114.8 345.259 1106.72 342.559C1096.97 339.295 1085.89 337.944 1076.06 336.156C1076.06 336.156 1062.59 333.56 1062.64 333.57C1049.01 331.135 1045.19 324.428 1045.19 317.73C1045.19 308.559 1052.68 301.348 1070.71 301.348C1088.61 301.348 1097.28 307.992 1100.16 318.036H1127.24Z" fill="#0C1B26"/>
</svg>
