<?xml version="1.0" encoding="utf-8"?>
<!-- Generator: Adobe Illustrator 28.0.0, SVG Export Plug-In . SVG Version: 6.00 Build 0)  -->
<svg version="1.1" id="Layer_1" xmlns="http://www.w3.org/2000/svg" xmlns:xlink="http://www.w3.org/1999/xlink" x="0px" y="0px"
	 viewBox="0 0 184 155.9" style="enable-background:new 0 0 184 155.9;" xml:space="preserve">
<style type="text/css">
	.st0{fill:#556666;}
	.st1{fill-rule:evenodd;clip-rule:evenodd;fill:#556666;}
	.st2{fill:none;stroke:#556666;stroke-miterlimit:10;}
</style>
<g id="Layer_1_00000174575600259606857260000011884644435181762743_">
	<g id="Grün_-_0b1b13">
		<g>
			<path class="st0" d="M120.2,99.6c-0.4-0.4-0.7-0.9-1-1.3c-0.4-0.5-0.7-0.9-1.1-1.4c-0.7-0.9-1.4-1.9-2-2.9
				c-0.8-1.4-1.3-3-1.8-4.6c-0.2-0.8-0.5-1.6-0.7-2.3c-0.2-0.7-0.5-1.6-0.9-2.3c-0.3-0.5-1.1-1-1.1-0.1c0.1,2.4,1.2,4.7,2.1,6.8
				c0.6,1.5,1.3,3,2.2,4.4c0.5,0.8,1.2,1.5,1.9,2.2c0.3,0.3,0.7,0.7,1,1s0.6,0.7,1.1,0.9c0.1,0.1,0.2,0.1,0.4,0
				C120.3,100,120.3,99.7,120.2,99.6"/>
			<path class="st0" d="M66.2,73.6c5.8,0,11.5-0.1,17.3-0.1c0.7,0,1.4,0,2-0.3c0.8-0.4,1.7-1.3,0.6-1.9c-1-0.6-2.3-0.7-3.5-0.8
				c-2-0.1-4-0.3-5.9-0.5c-4.3-0.5-8.6-0.3-12.8,0c-0.1,0-0.1,0-0.2,0c-0.5,0-1.1,0.1-1.6,0.3c-0.8,0.3-1.6,1.1-1.6,2
				c0.1,0.5,3.1,0.4,4.3,0.8C65.3,73.3,65.9,73.5,66.2,73.6"/>
			<path class="st0" d="M62.1,47.4c0,0.3-0.3,0.9-0.7,0.9c-0.8,0-1.1-0.7-1.2-1.4c0-0.2,0-0.5,0.1-0.7c0.2-0.3,0.5-0.4,0.8-0.5
				c0.7-0.3,1.3-0.2,1.7,0.5c0.9,1.7,0,3.6-0.7,5.2c-1.1,2.5-1.5,5.2-1.3,7.8c0.1,0.8,0.2,1.6,0.4,2.3c0.2,0.6,0.4,1.1,0.7,1.6
				c0,0.1,0.1,0.1,0.2,0.2c0.1,0.1,0.3,0,0.3-0.2c0.1-0.1,0-0.3,0-0.4c-0.3-3.6-0.5-7.4,0.8-10.8c0.4-1.1,1-2.1,1.2-3.3
				s-0.1-2.4-0.7-3.4c-0.3-0.4-0.6-0.8-1-1S61.9,44,61.4,44c-0.7,0.1-1.3,0.3-1.8,0.7c-0.4,0.3-0.8,0.7-1,1.2s-0.2,1-0.1,1.5
				c0.1,0.8,0.5,1.7,1.2,2.1c0.7,0.5,1.7,0.5,2.4,0c0.6-0.5,0.7-1.7,0.1-2.2C62.3,47.2,62.1,47.3,62.1,47.4"/>
			<path class="st0" d="M70.3,60.8c-0.1-0.4-0.1-0.7-0.2-1.1c-0.1-0.4-0.2-0.8-0.3-1.3c-0.2-0.9-0.2-1.8-0.3-2.6
				c-0.1-1.8,0.1-3.6,0.6-5.3c0.6-2.5,1.8-4.8,2.3-7.3c0.4-2,0.3-4-0.2-5.9c-0.3-1.1-0.8-2.2-1.7-2.8c-0.1-0.1-0.2-0.2-0.4-0.2
				c-0.4,0-0.6,0.4-0.6,0.8c0,0.4,0.3,0.7,0.5,1c1,1.6,1.3,3.7,1.1,5.6c-0.2,1.9-0.9,3.8-1.5,5.6s-1.3,3.7-1.5,5.6
				c-0.2,1.5-0.1,3,0.2,4.4c0.1,0.7,0.3,1.4,0.6,2.1c0.2,0.7,0.6,1.2,0.9,1.8C69.9,61.4,70.4,61.2,70.3,60.8"/>
			<path class="st0" d="M77,43.7c0.2-0.6,0.5-1.1,0.6-1.6c0.1-0.6,0-1.2-0.1-1.8c-0.2-0.8-0.5-1.7-0.7-2.5s-0.3-1.7,0-2.5
				s1-1.5,1.9-1.5c0.4,0,0.7,0.1,1,0.3s0.4,0.6,0.4,0.9c-0.1,0.3-0.4,0.6-0.7,0.7c-0.3,0-0.6-0.1-0.8-0.1c-0.4,0.1-0.6,0.7-0.4,1
				c0.2,0.4,0.7,0.6,1.1,0.6c0.9,0,1.8-0.6,2.1-1.5s0-1.9-0.6-2.6c-0.7-0.7-1.6-0.9-2.6-0.8c-0.9,0.1-1.8,0.7-2.3,1.5
				s-0.8,1.7-0.8,2.6c0,2.2,1.3,4.2,1.2,6.3c0,0.2-0.1,0.5,0,0.7c0,0.2,0.2,0.4,0.3,0.5C76.7,44,77,43.9,77,43.7"/>
			<path class="st0" d="M77.9,63c0.5-0.3,0.7-1.2,0.8-1.7c0.2-0.7,0.4-1.5,0.5-2.3c0.2-1.5,0.2-3.1-0.2-4.6
				c-0.3-1.2-0.7-2.4-0.9-3.6c-0.1-0.8-0.1-1.5,0-2.3c0.1-0.6,0.5-1.3,0.9-1.8s0.9-0.9,1.6-1.1s1.4,0.1,1.7,0.6
				c0.2,0.3,0.3,0.6,0.3,0.9c0,0.3-0.1,0.6-0.4,0.8s-0.7,0.1-1,0.1s-0.6,0-0.8,0.3c-0.5,0.6,0.5,1.2,0.9,1.2c0.7,0.1,1.4,0,1.9-0.5
				c0.8-0.6,1-1.7,0.8-2.6s-1.1-1.7-2-2s-2-0.2-2.8,0.3c-1.5,0.8-2.5,2.6-2.6,4.3c-0.1,1.9,0.5,3.7,0.9,5.5c0.5,2.5,0.4,5.1-0.3,7.6
				c-0.1,0.2-0.1,0.4-0.1,0.7C77.4,63.1,77.6,63.2,77.9,63"/>
			<path class="st0" d="M84.7,52.6c-0.2,0.1-0.2,0.3-0.3,0.5c-0.1,0.3-0.2,0.5-0.3,0.8c-0.1,0.5-0.2,1.1-0.3,1.6
				c-0.1,0.9,0,1.7,0.2,2.6c0.2,0.7,0.5,1.5,0.7,2.2s0.3,1.5,0,2.3c-0.1,0.2-0.1,0.3-0.2,0.5s0,0.4,0.2,0.4c0.2,0.1,0.5-0.1,0.6-0.3
				c0.6-0.8,0.8-1.8,0.7-2.8s-0.4-1.9-0.6-2.9c-0.2-1.2-0.3-2.4-0.3-3.6c0-0.2,0.1-0.5,0-0.7c0-0.2,0-0.4-0.1-0.5
				C85.1,52.5,84.8,52.5,84.7,52.6"/>
			<path class="st0" d="M82.8,39.6c-0.2,0.5-0.5,1-0.4,1.5c0,0.2,0.1,0.5,0.3,0.5c0.2,0.1,0.4,0,0.5-0.1s0.2-0.3,0.2-0.5
				c0.1-0.3,0.3-1.2-0.1-1.3C83.2,39.4,82.9,39.4,82.8,39.6"/>
			<path class="st0" d="M65.9,39.8c-0.1,0.5-0.2,1-0.2,1.5s0.2,1,0.3,1.4c0.1,0.5,0,1,0,1.4c0,0.3,0,0.9,0.5,0.9s0.7-0.5,0.8-0.9
				c0.2-0.5,0.1-1,0.1-1.5c0-1-0.6-1.9-0.8-2.9C66.5,39.4,65.9,39.4,65.9,39.8"/>
			<path class="st0" d="M113.4,54.9c0.1-0.2-0.1-0.5-0.1-0.7c-0.1-0.3-0.2-0.7-0.3-1c-0.3-1.3-0.5-2.7-0.3-4c0-0.2,0.1-0.4,0.1-0.7
				s-0.1-0.4-0.3-0.6c-0.3-0.2-0.7,0-0.9,0.2c-0.2,0.3-0.3,0.6-0.3,0.9c-0.1,0.6-0.1,1.2,0,1.8s0.4,1.2,0.4,1.8
				c-1-0.8-2.2-1.4-3.4-1.6c-0.4-0.1-0.8-0.1-1.1,0.1c-0.4,0.2-0.6,0.6-0.5,0.9c0.1,0.3,0.4,0.4,0.6,0.5c0.3,0.1,0.6,0,0.8,0
				c0.7,0,1.4,0.3,2.1,0.6c0.7,0.4,1.3,0.8,1.9,1.3C112.5,54.6,113,55.5,113.4,54.9L113.4,54.9z"/>
			<path class="st0" d="M104.2,57.1c-0.4-1-0.9-2-1.8-2.6c-1-0.7-2.3-0.8-3.5-0.8s-2.3,0.2-3.4,0.7c-0.6,0.3-1.2,0.7-1.6,1.2
				c-0.4,0.4-1.1,1.3-0.5,1.8c0.2,0.2,0.5,0.3,0.7,0.4c1.2,0.4,2.4,0.7,3.7,0.8c1.3,0.1,2.6,0,3.7-0.6c0.4-0.2,0.9-0.6,1.4-0.5
				c0.4,0.1,0.8,0.6,1,1c0.1,0.1,0.1,0.3,0.3,0.4s0.3,0.2,0.5,0.1c0.2-0.1,0.1-0.4,0-0.6C104.6,58.1,104.4,57.6,104.2,57.1z
				 M101.3,57c-0.2,0.1-0.5,0.2-0.7,0.2c-0.7,0.2-1.4,0.4-2.1,0.4s-1.4,0-2.1-0.1c-0.4-0.1-0.7-0.2-1.1-0.3c-0.2-0.1-1-0.3-1-0.5
				s0.7-0.7,0.8-0.8c0.3-0.2,0.6-0.4,1-0.6c1.4-0.7,3-0.9,4.5-0.5c0.4,0.1,1.8,0.4,1.8,0.9c0,0.3-0.4,0-0.6,0
				c-0.3-0.1-0.5-0.1-0.8-0.2c-0.6-0.1-1.1-0.1-1.7,0.1c-0.2,0-0.4,0.1-0.4,0.3s0.2,0.3,0.4,0.3c0.3,0,0.6,0.1,0.9,0.2
				c0.2,0,0.7,0.1,0.9,0.2C101.6,56.8,101.5,56.9,101.3,57z"/>
			<path class="st0" d="M105.4,36.7c-0.1-0.1-0.3-0.2-0.5-0.2c-0.9-0.1-1.8,0.1-2.5,0.6c0.1-0.2,0.1-0.4,0.1-0.7
				c0-0.2,0-0.5-0.2-0.6c-0.1-0.2-0.4-0.3-0.6-0.2c-0.3,0.1-0.4,0.4-0.3,0.6c0.1,0.6,0,1.3-0.4,1.8c-0.1,0.1-0.1,0.1-0.1,0.2
				s0,0.2,0,0.3s0.1,0.1,0.2,0.1s0.2,0,0.2-0.1c0.6-0.2,1.2-0.6,1.8-0.8c0.4-0.1,0.9-0.2,1.3-0.2c0.2,0,0.5,0,0.7-0.1
				C105.3,37.3,105.5,37.1,105.4,36.7C105.5,36.8,105.4,36.7,105.4,36.7z"/>
			<path class="st0" d="M87.9,46.3c1.1,0,1.1-1.7,0-1.7S86.8,46.3,87.9,46.3"/>
			<path class="st0" d="M87.3,51.3c0.4,0,0.4-0.7,0-0.7S86.9,51.3,87.3,51.3"/>
			<path class="st0" d="M52.9,75.9c-0.1,0.5-0.1,0.9-0.1,1.4c-0.1,0.5-0.1,1-0.2,1.6c-0.1,1-0.1,2.1,0,3.1c0.1,1.1,0.3,2.2,0.5,3.3
				c0.1,0.2,0.1,0.5,0.3,0.7s0.4,0.3,0.7,0.2c0.2-0.1,0.2-0.2,0.3-0.4c0-0.2,0-0.3,0-0.5c-0.1-2.2-0.3-4.4-0.4-6.6
				c0-0.5-0.1-1.1-0.1-1.6s-0.1-1.4-0.8-1.3"/>
			<path class="st0" d="M55,90.8c0.5,0,0.9-0.4,0.9-0.9S55.5,89,55,89s-0.9,0.4-0.9,0.9S54.5,90.8,55,90.8"/>
			<path class="st0" d="M82.7,118.3c-0.1-0.3-0.5-0.9-0.6-1.1c-0.2-0.5-0.5-1-0.7-1.5c-0.8-1.7-1.6-3.3-2.6-4.8
				c-0.5-0.8-1.1-1.5-1.8-2.1c-0.6-0.5-1.4-1.1-1-2.1c0.3-0.7,1.4-0.7,2-0.9c0.6-0.2,1.2-0.4,1.8-0.6c0.5-0.1,1.3-0.1,1.7-0.5
				c0.1-0.1,0.2-0.4,0-0.5s-0.4-0.1-0.6,0c-0.7,0.2-1.3,0.4-2,0.5c-0.6,0.2-1.3,0.3-1.9,0.4c-1.1,0.2-2.3,0.1-3.4,0
				c-2.5-0.3-4.9-1.1-7.1-2.3c-3.2-1.8-6-4.1-8.9-6.4c-0.2-0.2-0.6-0.4-0.8-0.2c-0.2,0.2-0.1,0.5,0,0.8c0.5,1.4,1.1,2.7,1.9,4
				c0.4,0.6,0.9,1.2,1.4,1.7s1.1,0.9,1.5,1.5c1.1,0.9,2.2,1.7,3.4,2.4c0.5,0.3,1.1,0.6,1.7,0.8c0.5,0.2,1.1,0.2,1.6,0.3
				c1.4,0.2,2.9,0,4.3-0.5c0,0.3-0.7,0.9-0.9,1.1c-0.3,0.4-0.6,0.7-0.9,1.1c-0.6,0.8-1.1,1.6-1.5,2.5c-0.1,0.2-0.1,0.4,0,0.5
				s0.3-0.1,0.4-0.2c0.5-0.7,1-1.3,1.6-1.9c0.3-0.3,0.6-0.7,0.9-1.1c0.4-0.5,0.9-1.3,1.5-1.6c0.1-0.1,0.2-0.1,0.3-0.1
				c0.5-0.1,0.2,0.4,0.2,0.7c-0.2,0.8-0.3,1.6-0.3,2.5c0,1.7,0.6,3.3,1.6,4.7c0.9,1.2,2.1,2.2,3.5,2.8c0.7,0.3,1.4,0.5,2.2,0.6
				c0.3,0,1.5,0.3,1.6-0.1C82.7,118.4,82.7,118.4,82.7,118.3z M71.6,106.7c-1.6,0.3-3.3,0.2-4.7-0.2c-1.9-0.6-3.6-1.7-5.1-3
				s-3.5-3-3.7-5.1c1,1,2.3,1.8,3.4,2.6c1.2,0.9,2.5,1.7,3.8,2.5c1.2,0.7,2.5,1.3,3.9,1.8c0.7,0.2,1.4,0.4,2.1,0.6
				c0.6,0.1,1.4,0,2,0.3C72.8,106.4,72.2,106.6,71.6,106.7z M80.9,118.1c-1.8-0.5-3.5-1.7-4.6-3.3c-0.6-0.8-1-1.7-1.2-2.6
				c-0.2-0.8-0.6-2.2-0.2-3c0.4-1,1.6,0.9,1.9,1.2c0.7,0.8,1.2,1.7,1.8,2.6c1.1,1.7,1.8,3.6,3,5.3C81.3,118.2,81.1,118.2,80.9,118.1
				z"/>
			<path class="st0" d="M76.4,103.7c0.4,0,0.8-0.4,0.8-0.8s-0.4-0.8-0.8-0.8s-0.8,0.4-0.8,0.8C75.6,103.3,75.9,103.7,76.4,103.7"/>
			<path class="st0" d="M107,115.6c-0.1-0.2-0.3-0.2-0.5-0.2c-2.6-0.3-5.1-1.1-7.4-2.2c-1.7-0.8-3.3-2-4.8-3.1s-2.7-2.6-3.5-4.2
				c-1.1-2.2-1.5-4.7-1.2-7.1c-0.4,0-0.6,0.4-0.7,0.8c-0.4,2,0,3.7,0.3,5.6c-0.5-0.3-1.1-0.7-1.6-1c-0.1-0.1-0.2-0.1-0.3-0.1
				c-0.1,0-0.2,0-0.3,0.1c-0.1,0.2,0.1,0.3,0.2,0.4c0.5,0.4,1.1,0.8,1.6,1.3c0.2,0.2,1.1,1.1,1.1,1.3c0.1,0.1,0.3,0.3,0.2,0.5
				c-0.1,0.2-0.4,0.1-0.6,0c-1.4-0.6-2.6-0.9-4.1-1.1c-2-0.2-4.1,0.1-6,0.9c1.4,2,3.6,3.5,6,4.1c1.5,0.4,3.1,0.4,4.6,0.2
				c1.2-0.1,2.8-0.8,3.9-0.2c0.7,0.3,1.3,0.9,1.9,1.3c-1.6,0.4-3.1,0.5-4.3,1.7c-1.1,1-1.8,2.6-1.4,4.1c0.3,1.1,1.1,2,2.1,2.4
				s2.2,0.4,3.2-0.2c0.9-0.5,1.5-1.5,1.6-2.5s-0.5-2.1-1.5-2.5c-0.9-0.4-2.2,0-2.7,0.9c-0.2,0.4-0.3,0.8-0.1,1.2
				c0.2,0.4,0.6,0.6,1,0.5s0.6-0.6,0.4-0.9c0.3-0.1,0.6,0,0.8,0.2s0.3,0.5,0.3,0.8c0,0.9-0.8,1.6-1.7,1.7c-0.9,0-1.7-0.5-2-1.3
				s-0.2-1.8,0.2-2.5s1.2-1.3,2-1.6c0.8-0.3,1.7-0.4,2.5-0.5c1,0,2,0.1,2.9,0.3c0.7,0.2,2.3,0.5,2.7,1.1c-1.2,0.7-2.1,1.6-2.5,3
				c-0.1,0.2-0.1,0.4,0.1,0.5s0.5-0.2,0.6-0.4c0.5-1,1.3-1.8,2.4-2.3c1-0.5,2.2-0.6,3.3-0.3c0.3,0.1,0.5,0.2,0.8,0.1
				C106.9,116.2,107.1,115.9,107,115.6z M90.9,110.4c-0.8,0.1-1.6,0.2-2.4,0.3c-1.5,0.2-2.9,0-4.3-0.6c-0.7-0.3-1.4-0.6-2-1.1
				c-0.6-0.4-1.2-0.8-1.7-1.3c3.9-1.2,8.8,0,12,2.4C91.9,110.2,91.4,110.3,90.9,110.4z"/>
			<path class="st0" d="M85.2,102.4c0-0.1,0-0.2,0-0.3c0-0.1,0-0.1-0.1-0.2s-0.3-0.2-0.5-0.1c-0.2,0-0.3,0.2-0.4,0.4
				c0,0.2,0,0.4,0.1,0.5s0.3,0.2,0.5,0.1c0.1,0,0.2-0.1,0.2-0.1S85.2,102.5,85.2,102.4"/>
			<path class="st0" d="M93.7,107.9c0.6,0,0.6-1,0-1S93.1,107.9,93.7,107.9"/>
			<path class="st0" d="M85.3,116.5c0.8,0,0.8-1.2,0-1.2C84.6,115.3,84.6,116.5,85.3,116.5"/>
			<path class="st0" d="M107.5,113.4c0.5,0,0.5-0.8,0-0.8C107,112.5,107,113.4,107.5,113.4"/>
			<path class="st0" d="M92.7,67.2c0.5,0,0.8-0.4,0.8-0.8c0-0.5-0.4-0.8-0.8-0.8s-0.8,0.4-0.8,0.8C91.9,66.8,92.3,67.2,92.7,67.2"/>
			<path class="st0" d="M97.5,72.6c0.7,0,0.7-1.1,0-1.1S96.7,72.6,97.5,72.6"/>
			<path class="st0" d="M135.4,72c0.6,0,0.6-1,0-1S134.7,72,135.4,72"/>
			<path class="st0" d="M127.7,73.2c-0.1-0.1-0.1-0.2-0.2-0.2c-0.1-0.1-0.2-0.1-0.3-0.2c-0.4-0.2-0.9,0-1.1,0.4
				c-0.2,0.3-0.1,0.7,0.1,1s0.6,0.4,1,0.3C127.7,74.3,128,73.7,127.7,73.2"/>
			<path class="st0" d="M116.8,43.2c0.6,0,0.6-1,0-1S116.2,43.2,116.8,43.2"/>
			<path class="st0" d="M104.4,48.7c1.2,0,1.2-1.9,0-1.9C103.2,46.8,103.2,48.7,104.4,48.7"/>
			<path class="st0" d="M93.4,123.3c-6.1,0-12-1.2-17.6-3.6c-5.4-2.3-10.2-5.5-14.4-9.7s-7.4-9-9.7-14.4C49.3,90,48.1,84.1,48.1,78
				c0-5,0.8-9.9,2.4-14.5c1-2.8,2.2-5.4,3.6-8c0.5-0.9,1.1-1.8,1.7-2.7c0.3-0.4,0.6-0.9,0.9-1.3c0.2-0.3,0.5-0.9,1-0.8
				c0.3,0,0.5,0.3,0.5,0.6c0,0.2,0,0.4-0.1,0.5c-0.2,0.3-0.4,0.5-0.6,0.8s-0.4,0.6-0.6,0.9c-0.4,0.6-0.8,1.2-1.1,1.8
				c-0.7,1.2-1.4,2.4-2,3.6c-1.2,2.5-2.2,5.1-2.9,7.7c-0.7,2.7-1.2,5.4-1.4,8.2c-0.1,1-0.1,2.1-0.1,3.2c0,24.3,19.7,44,44,44
				s44-19.7,44-44s-19.7-44-44-44c-1.5,0-2.9,0.1-4.4,0.2c-0.7,0.1-1.4,0.2-2.2,0.3c-0.4,0.1-0.8,0.1-1.2,0.2
				c-0.4,0.1-0.8,0.2-1.3,0.1c-0.2,0-0.4-0.1-0.6-0.3c-0.1-0.2-0.1-0.5,0.1-0.7c0.3-0.3,0.7-0.3,1-0.4c0.4-0.1,0.8-0.1,1.2-0.2
				c0.8-0.1,1.6-0.2,2.3-0.3c1.6-0.2,3.1-0.3,4.7-0.3h0.1c6.1,0,12,1.2,17.6,3.6c5.4,2.3,10.2,5.5,14.4,9.7c4.2,4.2,7.4,9,9.7,14.4
				c2.4,5.6,3.6,11.5,3.6,17.6s-1.2,12-3.6,17.6c-2.3,5.4-5.5,10.2-9.7,14.4c-4.2,4.2-9,7.4-14.4,9.7
				C105.5,122.1,99.5,123.3,93.4,123.3"/>
			<path class="st0" d="M93.4,145.5c-9.1,0-18-1.8-26.3-5.3c-8-3.4-15.3-8.3-21.5-14.5s-11.1-13.4-14.5-21.5
				c-3.5-8.3-5.3-17.2-5.3-26.3s1.8-18,5.3-26.3c3.4-8,8.3-15.3,14.5-21.5S59,19,67.1,15.6c8.3-3.5,17.2-5.3,26.3-5.3
				s18,1.8,26.3,5.3c8,3.4,15.3,8.3,21.5,14.5s11.1,13.4,14.5,21.5c3.5,8.3,5.3,17.2,5.3,26.3s-1.8,18-5.3,26.3
				c-3.4,8-8.3,15.3-14.5,21.5s-13.4,11.1-21.5,14.5C111.4,143.7,102.5,145.5,93.4,145.5 M93.4,11.8c-36.5,0-66.2,29.7-66.2,66.2
				s29.7,66.2,66.2,66.2s66.2-29.7,66.2-66.2S129.9,11.8,93.4,11.8"/>
			<path class="st0" d="M113.2,40.1c-0.1-0.1-0.3-0.2-0.4-0.2c-2.4-1.1-5.3-1.3-7.9-0.5s-4.8,2.5-6.2,4.8c-0.7,1.1-1.1,2.3-2,3.2
				c-0.5,0.5-1.1,1-1.7,1.4c-0.6,0.5-1.1,1.1-1.8,1.5c0.2-0.7,0.1-1.5,0.2-2.3c0.3-2.2,1.3-4.1,2.5-5.9c0.5-0.7,0.9-1.4,1.4-2.1
				c0.2-0.3,0.5-0.6,0.9-0.8c0.5-0.2,0.9-0.3,1.4-0.8c0.4-0.4,0.6-1.1,0.4-1.6S99.2,36,98.7,36c-0.6,0-1.1,0.4-1.3,0.9
				c-0.1,0.3-0.2,0.6-0.2,0.9c0,0.2,0.1,0.6,0.1,0.8c0,0.4-0.3,0.7-0.5,1c-0.3,0.4-0.5,0.7-0.8,1.1c-0.2,0.3-0.5,0.7-0.7,1.1
				c0-1.2-0.3-2.4-0.6-3.6c-0.1-0.3-0.1-0.5-0.1-0.8s0.1-0.6,0.2-0.9c0.1-0.4-0.1-0.8-0.4-1.1c-0.5-0.5-1.3-0.6-1.8-0.1
				c-0.3,0.2-0.5,0.6-0.5,1s0,0.8,0.4,1c0.2,0.2,0.5,0.3,0.7,0.4c0.4,0.2,0.7,0.5,0.9,0.9c0.3,0.5,0.3,1.1,0.3,1.6
				c0,0.2,0.1,1.3-0.2,2.6c-0.1,0.4-0.5,2.2-1,2.2c-0.4,0-0.7-2-0.8-2.4c-0.4-1-1-2-1.7-2.8c-1.3-1.5-3.1-2.5-5-3
				c-0.4-0.1-1.1-0.2-1.4,0.2c-0.2,0.4,0,1.1,0.1,1.5c0.5,2.8,2.4,5.3,4.9,6.4c0.9,0.4,1.9,0.7,2.4,1.5c0.4,0.8,0.2,1.6,0.1,2.4
				c-0.1,0.8-0.1,1.6-0.3,2.4c-0.4,1.5-1.2,2.9-1.8,4.3c-0.5,1.3-1,2.8-0.7,4.2c0,0.2,0.2,0.4,0.3,0.4s0.2-0.2,0.2-0.3
				c0.5-1.4,0.8-2.8,1.4-4.2c0.5-1.2,1.3-2.3,2.1-3.2c1.6-2.1,3.8-4,6.3-5.1c1.9-0.8,3.8-1.5,5.7-2.2c1.3-0.5,2.6-0.9,3.9-1.5
				s2.5-1.5,3.7-2.2c0.4-0.2,0.8-0.5,0.7-0.9C113.5,40.4,113.4,40.2,113.2,40.1z M98.1,37.5L98.1,37.5c0.3-0.3,0.7-0.6,1.1-0.4
				c0.4,0.3,0.2,1-0.1,1.2c-0.1,0.1-0.3,0.2-0.5,0.3s-0.4,0-0.5-0.1C97.8,38.3,97.9,37.8,98.1,37.5z M94,37.1c0,0.1-0.1,0.1-0.2,0.1
				c-0.1,0.1-0.3,0-0.4,0C92.9,37,92.7,36.5,93,36c0.2-0.3,0.6-0.2,0.9-0.1c0.4,0.2,0.4,0.6,0.2,1C94.1,37,94,37,94,37.1z
				 M91.2,44.4c-0.5-0.2-1.1-0.6-1.5-0.9c-0.6-0.4-1.2-0.8-1.8-1.3c-1.1-1-1.9-2.3-2-3.8c0,0,1.7,0.7,1.9,0.8
				c0.6,0.4,1.2,0.9,1.7,1.4c0.9,0.9,1.9,2.4,2,3.8C91.4,44.5,91.3,44.5,91.2,44.4z M111.7,41L111.7,41c-0.1-0.1-1.2,0.6-1.4,0.7
				c-0.5,0.2-1,0.5-1.5,0.7c-1,0.5-2.1,1-3.2,1.4c-1,0.4-2.1,0.8-3.1,1.2c-0.5,0.2-1.1,0.4-1.6,0.6c-0.4,0.1-1.2,0.5-1.6,0.5
				c0.1-0.5,0.7-1,0.9-1.5c0.3-0.5,0.6-1,1.1-1.5c0.9-1,2-1.7,3.2-2.2C106.8,40,109.4,40.1,111.7,41z"/>
			<path class="st0" d="M134.2,77.4c-0.3-1.3-0.7-2.6-1.2-3.8c-0.4-1-0.7-2-1-3c-0.2-1.1-0.3-2.1-0.3-3.3c0-0.6-0.1-1.3-0.2-2
				c-0.1-0.9-0.2-1.9-0.5-2.8c-0.2-0.9-0.5-1.8-0.8-2.7c-0.7-2-1.7-4-2.8-5.8c-0.9-1.5-2.1-2.8-3.6-3.9c-1.6-1.1-3.2-2.4-4.8-3.4
				c-1.3-0.8-2.6-1.5-4-2.2c-0.7-0.3-1.4-0.7-2.1-0.9c-0.6-0.2-0.8,0.5-0.7,1c0,0.3,0.2,0.6,0.3,0.8c0.9,1.7,2.1,3.3,3.4,4.7
				c1.4,1.5,3,2.9,4.5,4.3c1.4,1.2,2.6,2.6,3.8,4c2.4,3,4.4,6.4,5.7,10c0.3,0.7,0.7,1.5,0.9,2.3c-0.4-0.2-0.7-0.6-1-0.8
				c-0.3-0.3-0.7-0.6-1-0.9c-0.6-0.6-1.3-1.1-1.8-1.8c-0.5-0.6-0.9-1.2-1.2-1.9c-0.2-0.3-0.3-0.7-0.5-1c-0.1-0.3-0.1-0.6-0.3-0.8
				c-0.1-0.2-0.4-0.3-0.6-0.1c-0.6,0.5,0.5,2.1,0.6,2.6c0.1,0.3,0.1,0.3-0.3,0.3c-0.3,0-0.7-0.1-1-0.3c-0.6-0.2-1.2-0.6-1.8-1
				c-1-0.8-1.7-1.9-2.2-3c-0.3-0.6-0.7-1.4-0.7-2.1c0-0.7,0.6-1.1,0.3-1.9c-0.2-0.6-0.8-1-1.4-1s-1.2,0.5-1.4,1s0.1,1.3,0.6,1.6
				c0.4,0.2,0.8,0.3,1.2,0.6c0.2,0.2,0.3,0.4,0.4,0.6c0.3,0.7,0.6,1.4,0.9,2c0.2,0.6,0.8,1.4,0.8,2c-1.1-0.2-2.3-1-3.3-1.5
				c-1.1-0.6-2.1-1.4-3-2.2c-0.3-0.3-0.6-0.5-0.7-0.9c-0.2-0.5,0-0.7,0-1.2c0-0.4-0.4-0.9-0.7-1.1c-0.7-0.4-1.7-0.3-2.2,0.3
				s-0.5,1.6,0,2.2c0.7,0.9,1.9,0.3,2.8,0.8c0.5,0.3,1,0.7,1.4,1.2c1.1,1,2.2,1.8,3.5,2.6c0.6,0.4,1.3,0.7,2,0.9
				c0.5,0.2,1.7,0.4,2,0.8c-0.3,0.3-1.3,0.3-1.7,0.3c-0.6,0-1.3,0-1.9,0.1c-0.4,0-0.8,0.1-1.1,0c-0.3-0.1-0.6-0.3-0.9-0.5
				s-0.6-0.4-1-0.4c-1.2-0.1-1.6,1.6-1,2.4c0.4,0.5,1.1,0.7,1.7,0.5c0.5-0.2,0.9-0.7,1.4-1s1.2-0.4,1.8-0.4c1.3-0.1,2.5-0.2,3.8-0.1
				c2.7,0.3,5.2,2.1,6.8,4.2c0.9,1.1,1.6,2.4,2.2,3.8c0.7,1.9,1.2,3.8,1.6,5.8c0,0.2,0.1,0.3,0.2,0.5c0.1,0.1,0.3,0.3,0.4,0.2
				c0.2,0,0.3-0.2,0.4-0.4c0.1-0.2,0-0.4,0-0.5C134.7,79.7,134.5,78.5,134.2,77.4z M118.3,59.1c-0.1,0.1-0.2,0.1-0.3,0.2
				c-0.3-0.1-0.7-0.2-0.8-0.5c-0.2-0.5,0.3-0.9,0.7-1c0.6-0.1,0.8,0.1,0.8,0.7C118.7,58.8,118.4,58.9,118.3,59.1z M112.6,59.5
				c-0.3,0.6-0.9,0.9-1.3,0.1c-0.1-0.2-0.2-0.5-0.1-0.8c0.1-0.4,0.6-0.6,1-0.5C112.8,58.4,112.8,59,112.6,59.5z M116.5,67.8
				c-0.2,0.4-0.7,0.5-1,0.3c-0.5-0.3-0.3-1.7,0.4-1.5C116.3,66.8,116.8,67.3,116.5,67.8z M117,67L117,67L117,67L117,67z M130.2,65.9
				c-0.9-1.6-1.8-3.1-2.6-4.7c-2.6-4.6-6.8-7.8-10.4-11.6c-1.4-1.4-2.7-3-3.7-4.7c3.8,2.1,7.9,4,10.9,7.3c1.8,1.8,3.1,4.1,4.1,6.4
				c0.5,1.1,1,2.3,1.2,3.4c0.3,1.5,0.6,2.9,0.8,4.4C130.5,66.3,130.3,66.1,130.2,65.9z"/>
			<path class="st0" d="M59,62.9c-0.5-1.4-0.9-2.9-1-4.4c0-0.3,0-0.6,0-0.9c0-0.3-0.1-0.6-0.2-0.8c-0.1-0.1-0.2-0.2-0.4-0.2
				c-0.1,0-0.2,0-0.3,0.1c-0.2,0.1-0.3,0.2-0.5,0.4c-0.1,0.2-0.3,0.4-0.4,0.6c-0.1,0.2-0.1,0.4-0.1,0.6c0,0.4,0,0.9,0.2,1.3
				c0.2,0.6,0.4,1.3,0.8,1.8c0,0.1,0.1,0.2,0.1,0.3s0.1,0.2,0.1,0.4c0,0.3,0,0.5-0.2,0.7S56.3,63,56,63.1c-0.4,0.1-0.7,0.2-1,0.4
				c-0.7,0.3-1.3,0.8-1.8,1.3c-1,1-1.7,2.4-1.5,3.8c0.1,0.6,0.4,1.3,0.8,1.8c2.1,2.2,6-2.2,2.8-2.9c-0.3-0.1-0.5,0-0.5,0.3
				c0,0.1,0,0.2,0,0.4c0,0.2,0.1,0.3,0.1,0.5c0,0.3-0.3,0.6-0.6,0.7s-0.6-0.1-0.8-0.4c-0.5-0.8-0.2-1.7,0.2-2.4
				c0.4-0.8,1.2-1.3,2-1.7c0.9-0.5,2-1.1,3-1.3C58.9,63.4,59.1,63.2,59,62.9z"/>
			<g>
				<path class="st0" d="M90.3,81.7c-0.3,0.2-0.3,0.6-0.4,0.9c-0.1,0.4,0,0.7,0,1.1s0.7,0.4,0.7,0c0-0.3,0-0.7,0.1-1s0.1-0.6,0-0.9
					C90.6,81.6,90.4,81.7,90.3,81.7z"/>
				<path class="st0" d="M97.8,86.9c0.6,0,0.5-0.6,0.5-1c0-0.6,0-1.3,0.1-2c-0.1-0.5-0.7-0.7-0.9-0.2c-0.3,0.8-0.6,2-0.2,2.8
					C97.4,86.7,97.5,86.9,97.8,86.9z"/>
				<path class="st0" d="M98.5,86c0.1,0.2,0.4,0.2,0.5,0c0.2-0.3,0.1-0.7,0.1-1c-0.1-0.4-0.7-0.4-0.7,0C98.4,85.3,98.3,85.7,98.5,86
					z"/>
				<path class="st0" d="M102.2,95.4c0-0.5,0.1-1,0.2-1.5c0.1-0.4,0.3-0.9,0.1-1.3c0-0.1-0.1-0.1-0.2-0.1c-1.2,0.1-0.8,2.2-0.8,3
					C101.6,95.9,102.2,95.9,102.2,95.4z"/>
				<path class="st0" d="M103.4,95.1c0-0.3,0-0.6,0-1c0-0.3,0.1-0.6,0-0.8c-0.1-0.1-0.2-0.2-0.3-0.1c-0.5,0.4-0.3,1.4-0.3,1.9
					C102.8,95.5,103.4,95.5,103.4,95.1z"/>
				<path class="st0" d="M104.7,101.5c0-0.6,0.1-1.3,0-1.9c0-0.1-0.1-0.3-0.2-0.4c-0.1,0-0.1-0.1-0.2-0.1c-0.2,0-0.4,0.1-0.4,0.3
					c-0.2,0.7-0.1,1.4,0,2.1C104,102.1,104.7,102,104.7,101.5z"/>
				<path class="st0" d="M105.7,101.8c0-0.5,0.2-1.4-0.2-1.9c-0.1-0.1-0.3-0.1-0.3,0c-0.4,0.4-0.2,1.3-0.2,1.9
					C105.1,102.2,105.7,102.2,105.7,101.8z"/>
				<path class="st0" d="M103.7,105.1c-0.3,0.6-0.2,1.3-0.2,2c0.1,0.3,0.7,0.3,0.7-0.1c0-0.7,0-1.3-0.2-1.9
					C104,105,103.7,104.9,103.7,105.1z"/>
				<path class="st0" d="M104.8,105c-0.3,0.6-0.3,1.3-0.3,2c0.1,0.4,0.7,0.4,0.7,0c0-0.6,0.2-1.3,0-1.9
					C105.2,104.9,104.9,104.9,104.8,105z"/>
				<path class="st0" d="M137.1,89.1L137.1,89.1c-0.1-0.3-0.3-0.5-0.5-0.6c-2.2-1.6-4.3-3.4-6.1-5.3c-1.9-2-3.4-4.3-5-6.6
					c-1.1-1.6-2.7-2.8-4.4-3.7c-1.6-0.9-3.2-1.5-4.9-2.1c-1.7-0.6-3.3-1.3-5-1.8c-1.6-0.5-2.9-1.5-4.2-2.5c-1.5-1.3-3-2.6-4.8-3.4
					c-0.8-0.3-1.8-0.5-2.5,0c-0.6,0.4-0.9,1-1,1.7c-0.2,1.6,0.3,3.2,1,4.6c0.3,0.6,0.7,1.1,1,1.7c0.4,0.6,0.8,1.2,1.2,1.7
					c0.4,0.6,0.9,1.1,1.4,1.6s1,0.9,1.4,1.4c0.2,0.2,0.4,0.4,0.6,0.6c-1.3,0.3-2.9,0-4.3,0c-0.9,0-1.8-0.1-2.7-0.1
					c-0.8,0-1.5,0.1-2.1-0.4c-0.5-0.4-0.8-1-1.2-1.5c-1-1.3-2.5-2.1-4.1-2.2c-0.6,0-1.2,0-1.7-0.3c-0.6-0.5-0.3-1.2-0.5-1.8
					c-0.2-0.6-0.5-1.1-1-1.6c-1-0.8-2.3-1.1-3.5-1.3c-2.1-0.3-4.2-0.5-6.3-0.6c-2.1-0.1-4.3,0-6.4,0c-2.1,0.1-4.2,0.2-6.3,0.4
					c-1,0.1-2.1,0.2-3.1,0.4c-1,0.2-1.8,0.3-2.6,0.9c-1.2,1-1.2,2-1.2,3.4c0,1.6-0.1,3.1-0.1,4.7c0,1.8,0,3.6,0.1,5.5
					c0.1,3.2,0.2,6.5,1.5,9.6c0.8,1.9,2,3.7,3.5,5.1c2,1.9,4.5,2.6,7.3,2.8c3.1,0.3,6.3,0.1,9.4-0.7c1.2-0.3,2.5-0.7,3.6-1.4
					c0.6-0.3,1.1-0.7,1.6-1.2c0.7-0.6,2.2-0.3,3.1-0.4s1.8-0.3,2.7-0.5c0.6-0.1,0.6-0.2,0.9,0.1c0.3,0.3,0.5,0.6,0.5,1
					c0,0.3-0.1,0.6-0.1,0.9c-0.2,1-0.1,2,0.6,2.8c0.4,0.5,0.9,1,1.1,1.6c0.1,0.3,0,0.6,0,0.8c-0.2,1.8,0.5,3.6,1.9,4.8
					c1.4,1.4,3.4,2.2,5.4,2.4c1.1,0.2,2.3,0.2,3.5,0.1c1.1,0,2.2-0.6,3.4-0.3c1.2,0.3,2.4,0.8,3.6,1.2c1.7,0.6,3.5,1,5.3,1.3
					c0.9,0.1,1.9,0.2,2.8,0.2c0.4,0,0.8,0,1.2,0.1c0.4,0.1,0.7,0.5,1,0.4c0.1,0,0.3-0.2,0.4-0.3c0.1-0.5-1-1.1-1.9-1.4
					c-1.4-0.5-2.9-0.5-3.6-0.4c-0.5,0-1.1,0.1-1.6-0.1c-0.8-0.2-1.3-1-1.5-1.8c-0.1-0.6-0.2-1.2-0.1-1.7c0-0.3,0.1-1.2-0.4-1.1
					c-0.2,0-0.3,0.3-0.3,0.4c-0.3,1.2,0.1,2.3,0,3.4c-0.4-0.3-1.1-0.4-1.6-0.5c-0.6-0.2-1.3-0.3-1.9-0.5c0.1-0.4,0.6-0.7,0.9-0.9
					c0.4-0.3,0.7-0.7,0.9-1.1c0.6-1,0.6-2.8-0.4-3.5c-0.4-0.2-0.7-0.3-1.1-0.3c0.3-0.2,0.6-0.5,0.9-0.8c1-1,2.2-2.3,1.8-3.9
					c-0.5-1.6-1.7-1.9-3.2-2c0.2-0.3,0.4-0.6,0.6-0.9c0.7-1.5,0.6-3.2-0.7-4.4c-0.9-0.8-1.9-0.3-2.9,0c-1.8,0.4-3.7,0.4-5.4-0.2
					c-0.6-0.2-1.4-0.8-2.1-0.4c-0.9,0.4,0.6,1,1,1.2c0.9,0.5,1.8,0.8,2.8,0.9c1.3,0.2,2.6,0.2,3.9-0.2c0.6-0.2,1.3-0.8,1.9-0.5
					c0.3,0.1,0.4,0.4,0.6,0.7c0.4,0.8,0.4,1.7,0.1,2.5c-0.1,0.3-0.3,0.6-0.5,0.8c-0.3,0.2-0.6,0.2-0.9,0.1c-0.4-0.2-0.5-0.8-0.4-1.2
					c0.1-0.4,1.6-1.6,0.4-1.8c-0.3,0-0.6,0.1-0.8,0.3c-0.6,0.5-0.9,1.2-0.9,1.9c0,0.3,0.1,0.6,0.2,0.9s0.6,0.6,0.6,0.9
					c0.2,0.7-0.7,0.7-1.2,0.7c-1.1,0.1-2.2,0.1-3.4,0c-2.3-0.1-4.6-0.5-6.8-1.2c-0.4-0.1-1.4-0.3-1.6-0.7c-0.4-0.6,0.6-1,1-1.4
					c1-0.9,1.7-2.1,2.1-3.4c0.2-0.6,0.1-1.2,0.6-1.4c0.4-0.2,1.1,0,1.5-0.1c0.8-0.1,1.6-0.4,2.3-0.8c1.9-0.9,4-3,3.9-5.3
					c0-0.3-0.1-0.6-0.2-0.9c-0.2-0.7-0.8-1.3-1.5-1.6c-1-0.4-2,0-3,0.4s-1.9,0.6-2.9,0.4c-0.3-0.1-0.7-0.2-0.8-0.5
					c-0.1-0.2,0.1-0.5,0.1-0.7c0.1-0.5,0.1-1,0-1.4c-0.1-0.2-0.1-0.3-0.2-0.5c0-0.2,0-0.3,0.1-0.5c0.2-0.2,1,0,1.3,0
					c0.7,0,1.4,0.1,2.2,0.1c1.4,0.1,3-0.1,4.4,0.2c-0.1,0.3-0.4,0.5-0.6,0.7s-0.4,0.7-0.1,0.8c0.2,0.1,0.5,0,0.7-0.2
					c0.7-0.5,1.4-1,2.2-1.5c-0.7,1.2-1,2.6-1,4c0,0.2,0,0.4,0.2,0.5c0.1,0.1,0.4,0,0.5-0.1s0.2-0.3,0.2-0.5c0.2-0.6,0.2-1.2,0.4-1.8
					s0.5-1.2,1.1-1.4c0.8-0.3,1.6,0.2,2.3,0.6c0,0.1,1.2,0.7,1.3,0.8c0.5,0.3,1,0.6,1.5,0.9s1,0.8,1.6,0.9c0.1,0,0.3,0,0.4-0.1
					s0.1-0.2,0-0.3c-0.1-0.1-0.2-0.2-0.3-0.3c-0.6-0.5-1.3-1-2-1.5c-0.3-0.3-0.7-0.4-1-0.7c-0.4-0.3-0.7-0.7-1.2-1s-1-0.5-1.6-0.7
					c-0.5-0.2-1-0.5-1.4-0.9c-1-0.7-1.9-1.5-2.7-2.4c-1.7-1.7-3.1-3.7-4.2-5.8c-0.4-0.8-0.8-1.6-0.8-2.5c0-0.3,0-1,0.2-1.2
					c0.4-0.2,0.7,0.4,0.8,0.6c0.6,1.1,1.5,1.9,2.6,2.4c0.3,0.1,0.6,0.3,1,0.3c0.3,0,0.7-0.1,0.9-0.4c-0.1,0.2,2.7,2,3,2.1
					c1.1,0.6,2.3,1.1,3.4,1.5c0,0,0,0,0,0.1c0,0.2-0.4,0.7-0.5,0.9c-0.2,0.4-0.2,0.8-0.3,1.2c0,0.1,0,0.3,0.1,0.4s0.2,0.2,0.3,0.2
					c0.2,0,0.2-0.2,0.3-0.3c0.2-0.4,0.3-0.8,0.5-1.2c0.1-0.3,0.4-0.7,0.4-0.9c0,0.1,0.6,0.2,0.7,0.2c-0.1,0.4-0.3,0.8-0.4,1.2
					c-0.1,0.1-0.1,0.3,0,0.4s0.3,0.1,0.4,0s0.2-0.2,0.3-0.3c0.2-0.3,0.4-0.8,0.7-0.9c0.4-0.1,0.7,0.3,1.1,0.4c1,0.3,2.1,0.6,3.1,1
					c2,0.9,3.8,2.1,5.2,3.7c1.6,1.6,2.7,3.6,4.1,5.3c1.2,1.6,2.7,3,4.2,4.3c0.8,0.6,1.6,1.3,2.4,1.8c0.5,0.3,1.9,1.7,2.6,1.1
					C137,89.4,137.1,89.2,137.1,89.1z M109.7,103.6c0.5,0.2,0.7,0.9,0.5,1.4c-0.3,0.8-1.1,1.4-1.7,1.9c0,0-0.1-0.8,0-0.9
					c0.1-0.4,0.3-0.6,0.5-0.9s0.8-1.3,0-1.4c-0.7-0.1-1.6,1.4-1.7,2c-0.1,0.4,0,0.8,0.1,1.2c0.1,0.3,0.4,0.6,0.3,0.9
					c-0.1,0.5-0.9,0.5-1.3,0.5c-1.4,0.1-2.8,0.1-4.2-0.1c-1.6-0.2-3.2-0.6-4.5-1.6c-1-0.8-1.8-1.9-2-3.2c-0.2-1.6,0.9-0.8,1.8-0.5
					c1.2,0.4,2.5,0.7,3.8,0.9c2.5,0.4,5.1,0.3,7.6-0.2C109.1,103.6,109.4,103.5,109.7,103.6z M94.3,96.7c2.5,1,4.5,1.3,5.9,1.3
					c3.6,0.1,6.4-0.5,6.4-0.5c1.4-0.3,3.5-0.8,4.1,0.1c0.2,0.2,0.2,0.6,0.2,0.6c0.1,0.6-0.2,1.2-0.5,1.7c-0.4,0.5-1.4,1.4-1.7,0.2
					c-0.1-0.3,0-0.6,0.2-0.9s0.4-0.5,0.6-0.7c0.3-0.4,0.6-1.3-0.3-1.1c-1,0.2-1.7,1.8-1.6,2.7c0.1,0.7,0.5,1.3,1.1,1.6
					c-0.1,0.2-0.3,0.3-0.5,0.5c-1,1-2.4,1-3.8,1c-1.3,0-2.6-0.2-3.8-0.5c-1.9-0.6-3.9-0.8-5.5-2.2c-0.6-0.6-1.1-1.3-1.3-2.1
					c-0.1-0.4-0.1-0.8-0.1-1.3C93.7,96.5,93.8,96.7,94.3,96.7z M88.8,74.6c0-0.4,0.1-0.8,0.2-1.1c0.1-0.3,0.3-0.3,0.6-0.3
					c0.6,0,1.2,0.1,1.7,0.3c0.9,0.3,1.7,0.7,2.4,1.3c1.3,1.1,2,2.8,2.1,4.5c0,0.4,0,0.8-0.3,1c-0.3,0.3-0.7,0.2-1.1,0.1
					s-0.8-0.2-1.1-0.5c-0.4-0.4-0.4-1-0.5-1.5c-0.3-0.9-1-1.6-1.9-1.9c-0.5-0.1-1.1-0.1-1.5-0.4s-0.6-0.8-0.6-1.3
					C88.8,74.8,88.8,74.7,88.8,74.6z M87.7,88.9c0.1-0.4,0.2-0.8,0.2-1.2c0.1-0.6,0.2-1.1,0.4-1.7c0.5,0.7,1.4,1.2,2.3,1.5
					c1,0.3,1.6,0.3,1.7,0.7c0.1,0.5-0.8,1.2-1.7,1.6c-0.5,0.2-1.1,0.3-1.7,0.3c-0.2,0-1.2,0-1.3-0.3c0-0.1,0-0.2,0-0.3
					C87.6,89.3,87.7,89.1,87.7,88.9z M60.3,69.2c0.4-0.4,1.1-0.6,1.7-0.7c1.8-0.3,3.6-0.4,5.4-0.5c0.8,0,1.6-0.2,2.5-0.2
					s1.8,0,2.7-0.1c4.2-0.1,8.4,0,12.6,0.8c1,0.2,2.7,1.2,2.1,2.5c-0.5,1-2,1.3-2.9,1.5c-1.5,0.3-3.1,0.4-4.6,0.5s-3.1,0.1-4.6,0.1
					c-2.7,0-5.5-0.1-8.2-0.3c-1.3-0.1-2.6-0.1-3.9-0.3c-0.7-0.1-1.3-0.3-1.9-0.7c-0.5-0.3-1.1-0.6-1.3-1.2c-0.1-0.4,0-0.9,0.2-1.2
					C60.2,69.3,60.2,69.3,60.3,69.2z M83.4,95.5c-1.2,1-2.8,1.5-4.3,1.8c-4.7,0.9-10.6,1.6-14.6-1.5c-4-3-4.3-7.9-4.6-12.5
					c-0.1-1.8-0.2-3.5-0.2-5.3c0-0.7,0-1.6,0-2.3c0-0.8-0.1-1.7,0.1-2.4c0.5,0.2,1,0.5,1.5,0.7c1.3,0.5,2.9,0.5,4.3,0.6
					c3.1,0.2,6.2,0.4,9.3,0.4s6.2-0.2,9.2-0.7c1.2-0.2,2.6-0.5,3.6-1.3c0,4.1-0.2,8.2-0.8,12.2c-0.3,1.9-0.5,4.3-1.2,6.5
					C85.2,93,84.5,94.4,83.4,95.5z M95.9,89c-0.4,1-1.5,3.5-3.8,4.5c-1.6,0.7-3.6,0.8-5.3,1c-0.2,0-0.4,0-0.6-0.1
					c-0.1-0.2-0.1-0.4,0-0.6c0.3-0.6,0.4-1.2,0.7-1.8c0.3-0.6,0.3-0.5,0.9-0.5c1.1,0.3,2.2,0.2,3.3-0.2c0.9-0.4,1.6-1,2.2-1.8
					c0.1-0.2,0.2-0.4,0.2-0.6c0.1-0.1,0.1-0.3,0.2-0.4C94.5,88.6,95.2,88.8,95.9,89z M96.7,82c0.6,0.1,1.1,0.1,1.7,0.1
					c0.9,0,1.9-0.1,2.8-0.3c0.8-0.2,1.6-0.8,2.4-0.2c0.5,0.4,0.7,1.1,0.5,1.7s-1.2,3.2-2,1.6c-0.2-0.4-0.1-0.9,0.1-1.3
					s0.5-0.7,0.8-1c0.1-0.1,0.2-0.2,0.2-0.4c0-0.2-0.2-0.3-0.3-0.3s-0.3,0.1-0.5,0.1c-0.6,0.3-1,0.8-1.2,1.5c-0.2,0.6-0.2,1.3,0,1.9
					s0.6,0.7,1,1.1c0,0-1.1,0.7-1.2,0.7c-0.5,0.2-1,0.4-1.5,0.5c-1.1,0.2-2.2,0.4-3.4,0.3c-1.8-0.1-3.8-0.5-5.4-1.4
					c-2.5-1.4-2.1-3.8-1.7-6.3c0.2-1,0.8-2.6,2.1-2.2c0.4,0.1,0.8,0.6,0.9,1c0.1,0.5-0.1,1,0.1,1.4c0.2,0.3,0.5,0.5,0.9,0.7
					C94.1,81.6,95.4,81.9,96.7,82z M104.5,66.6c-0.1,0-0.2-0.1-0.4-0.2c-0.8-0.5-1.6-1.1-2.2-1.8c0.4,0.1,1,0.5,1.4,0.8
					c0.5,0.4,1,0.8,1.5,1.2C104.8,66.6,104.6,66.6,104.5,66.6z"/>
			</g>
			<path class="st1" d="M65.4,76.4L65.4,76.4L65.4,76.4C65.5,76.5,65.5,76.4,65.4,76.4C65.5,76.4,65.4,76.4,65.4,76.4"/>
			<path class="st1" d="M65.2,76.3C65.2,76.4,65.2,76.4,65.2,76.3L65.2,76.3C65.3,76.3,65.3,76.3,65.2,76.3"/>
			<path class="st0" d="M144.9,79.3c0-1.5,1.1-3.1,2.9-4.1c2-1.2,4.2-1.2,5.4-0.2c0,0,0.4,0.5-0.3,0.8c-0.4,0.2-0.8,0.6-1,0.9
				s-0.7,0.5-1.4,0.8s-1.5,1-1.8,0.9s-0.6-0.4-0.6-0.4s0.4,0.8,0.2,0.9c-0.1,0.1-0.2,0.3-0.5,0.5S146.5,80,146,80
				C145.4,79.9,145,80,144.9,79.3"/>
			<path class="st0" d="M151.3,81.3c-2.2,1.3-4.6,1.2-5.8-0.1c0.1-0.1-0.1-0.5,0.5-0.6c0.4-0.1,1.6-0.3,2.1-0.9
				c0.5-0.5,1.1,0.2,1.1,0.2s-0.3-0.6,0.3-1.1c0.5-0.4,1.2-0.8,2-1s1-0.9,1.4-1.2c0.3-0.4,1.1-0.5,1.2-0.1
				C154.5,78,153.4,80.1,151.3,81.3"/>
			<path class="st0" d="M148.7,68c-0.2,0.7,0,1.3,0.3,1.7c0.3,0.4,0.9,1,0.7,2.1s-0.4,1.7-0.4,1.7l0.2-0.2c0,0,0.6-0.5,0.9-0.9
				s0.7-1.1,0.5-1.8c-0.2-0.7-0.7-1.1-1.1-1.5"/>
			<path class="st0" d="M146.7,68.8c0,0,0,0.5,0.2,0.9c0.2,0.5,0.9,1,1,1.7c0.2,1.1-0.4,1.4-0.6,1.9c-0.1,0.3-0.1,0.3-0.1,0.3
				s-0.2-0.4-0.1-0.8s0.2-1.1-0.2-1.6c-0.4-0.6-0.6-1-0.6-1.5C146.3,69.2,146.7,68.8,146.7,68.8"/>
			<path class="st0" d="M152.2,69.1c0,0,0,0.5,0.2,0.9c0.2,0.5,0.9,1,1,1.7c0.2,1.1-0.4,1.4-0.6,1.9c-0.1,0.3-0.1,0.3-0.1,0.3
				s-0.2-0.4-0.1-0.8s0.2-1.1-0.2-1.6c-0.4-0.6-0.6-1-0.6-1.5S152.2,69.1,152.2,69.1"/>
			<path class="st0" d="M33.5,79.3c0-1.5,1.1-3.1,2.9-4.1c2-1.2,4.2-1.2,5.4-0.2c0,0,0.4,0.5-0.3,0.8c-0.4,0.2-0.8,0.6-1,0.9
				s-0.7,0.5-1.4,0.8s-1.5,1-1.8,0.9S36.7,78,36.7,78s0.4,0.8,0.2,0.9c-0.1,0.1-0.2,0.3-0.5,0.5S35.1,80,34.6,80
				C34.1,79.9,33.6,80,33.5,79.3"/>
			<path class="st0" d="M40,81.3c-2.2,1.3-4.6,1.2-5.8-0.1c0.1-0.1-0.1-0.5,0.5-0.6c0.4-0.1,1.6-0.3,2.1-0.9
				c0.5-0.5,1.1,0.2,1.1,0.2s-0.3-0.6,0.3-1.1c0.5-0.4,1.2-0.8,2-1s1-0.9,1.4-1.2c0.3-0.4,1.1-0.5,1.2-0.1C43.1,78,42,80.1,40,81.3"
				/>
			<path class="st0" d="M37.3,68c-0.2,0.7,0,1.3,0.3,1.7c0.3,0.4,0.9,1,0.7,2.1s-0.4,1.7-0.4,1.7l0.2-0.2c0,0,0.6-0.5,0.9-0.9
				c0.3-0.4,0.7-1.1,0.5-1.8c-0.2-0.7-0.7-1.1-1.1-1.5"/>
			<path class="st0" d="M35.3,68.8c0,0,0,0.5,0.2,0.9c0.2,0.5,0.9,1,1,1.7c0.2,1.1-0.4,1.4-0.6,1.9c-0.1,0.3-0.1,0.3-0.1,0.3
				s-0.2-0.4-0.1-0.8c0.1-0.4,0.2-1.1-0.2-1.6c-0.4-0.6-0.6-1-0.6-1.5C34.9,69.2,35.3,68.8,35.3,68.8"/>
			<path class="st0" d="M40.9,69.1c0,0,0,0.5,0.2,0.9c0.2,0.5,0.9,1,1,1.7c0.2,1.1-0.4,1.4-0.6,1.9c-0.1,0.2-0.1,0.2-0.1,0.2
				s-0.2-0.4-0.1-0.8c0.1-0.4,0.2-1.1-0.2-1.6c-0.4-0.6-0.6-1-0.6-1.5C40.5,69.5,40.9,69.1,40.9,69.1"/>
		</g>
		<path class="st0" d="M71.1,114.3c0.4,0,0.8-0.4,0.8-0.8s-0.4-0.8-0.8-0.8s-0.8,0.4-0.8,0.8S70.6,114.3,71.1,114.3"/>
		<path class="st2" d="M111.1,114.8c0,0.1,0.1,0.2,0.1,0.2c0.2,0.3,0.5,0.4,0.9,0.3c0.3-0.1,0.6-0.3,0.8-0.5
			c0.3-0.3,0.7-0.9,0.4-1.4c-0.3-0.6-1.2-0.4-1.6-0.1c-0.3,0.2-0.5,0.6-0.6,1C111,114.5,111,114.6,111.1,114.8z"/>
	</g>
	<g id="Wording2">
		<path class="st0" d="M44,94.4l0.5,1.7l-3,1c-0.6,0.2-1.1,0.3-1.5,0.3s-0.7-0.1-1.1-0.4c-0.3-0.3-0.6-0.7-0.8-1.2
			c-0.2-0.6-0.2-1-0.2-1.4s0.2-0.7,0.4-0.9c0.2-0.3,0.6-0.5,1-0.6l0.7,1.6c-0.2,0.1-0.4,0.2-0.5,0.2c-0.1,0.1-0.2,0.2-0.2,0.3
			c0,0.1,0,0.2,0,0.3c0.1,0.2,0.2,0.3,0.3,0.4c0.2,0,0.4,0,0.8-0.1L44,94.4z"/>
		<path class="st0" d="M46.7,101.1l0.8,1.6l-3.1,1.5c-0.3,0.1-0.6,0.2-0.9,0.3c-0.3,0-0.6,0-0.9-0.1s-0.5-0.3-0.7-0.4
			c-0.3-0.3-0.5-0.6-0.7-1.1c-0.1-0.3-0.2-0.5-0.3-0.9c-0.1-0.3-0.2-0.6-0.1-0.9c0-0.3,0.1-0.5,0.2-0.8c0.1-0.3,0.3-0.5,0.4-0.6
			c0.3-0.3,0.6-0.4,0.8-0.6l3.1-1.5l0.8,1.6l-3.2,1.5c-0.3,0.1-0.5,0.3-0.6,0.6c-0.1,0.2-0.1,0.5,0.1,0.8c0.1,0.3,0.3,0.5,0.5,0.5
			c0.2,0.1,0.5,0.1,0.8-0.1L46.7,101.1z"/>
		<path class="st0" d="M44.8,105.9l1,1.4c-0.2,0.2-0.4,0.4-0.4,0.5c-0.1,0.3-0.1,0.6,0.1,0.9c0.1,0.2,0.3,0.3,0.5,0.4s0.3,0,0.5,0
			c0.1-0.1,0.2-0.2,0.2-0.4c0-0.2,0-0.5-0.2-1c-0.3-0.8-0.4-1.4-0.3-1.8c0.1-0.4,0.3-0.8,0.7-1c0.3-0.2,0.5-0.2,0.9-0.2
			c0.3,0,0.6,0.1,0.9,0.3s0.6,0.6,1,1.1c0.4,0.6,0.6,1.2,0.6,1.7s-0.3,0.9-0.7,1.3l-1-1.4c0.2-0.2,0.3-0.4,0.3-0.5
			c0-0.2,0-0.4-0.2-0.6c-0.1-0.2-0.2-0.3-0.4-0.3c-0.1,0-0.3,0-0.4,0c-0.1,0-0.1,0.1-0.1,0.2s0,0.3,0.1,0.6c0.3,0.8,0.4,1.3,0.5,1.7
			c0,0.4,0,0.7-0.1,1s-0.3,0.5-0.6,0.7s-0.7,0.3-1,0.3c-0.4,0-0.7-0.1-1.1-0.3c-0.3-0.2-0.7-0.6-1-1c-0.5-0.8-0.7-1.5-0.6-2
			C44,106.7,44.3,106.3,44.8,105.9z"/>
		<path class="st0" d="M51.5,109.1l3.4,4.2l-1.1,0.9l-1.2-1.4l-3.4,2.8l-1.1-1.4l3.4-2.8l-1.2-1.4L51.5,109.1z"/>
		<path class="st0" d="M57.8,122.6l-1.6-1.3l-0.8,0.6l-1.4-1.2l5.4-3l1.5,1.3l-2,5.8l-1.4-1.2L57.8,122.6z M58.3,121.4l0.8-2
			l-1.8,1.2L58.3,121.4z"/>
		<path class="st0" d="M63.4,120.9l2.2,1.4c0.4,0.3,0.8,0.6,1,0.9s0.3,0.6,0.3,0.9s0,0.7-0.1,1s-0.3,0.7-0.5,1
			c-0.3,0.5-0.6,0.9-1,1.1c-0.3,0.2-0.6,0.3-1,0.4c-0.3,0.1-0.6,0-0.9,0c-0.4-0.1-0.7-0.3-1-0.4l-2.2-1.4L63.4,120.9z M64.2,122.9
			l-1.7,2.7l0.4,0.2c0.3,0.2,0.6,0.3,0.7,0.3c0.2,0,0.4,0,0.5-0.2c0.2-0.1,0.4-0.4,0.7-0.8c0.3-0.5,0.5-0.9,0.4-1.2
			c0-0.3-0.3-0.6-0.7-0.8L64.2,122.9z"/>
		<path class="st0" d="M69.2,124.4l2.4,1.1c0.5,0.2,0.8,0.5,1.1,0.7c0.2,0.3,0.4,0.6,0.5,0.9s0.1,0.7,0,1c-0.1,0.4-0.2,0.7-0.3,1.1
			c-0.3,0.6-0.5,1-0.8,1.2s-0.6,0.4-0.9,0.5s-0.6,0.1-0.9,0.1c-0.4-0.1-0.7-0.2-1-0.3l-2.4-1.1L69.2,124.4z M70.3,126.3l-1.3,2.9
			l0.4,0.2c0.3,0.2,0.6,0.2,0.8,0.2s0.4-0.1,0.5-0.2c0.2-0.1,0.4-0.4,0.5-0.9c0.3-0.6,0.3-1,0.3-1.3c-0.1-0.3-0.3-0.5-0.8-0.7
			L70.3,126.3z"/>
		<path class="st0" d="M78.5,128.2l1.7,0.4l-1.1,4.2l2.7,0.7l-0.4,1.4l-4.4-1.1L78.5,128.2z"/>
		<path class="st0" d="M83.5,132.4c0.1-0.9,0.5-1.6,1.1-2.1s1.4-0.6,2.3-0.5c1,0.1,1.7,0.5,2.1,1.1s0.6,1.3,0.5,2.3
			c-0.1,0.7-0.3,1.2-0.5,1.6c-0.3,0.4-0.7,0.7-1.1,0.9c-0.5,0.2-1,0.2-1.6,0.2c-0.6-0.1-1.2-0.3-1.6-0.5c-0.4-0.3-0.7-0.6-0.9-1.1
			C83.5,133.6,83.4,133.1,83.5,132.4z M85.3,132.6c-0.1,0.6,0,1,0.2,1.3s0.5,0.4,0.8,0.5c0.4,0,0.7,0,0.9-0.3
			c0.2-0.2,0.4-0.7,0.5-1.3c0.1-0.5,0-1-0.2-1.2s-0.5-0.4-0.8-0.5c-0.4,0-0.7,0-0.9,0.3C85.5,131.6,85.4,132,85.3,132.6z"/>
		<path class="st0" d="M90.4,130.3h1.9l1.3,4.2l1.3-4.2h1.8l-2.2,5.8h-1.9L90.4,130.3z"/>
		<path class="st0" d="M97.7,130.2l4.8-0.6l0.2,1.2l-3,0.4l0.1,0.9l2.8-0.3l0.1,1.2l-2.8,0.3l0.1,1.1l3.1-0.4l0.2,1.3l-4.9,0.7
			L97.7,130.2z"/>
		<path class="st0" d="M112.1,132l-1.9,0.6v1l-1.7,0.6l0.3-6.2l1.9-0.6l3.9,4.8l-1.8,0.6L112.1,132z M111.4,131l-1.3-1.8v2.2
			L111.4,131z"/>
		<path class="st0" d="M113.6,126.4l1.5-0.7l3.4,1.9l-1.4-2.9l1.5-0.7l2.5,5.2l-1.5,0.7l-3.3-1.9l1.4,2.9l-1.5,0.7L113.6,126.4z"/>
		<path class="st0" d="M120,123.1l2.2-1.5c0.4-0.3,0.8-0.5,1.2-0.5s0.7,0,1,0.1s0.6,0.3,0.9,0.5s0.5,0.5,0.7,0.9
			c0.3,0.5,0.5,1,0.6,1.3s0.1,0.7,0,1s-0.2,0.6-0.4,0.8c-0.3,0.3-0.5,0.5-0.8,0.7l-2.2,1.5L120,123.1z M122.2,123.2l1.7,2.6l0.4-0.2
			c0.3-0.2,0.5-0.4,0.6-0.5c0.1-0.2,0.1-0.3,0.1-0.6c0-0.2-0.2-0.5-0.4-0.9c-0.3-0.5-0.7-0.8-0.9-0.9c-0.3-0.1-0.6,0-1,0.3
			L122.2,123.2z"/>
		<path class="st0" d="M128.2,117.1l3.4-3.4l0.9,0.9l-2.2,2.1l0.6,0.7l2-1.9l0.8,0.8l-2,1.9l0.8,0.8l2.2-2.2l0.9,0.9l-3.5,3.4
			L128.2,117.1z"/>
		<path class="st0" d="M132.6,112.7l1-1.3l3.9,0.3l-2.5-2l1-1.3l4.5,3.6l-1,1.3l-3.8-0.3l2.5,2l-1,1.3L132.6,112.7z"/>
		<path class="st0" d="M138.2,104.9l0.9-1.5l2.7,1.6c0.6,0.3,1,0.7,1.2,0.9c0.2,0.3,0.4,0.6,0.4,1.1c0,0.4-0.1,0.9-0.4,1.4
			s-0.6,0.8-0.9,1s-0.6,0.3-1,0.3s-0.7-0.1-1.1-0.3l0.7-1.6c0.2,0.1,0.4,0.2,0.5,0.2s0.3,0,0.4,0s0.2-0.1,0.2-0.2
			c0.1-0.2,0.1-0.3,0-0.5s-0.3-0.3-0.6-0.5L138.2,104.9z"/>
		<path class="st0" d="M142.5,103.3c-0.9-0.4-1.4-0.9-1.7-1.6s-0.2-1.5,0.2-2.3c0.4-0.9,0.9-1.5,1.6-1.7c0.7-0.3,1.5-0.2,2.3,0.2
			c0.6,0.3,1.1,0.6,1.4,1s0.5,0.8,0.5,1.3s-0.1,1-0.3,1.6c-0.3,0.6-0.6,1-0.9,1.4c-0.4,0.3-0.8,0.5-1.3,0.6
			C143.7,103.6,143.1,103.5,142.5,103.3z M143.3,101.6c0.5,0.2,1,0.3,1.3,0.2c0.3-0.1,0.6-0.3,0.7-0.7c0.2-0.4,0.2-0.7,0-1
			c-0.1-0.3-0.5-0.6-1.1-0.8c-0.5-0.2-0.9-0.3-1.2-0.2c-0.3,0.1-0.6,0.3-0.7,0.7c-0.1,0.3-0.1,0.6,0,1
			C142.4,101.1,142.7,101.4,143.3,101.6z"/>
		<path class="st0" d="M142.4,96.3l0.6-1.9l2.2-0.6l-1.5-1.7l0.6-1.9l2.6,3.1l2.3,0.7l-0.5,1.7l-2.3-0.7L142.4,96.3z"/>
	</g>
</g>
<g id="Wording1">
	<path class="st0" d="M46.7,51.4c0.6,1.1,0.7,2.5,0.1,3.7c-1,2.1-3.4,2.9-5.5,2c-2.1-1-2.9-3.4-2-5.5c0.6-1.2,1.7-2,2.9-2.3l0.2,1.7
		c-0.7,0.3-1.2,0.7-1.5,1.4c-0.5,1.2,0,2.5,1.1,3.1c1.2,0.5,2.5,0,3.1-1.1c0.3-0.7,0.3-1.3,0.1-2L46.7,51.4z"/>
	<polygon class="st0" points="45.3,45.2 46.4,46 48.2,43.4 49.6,44.3 47.8,46.9 48.9,47.7 51.2,44.4 52.6,45.4 49.2,50.2 42.8,45.7 
		46.2,40.9 47.6,41.9 	"/>
	<path class="st0" d="M57.3,40.3L55,39.9l-1,1l1.4,1.4l-1.3,1.4l-5.6-5.5c0,0,2-2,2.7-2.7c1.1-1.1,2.9-1,4.1,0.2
		c0.8,0.8,1,1.8,0.7,2.7l2.9,0.4L57.3,40.3z M52.8,39.6l1.1-1.1c0.4-0.5,0.5-1.1,0.1-1.6c-0.5-0.4-1.2-0.4-1.6,0L51.3,38L52.8,39.6z
		"/>
	<polygon class="st0" points="58.7,31.1 59.5,32.2 62.1,30.4 63,31.7 60.5,33.6 61.3,34.7 64.5,32.4 65.5,33.7 60.8,37.2 56.2,30.8 
		60.9,27.4 61.9,28.7 	"/>
	<path class="st0" d="M72.4,27.3c0.7,1.4,0,2.8-1,3.3l-3.9,2l-3.5-7l3.7-1.9c1-0.5,2.4-0.3,3.1,1c0.2,0.5,0.3,0.9,0.3,1.3
		C71.6,26.3,72,26.7,72.4,27.3 M66.9,27.5l2-1c0.3-0.2,0.5-0.6,0.3-1s-0.6-0.5-1-0.4l-2,1L66.9,27.5z M70.9,28.1
		c-0.2-0.4-0.7-0.6-1.1-0.4l-2.2,1.1l0.7,1.5l2.2-1.1C70.9,29,71.1,28.6,70.9,28.1"/>
	<path class="st0" d="M80.2,27.4l-1.8-1.5l-1.3,0.4l0.5,1.9l-1.8,0.5l-2.2-7.5c0,0,2.8-0.8,3.6-1.1c1.5-0.4,3.1,0.5,3.5,2.2
		c0.3,1.1,0,2-0.7,2.7l2.3,1.8L80.2,27.4z M76.7,24.6l1.5-0.4c0.6-0.2,1-0.7,0.8-1.4c-0.2-0.6-0.8-1-1.4-0.8l-1.5,0.4L76.7,24.6z"/>
	<path class="st0" d="M90.3,24.7L86.6,25l-0.4,1.1l-2.1,0.2l3.1-8.1l1.4-0.1l4.4,7.4l-2.1,0.2L90.3,24.7z M89.5,23.2l-1.4-2.4
		l-0.9,2.6L89.5,23.2z"/>
	<path class="st0" d="M108.8,26.3c-0.9,0.8-2.3,1.2-3.6,0.9c-2.2-0.5-3.6-2.7-3.1-4.9s2.7-3.6,4.9-3.1c1.3,0.3,2.4,1.2,2.9,2.4
		l-1.6,0.6c-0.4-0.6-0.9-1-1.7-1.2c-1.2-0.3-2.5,0.5-2.8,1.8c-0.3,1.2,0.5,2.5,1.8,2.7c0.8,0.2,1.3,0,2-0.4L108.8,26.3z"/>
	<path class="st0" d="M119,27.8c-0.9,2.1-3.3,3.1-5.4,2.2s-3.1-3.3-2.2-5.4s3.3-3.1,5.4-2.2S119.9,25.7,119,27.8 M117.3,27.1
		c0.5-1.2-0.1-2.5-1.2-3c-1.2-0.5-2.5,0.1-3,1.2c-0.5,1.2,0.1,2.5,1.2,3C115.5,28.8,116.9,28.2,117.3,27.1"/>
	<polygon class="st0" points="124.5,28.5 123.5,30 126.2,31.7 125.3,33.1 122.6,31.4 121.2,33.7 119.6,32.6 122.9,27.5 123.9,26.1 
		128.8,29.3 127.9,30.7 	"/>
	<polygon class="st0" points="131.8,34 130.6,35.3 132.9,37.4 131.8,38.6 129.5,36.5 127.7,38.5 126.3,37.3 130.4,32.7 131.5,31.5 
		135.9,35.4 134.8,36.6 	"/>
	<polygon class="st0" points="138,40.3 136.9,41.2 138.9,43.6 137.6,44.7 135.6,42.2 134.5,43.1 137.1,46.2 135.8,47.3 132.1,42.7 
		138.1,37.8 141.8,42.3 140.5,43.4 	"/>
	<polygon class="st0" points="143.2,47.5 142,48.2 143.6,50.9 142.1,51.8 140.5,49 139.3,49.7 141.3,53.2 139.9,54 136.9,49 
		143.6,45 146.6,50.1 145.2,50.9 	"/>
</g>
</svg>
