<?xml version="1.0" encoding="utf-8"?>
<!-- Generator: Adobe Illustrator 28.0.0, SVG Export Plug-In . SVG Version: 6.00 Build 0)  -->
<svg version="1.1" id="Layer_1" xmlns="http://www.w3.org/2000/svg" xmlns:xlink="http://www.w3.org/1999/xlink" x="0px" y="0px"
	 viewBox="0 0 336 217.5" style="enable-background:new 0 0 336 217.5;" xml:space="preserve">
<style type="text/css">
	.st0{opacity:0.8;fill:#FFFFFF;enable-background:new    ;}
	.st1{opacity:0.8;fill:#E8F7F9;enable-background:new    ;}
	.st2{fill:#FFFFFF;stroke:#000000;stroke-width:1.5;stroke-linecap:round;stroke-linejoin:round;stroke-miterlimit:10;}
	.st3{fill:none;stroke:#000000;stroke-width:1.5;stroke-linecap:round;stroke-miterlimit:10;}
	.st4{fill:none;stroke:#1D1D1B;stroke-width:1.5;stroke-linecap:round;stroke-miterlimit:10;}
	.st5{fill:#C6C6C6;}
	.st6{fill:none;stroke:#000000;stroke-width:1.5;stroke-miterlimit:10;}
	.st7{fill:none;stroke:#000000;stroke-width:1.5;stroke-miterlimit:10;stroke-dasharray:4.9893,4.9893;}
	.st8{fill:#B2B2B2;stroke:#000000;stroke-width:1.5;stroke-linecap:round;stroke-linejoin:round;stroke-miterlimit:10;}
	.st9{fill:#DADADA;stroke:#000000;stroke-width:1.5;stroke-linecap:round;stroke-linejoin:round;stroke-miterlimit:10;}
	.st10{fill:#DADADA;stroke:#000000;stroke-width:1.5;stroke-miterlimit:10;}
	.st11{fill:#DADADA;stroke:#000000;stroke-width:1.5;stroke-linejoin:round;stroke-miterlimit:10;}
	.st12{opacity:0.4;fill:#B2B2B2;enable-background:new    ;}
	.st13{fill:none;stroke:#000000;stroke-width:1.5;stroke-linecap:round;stroke-linejoin:round;stroke-miterlimit:10;}
</style>
<g id="bg">
	<g>
		<path class="st0" d="M139.3,185.5h78.6c5,5.1,3.7,9.5,2,12.1h-7.7c-3.4,0-6.1,2.5-6.1,5.7v2.3c0,3.1,2.7,5.7,6.1,5.7h57.9
			c3.4,0,6.1-2.5,6.1-5.7v-2.3c0-3.1-2.7-5.7-6.1-5.7h-4.9c-1.6-2.5-3-6.9,2-12.1h45.9c5.2,0,9.4-4.4,9.4-9.8v-3.9
			c0-5.4-4.2-9.8-9.4-9.8h-87.9c-5-5.1-3.7-9.5-2-12.1h7.7c3.4,0,6.1-2.5,6.1-5.7v-2.3c0-3.1-2.7-5.7-6.1-5.7H173
			c-3.4,0-6.1,2.6-6.1,5.7v2.3c0,3.1,2.7,5.7,6.1,5.7h7.6c1.6,2.5,3,6.9-2,12.1h-39.3c-5.2,0-9.3,4.4-9.3,9.8v3.9
			C129.9,181.2,134.1,185.5,139.3,185.5z"/>
		<path class="st1" d="M23.5,92L23.5,92c4.5,0,7.4,4.7,5.4,8.7c-0.1,0.1-0.1,0.2-0.2,0.3c-1,1.9-3,3-5.2,3h-17c-3.3,0-6,2.7-6,6
			v11.4c0,3.3,2.7,6,6,6h59c2.1,0,4.1,1.1,5.2,2.9c0.2,0.3,0.3,0.5,0.4,0.8c1.8,3.9-1.2,8.4-5.5,8.4h-2.9c-3.4,0-6.1,2.5-6.1,5.7
			v2.3c0,3.1,2.7,5.7,6.1,5.7h57.9c3.4,0,6.1-2.6,6.1-5.7v-2.3c0-3.1-2.7-5.7-6.1-5.7h-2.7c-4.3,0-7.3-4.4-5.5-8.3
			c0.1-0.3,0.3-0.5,0.4-0.8c1-1.9,3.1-3,5.2-3h36.4c5.2,0,9.3-4.4,9.3-9.8v-3.9c0-5.4-4.2-9.8-9.3-9.8H78.6c-2.1,0-4.1-1.1-5.2-2.9
			c-0.1-0.1-0.1-0.2-0.2-0.3c-2.1-4,0.9-8.7,5.3-8.7h2.8c3.4,0,6.1-2.5,6.1-5.7V84c0-3.1-2.7-5.7-6.1-5.7H23.5
			c-3.4,0-6.1,2.5-6.1,5.7v2.3C17.4,89.4,20.1,92,23.5,92z"/>
		<path class="st1" d="M185.6,87.9h85c2.1,0,4.1,1.1,5.2,3c0.1,0.3,0.3,0.5,0.4,0.8c1.8,3.9-1.2,8.4-5.5,8.4h-2.8
			c-3.4,0-6.1,2.5-6.1,5.7v2.3c0,3.1,2.7,5.7,6.1,5.7h57.9c3.4,0,6.1-2.6,6.1-5.7v-2.3c0-3.1-2.7-5.7-6.1-5.7H323
			c-4.3,0-7.4-4.4-5.6-8.3c0.1-0.2,0.2-0.5,0.4-0.8c1-1.9,3.1-3,5.2-3h5.6c3.3,0,6-2.7,6-6V70.5c0-3.3-2.7-6-6-6h-45.1
			c-2.1,0-4.1-1.1-5.2-3c-0.1-0.3-0.3-0.5-0.4-0.8c-1.8-3.9,1.2-8.4,5.5-8.4h2.8c3.4,0,6.1-2.5,6.1-5.7v-2.3c0-3.1-2.7-5.7-6.1-5.7
			h-57.9c-3.4,0-6.1,2.5-6.1,5.7v2.3c0,3.1,2.7,5.7,6.1,5.7l0,0c4.3,0,7.4,4.4,5.6,8.3c-0.1,0.2-0.2,0.5-0.4,0.8c-1,1.9-3.1,3-5.2,3
			h-43c-5.2,0-9.4,4.4-9.4,9.8v3.9C176.3,83.5,180.5,87.9,185.6,87.9z"/>
	</g>
	<circle class="st2" cx="58" cy="47.3" r="15.9"/>
	<path class="st3" d="M47.4,47.3c0-5.9,4.8-10.6,10.6-10.6"/>
	<g>
		<path d="M55.2,66.3c-8.1-1.2-14.6-7.5-16.1-15.6h-1.5c1.5,8.9,8.7,15.8,17.6,17.1L55.2,66.3L55.2,66.3z"/>
		<path d="M61.4,66.2v1.5c8.7-1.4,15.7-8.3,17.1-17H77C75.5,58.6,69.3,64.8,61.4,66.2z"/>
		<path d="M55.2,28.2v-1.5C46,28,38.8,35.2,37.5,44.4H39C40.2,36.1,46.8,29.4,55.2,28.2z"/>
		<path d="M61.4,28.3c8.1,1.4,14.5,7.9,15.7,16.1h1.5c-1.2-9-8.3-16.2-17.2-17.6C61.4,26.8,61.4,28.3,61.4,28.3z"/>
	</g>
	<line class="st4" x1="300.9" y1="120.3" x2="285.8" y2="120.3"/>
	<line class="st4" x1="307.8" y1="114.9" x2="297.7" y2="114.9"/>
	<line class="st4" x1="307.2" y1="124.9" x2="304.9" y2="124.9"/>
	<line class="st4" x1="300.9" y1="124.9" x2="298.7" y2="124.9"/>
	<line class="st4" x1="30.8" y1="86.1" x2="15.7" y2="86.1"/>
	<line class="st4" x1="37.1" y1="90.7" x2="34.8" y2="90.7"/>
	<line class="st4" x1="30.9" y1="90.7" x2="28.6" y2="90.7"/>
	<line class="st4" x1="298.5" y1="87.6" x2="313.6" y2="87.6"/>
	<line class="st4" x1="41.5" y1="137.5" x2="26.4" y2="137.5"/>
	<line class="st4" x1="47.8" y1="142.2" x2="45.5" y2="142.2"/>
	<line class="st4" x1="41.5" y1="142.2" x2="39.3" y2="142.2"/>
	<line class="st4" x1="284.8" y1="159" x2="299.9" y2="159"/>
	<line class="st4" x1="278.5" y1="154.3" x2="280.8" y2="154.3"/>
	<line class="st4" x1="284.7" y1="154.3" x2="287" y2="154.3"/>
	<rect x="38" y="179.7" class="st5" width="269.4" height="14.7"/>
	<line class="st6" x1="34.3" y1="176.1" x2="303.7" y2="176.1"/>
	<line class="st6" x1="35.3" y1="190.8" x2="304.7" y2="190.8"/>
	<g>
		<g>
			<line class="st6" x1="34.3" y1="183.4" x2="36.8" y2="183.4"/>
			<line class="st7" x1="41.8" y1="183.4" x2="298.7" y2="183.4"/>
			<line class="st6" x1="301.2" y1="183.4" x2="303.7" y2="183.4"/>
		</g>
	</g>
	<line class="st4" x1="126.7" y1="205.8" x2="124.4" y2="205.8"/>
	<line class="st4" x1="120.5" y1="205.8" x2="118.2" y2="205.8"/>
	<line class="st4" x1="273.5" y1="203.1" x2="258.4" y2="203.1"/>
	<line class="st4" x1="279.8" y1="207.7" x2="277.5" y2="207.7"/>
	<line class="st4" x1="273.5" y1="207.7" x2="271.3" y2="207.7"/>
	<line class="st4" x1="73.2" y1="203.1" x2="58" y2="203.1"/>
	<line class="st4" x1="79.4" y1="207.7" x2="77.2" y2="207.7"/>
	<line class="st4" x1="73.2" y1="207.7" x2="71" y2="207.7"/>
	<line class="st4" x1="301.9" y1="205.8" x2="317" y2="205.8"/>
	<line class="st4" x1="301.9" y1="144.3" x2="317" y2="144.3"/>
	<line class="st4" x1="38" y1="118.2" x2="53.1" y2="118.2"/>
	<line class="st4" x1="215.6" y1="205.8" x2="230.7" y2="205.8"/>
	<line class="st4" x1="9" y1="193.3" x2="24.1" y2="193.3"/>
	<circle class="st4" cx="204.8" cy="205.4" r="2.5"/>
	<circle class="st4" cx="26.4" cy="203.1" r="2.5"/>
	<line class="st4" x1="149.5" y1="205.8" x2="134.4" y2="205.8"/>
	<line class="st4" x1="156.3" y1="200.4" x2="146.3" y2="200.4"/>
	<line class="st4" x1="161.1" y1="200.3" x2="163.4" y2="200.3"/>
	<circle class="st4" cx="277.6" cy="44.7" r="2.5"/>
	<circle class="st4" cx="24.9" cy="116.9" r="2.5"/>
	<circle class="st4" cx="319.5" cy="112.3" r="2.5"/>
	<line class="st4" x1="272.1" y1="69" x2="269.8" y2="69"/>
	<line class="st4" x1="265.9" y1="69" x2="263.6" y2="69"/>
	<line class="st4" x1="294.9" y1="69" x2="279.8" y2="69"/>
	<line class="st4" x1="315.3" y1="28.6" x2="300.2" y2="28.6"/>
	<line class="st4" x1="90" y1="75.5" x2="74.9" y2="75.5"/>
	<line class="st4" x1="41.8" y1="78.3" x2="26.7" y2="78.3"/>
	<line class="st4" x1="259.6" y1="57.3" x2="244.5" y2="57.3"/>
	<line class="st4" x1="266.5" y1="51.9" x2="256.5" y2="51.9"/>
	<line class="st4" x1="272.7" y1="17" x2="257.6" y2="17"/>
	<line class="st4" x1="279.5" y1="11.6" x2="269.5" y2="11.6"/>
	<line class="st4" x1="242.8" y1="52.3" x2="227.7" y2="52.3"/>
	<line class="st4" x1="249.7" y1="46.9" x2="239.7" y2="46.9"/>
	<line class="st4" x1="221.3" y1="52.5" x2="219.1" y2="52.5"/>
	<rect x="210" y="94.8" class="st8" width="55" height="4.4"/>
	<rect x="206.4" y="90.5" class="st9" width="62.1" height="4.4"/>
	<rect x="213.5" y="99.4" class="st2" width="48.2" height="76.7"/>
	<g>
		<rect x="222.3" y="105.5" class="st10" width="10.4" height="18.7"/>
		<line class="st6" x1="222.3" y1="110" x2="232.6" y2="110"/>
	</g>
	<g>
		<rect x="242.3" y="105.5" class="st10" width="10.4" height="18.7"/>
		<line class="st6" x1="242.3" y1="118.1" x2="252.7" y2="118.1"/>
	</g>
	<rect x="209.3" y="131.6" class="st11" width="56.4" height="4.4"/>
	<rect x="213.5" y="158.7" class="st10" width="48.2" height="17.4"/>
	<rect x="214.3" y="100.1" class="st12" width="46.7" height="3.6"/>
	<polygon class="st9" points="234.5,126.8 234.5,126.8 220.5,126.8 220.5,126.8 220.5,124.2 220.5,124.2 234.5,124.2 234.5,124.2 	
		"/>
	<polygon class="st9" points="254.5,126.8 254.5,126.8 240.5,126.8 240.5,126.8 240.5,124.2 240.5,124.2 254.5,124.2 254.5,124.2 	
		"/>
	<g>
		<rect x="227.7" y="136" class="st2" width="20.1" height="37.5"/>
	</g>
	<g>
		<rect x="231.4" y="145.1" class="st2" width="12.7" height="28.4"/>
	</g>
	<polygon class="st9" points="247.7,176.1 247.7,176.1 227.2,176.1 227.2,176.1 227.2,173.5 227.2,173.5 247.7,173.5 247.7,173.5 	
		"/>
	<rect x="234.5" y="148.6" class="st10" width="6.5" height="20.2"/>
	<rect x="231.4" y="139.8" class="st11" width="12.7" height="5.3"/>
	<rect x="224.7" y="130.3" class="st8" width="26.1" height="7.1"/>
	<rect x="65" y="94.8" class="st8" width="55" height="4.4"/>
	<rect x="61.4" y="90.5" class="st9" width="62.1" height="4.4"/>
	<rect x="68.5" y="99.4" class="st2" width="48.2" height="76.7"/>
	<g>
		<rect x="77.2" y="105.5" class="st10" width="10.4" height="18.7"/>
		<line class="st6" x1="77.2" y1="110" x2="87.6" y2="110"/>
	</g>
	<g>
		<rect x="97.2" y="105.5" class="st10" width="10.4" height="18.7"/>
		<line class="st6" x1="97.2" y1="118.1" x2="107.6" y2="118.1"/>
	</g>
	<rect x="69.2" y="100.1" class="st12" width="46.7" height="3.6"/>
	<polygon class="st9" points="89.4,126.8 89.4,126.8 75.4,126.8 75.4,126.8 75.4,124.2 75.4,124.2 89.4,124.2 89.4,124.2 	"/>
	<polygon class="st9" points="109.4,126.8 109.4,126.8 95.4,126.8 95.4,126.8 95.4,124.2 95.4,124.2 109.4,124.2 109.4,124.2 	"/>
	<g>
		<rect x="77.2" y="134.5" class="st10" width="10.4" height="18.7"/>
		<line class="st6" x1="77.2" y1="146.8" x2="87.6" y2="146.8"/>
	</g>
	<g>
		<rect x="97.2" y="134.5" class="st10" width="10.4" height="18.7"/>
		<line class="st6" x1="97.2" y1="139" x2="107.6" y2="139"/>
	</g>
	<polygon class="st9" points="89.4,155.8 89.4,155.8 75.4,155.8 75.4,155.8 75.4,153.2 75.4,153.2 89.4,153.2 89.4,153.2 	"/>
	<polygon class="st9" points="109.4,155.8 109.4,155.8 95.4,155.8 95.4,155.8 95.4,153.2 95.4,153.2 109.4,153.2 109.4,153.2 	"/>
	<rect x="114.3" y="76.5" class="st2" width="101.5" height="99.6"/>
	<polygon class="st9" points="113.7,65.3 106.6,78.8 222.6,78.8 216.2,65.3 	"/>
	<line class="st13" x1="163" y1="47.1" x2="145.9" y2="47.1"/>
	<line class="st13" x1="163" y1="55.8" x2="145.9" y2="55.8"/>
	<line class="st13" x1="163" y1="43.1" x2="163" y2="60.3"/>
	<line class="st13" x1="158.7" y1="43.1" x2="158.7" y2="55.8"/>
	<line class="st13" x1="154.3" y1="43.1" x2="154.3" y2="55.8"/>
	<line class="st13" x1="150" y1="43.1" x2="150" y2="55.8"/>
	<line class="st13" x1="131.9" y1="47.1" x2="149" y2="47.1"/>
	<line class="st13" x1="131.9" y1="55.8" x2="149" y2="55.8"/>
	<line class="st13" x1="131.9" y1="43.1" x2="131.9" y2="60.3"/>
	<line class="st13" x1="136.2" y1="43.1" x2="136.2" y2="55.8"/>
	<line class="st13" x1="140.6" y1="43.1" x2="140.6" y2="55.8"/>
	<line class="st13" x1="144.9" y1="43.1" x2="144.9" y2="55.8"/>
	<g>
		<rect x="125.1" y="92.9" class="st10" width="12.2" height="21.7"/>
		<line class="st6" x1="125.1" y1="101.3" x2="137.2" y2="101.3"/>
	</g>
	<line class="st13" x1="139.6" y1="92.9" x2="122.5" y2="92.9"/>
	<polygon class="st9" points="139.2,117.1 139.2,117.1 122.5,117.1 122.5,117.1 122.5,114.6 122.5,114.6 139.2,114.6 139.2,114.6 	
		"/>
	<g>
		<rect x="125.1" y="140.6" class="st10" width="12.2" height="21.7"/>
		<line class="st6" x1="125.1" y1="148.9" x2="137.2" y2="148.9"/>
	</g>
	<line class="st13" x1="139.6" y1="140.6" x2="122.5" y2="140.6"/>
	<polygon class="st9" points="139.2,164.7 139.2,164.7 122.5,164.7 122.5,164.7 122.5,162.2 122.5,162.2 139.2,162.2 139.2,162.2 	
		"/>
	<g>
		<rect x="192.9" y="140.6" class="st10" width="12.2" height="21.7"/>
		<line class="st6" x1="192.9" y1="148.9" x2="205" y2="148.9"/>
	</g>
	<line class="st13" x1="207.5" y1="140.6" x2="190.3" y2="140.6"/>
	<polygon class="st9" points="207,164.7 207,164.7 190.3,164.7 190.3,164.7 190.3,162.2 190.3,162.2 207,162.2 207,162.2 	"/>
	<g>
		<rect x="147.8" y="92.9" class="st10" width="12.2" height="21.7"/>
		<line class="st6" x1="147.8" y1="101.3" x2="159.9" y2="101.3"/>
	</g>
	<line class="st13" x1="162.4" y1="92.9" x2="145.2" y2="92.9"/>
	<polygon class="st9" points="161.9,117.1 161.9,117.1 145.2,117.1 145.2,117.1 145.2,114.6 145.2,114.6 161.9,114.6 161.9,114.6 	
		"/>
	<g>
		<rect x="170.5" y="92.9" class="st10" width="12.2" height="21.7"/>
		<line class="st6" x1="170.5" y1="101.3" x2="182.6" y2="101.3"/>
	</g>
	<line class="st13" x1="185.1" y1="92.9" x2="167.9" y2="92.9"/>
	<polygon class="st9" points="184.6,117.1 184.6,117.1 167.9,117.1 167.9,117.1 167.9,114.6 167.9,114.6 184.6,114.6 184.6,114.6 	
		"/>
	<g>
		<rect x="193.2" y="92.9" class="st10" width="12.2" height="21.7"/>
		<line class="st6" x1="193.2" y1="101.3" x2="205.4" y2="101.3"/>
	</g>
	<line class="st13" x1="207.8" y1="92.9" x2="190.6" y2="92.9"/>
	<polygon class="st9" points="207.3,117.1 207.3,117.1 190.6,117.1 190.6,117.1 190.6,114.6 190.6,114.6 207.3,114.6 207.3,114.6 	
		"/>
	<rect x="109" y="124.3" class="st11" width="111.5" height="6.9"/>
	<g>
		<rect x="154.9" y="131.7" class="st2" width="19.2" height="38.3"/>
	</g>
	<g>
		<rect x="158.6" y="141" class="st2" width="12.2" height="29"/>
	</g>
	<polygon class="st9" points="173.1,172.4 173.1,172.4 156,172.4 156,172.4 156,170 156,170 173.1,170 173.1,170 	"/>
	<rect x="161.5" y="144.6" class="st10" width="6.3" height="20.6"/>
	<polygon class="st2" points="173.1,176.1 173.1,176.1 156,176.1 156,176.1 156,172.5 156,172.5 173.1,172.5 173.1,172.5 	"/>
	<rect x="151.2" y="165.9" class="st8" width="4.6" height="10.2"/>
	<rect x="173.3" y="165.9" class="st8" width="4.6" height="10.2"/>
	<rect x="158.6" y="135.6" class="st11" width="12.2" height="5.4"/>
	<rect x="151.5" y="122.3" class="st8" width="26.3" height="10.6"/>
	<line class="st13" x1="161.5" y1="156.2" x2="163.5" y2="156.2"/>
	<rect x="115" y="88.8" class="st12" width="5.7" height="2.2"/>
	<rect x="130.3" y="117.8" class="st12" width="5.7" height="2.2"/>
	<rect x="141.4" y="102.3" class="st12" width="5.7" height="2.2"/>
	<rect x="153.5" y="87.7" class="st12" width="5.7" height="2.2"/>
	<rect x="165.1" y="119.6" class="st12" width="5.7" height="2.2"/>
	<rect x="183.3" y="109.7" class="st12" width="5.7" height="2.2"/>
	<rect x="193.2" y="90" class="st12" width="5.7" height="2.2"/>
	<rect x="209.3" y="95.7" class="st12" width="5.7" height="2.2"/>
	<rect x="205.4" y="117.8" class="st12" width="5.7" height="2.2"/>
	<rect x="174.9" y="138.3" class="st12" width="5.7" height="2.2"/>
	<rect x="183.3" y="149.7" class="st12" width="5.7" height="2.2"/>
	<rect x="177.8" y="161.1" class="st12" width="5.7" height="2.2"/>
	<rect x="197.8" y="167.7" class="st12" width="5.7" height="2.2"/>
	<rect x="209.3" y="144.6" class="st12" width="5.7" height="2.2"/>
	<rect x="200.6" y="136.1" class="st12" width="5.7" height="2.2"/>
	<rect x="148.4" y="143.5" class="st12" width="5.7" height="2.2"/>
	<rect x="137.2" y="151.4" class="st12" width="5.7" height="2.2"/>
	<rect x="144.9" y="160" class="st12" width="5.7" height="2.2"/>
	<rect x="125.6" y="137.6" class="st12" width="5.7" height="2.2"/>
	<rect x="115.1" y="145.7" class="st12" width="5.7" height="2.2"/>
	<rect x="118.7" y="156.2" class="st12" width="5.7" height="2.2"/>
	<rect x="136.8" y="167.7" class="st12" width="5.7" height="2.2"/>
	<rect x="114.3" y="78.8" class="st8" width="101.5" height="4.2"/>
	<rect x="115.1" y="83.6" class="st12" width="99.9" height="2.4"/>
	<rect x="115.1" y="131.7" class="st12" width="99.9" height="2.4"/>
	<rect x="216.9" y="136.5" class="st12" width="44.1" height="2.4"/>
	<line class="st3" x1="197.6" y1="49.8" x2="197.6" y2="64.5"/>
	<line class="st3" x1="186.5" y1="53.3" x2="201.2" y2="53.3"/>
	<line class="st3" x1="193.8" y1="49.8" x2="193.8" y2="56.4"/>
	<line class="st3" x1="188.9" y1="49.8" x2="188.9" y2="56.4"/>
	<rect x="124.4" y="60.3" class="st2" width="46.4" height="5"/>
	<rect x="68.4" y="165.2" class="st10" width="46" height="10.9"/>
	<g>
		<path class="st8" d="M260.4,150h0.2c0-2.9,2.3-5.2,5.2-5.2c2.9,0,5.2,2.3,5.2,5.2h0.2c3.6,0,6.5,2.9,6.5,6.5s-2.9,6.5-6.5,6.5
			h-10.7c-3.6,0-6.5-2.9-6.5-6.5S256.8,150,260.4,150z"/>
		<line class="st13" x1="265.6" y1="151.2" x2="265.6" y2="176.1"/>
		<line class="st13" x1="265.6" y1="160.3" x2="271.2" y2="155"/>
		<line class="st13" x1="265.6" y1="158.6" x2="259.6" y2="154.1"/>
	</g>
	<g>
		<path class="st8" d="M115.1,153.5h0.2c0-2.9,2.3-5.2,5.2-5.2c2.9,0,5.2,2.3,5.2,5.2h0.2c3.6,0,6.5,2.9,6.5,6.5s-2.9,6.5-6.5,6.5
			h-10.7c-3.6,0-6.5-2.9-6.5-6.5C108.6,156.5,111.5,153.5,115.1,153.5z"/>
		<path class="st8" d="M120.3,154.6c0,7.2,0,14.3,0,21.5"/>
		<line class="st13" x1="120.3" y1="163.8" x2="125.9" y2="158.5"/>
		<line class="st13" x1="120.3" y1="162.1" x2="114.3" y2="157.6"/>
	</g>
	<path class="st2" d="M139.9,169.2c-0.1-1.3,0.6-2.1,1.3-2.5c0.8-0.5,1.8-0.4,2.7,0c0.6-0.8,1.2-1.3,2.1-1.6
		c0.9-0.3,1.9-0.2,2.8,0.2c1.4,0.7,2.5,2.2,2,4.1c1.9,0.8,2.4,2.4,2.2,3.6c-0.2,1.5-1.5,2.6-3,2.6c-0.1,0-5.7,0-9.1,0
		c-2.3,0-3.4-1.6-3.5-3C137.4,171.3,138.1,169.7,139.9,169.2z"/>
	<path class="st2" d="M275.4,169.2c-0.1-1.3,0.6-2.1,1.3-2.5c0.8-0.5,1.8-0.4,2.7,0c0.6-0.8,1.2-1.3,2.1-1.6s1.9-0.2,2.8,0.2
		c1.4,0.7,2.5,2.2,2,4.1c1.9,0.8,2.4,2.4,2.2,3.6c-0.2,1.5-1.5,2.6-3,2.6c-0.1,0-5.7,0-9.1,0c-2.3,0-3.4-1.6-3.5-3
		C272.9,171.3,273.6,169.7,275.4,169.2z"/>
	<path class="st2" d="M188.8,169.2c0.1-1.3-0.6-2.1-1.3-2.5c-0.8-0.5-1.8-0.4-2.7,0c-0.6-0.8-1.2-1.3-2.1-1.6
		c-0.9-0.3-1.9-0.2-2.8,0.2c-1.4,0.7-2.5,2.2-2,4.1c-1.9,0.8-2.4,2.4-2.2,3.6c0.2,1.5,1.5,2.6,3,2.6c0.1,0,5.7,0,9.1,0
		c2.3,0,3.4-1.6,3.5-3C191.3,171.3,190.6,169.7,188.8,169.2z"/>
	<path class="st2" d="M66.7,169.2c0.1-1.3-0.6-2.1-1.3-2.5c-0.8-0.5-1.8-0.4-2.7,0c-0.6-0.8-1.2-1.3-2.1-1.6
		c-0.9-0.3-1.9-0.2-2.8,0.2c-1.4,0.7-2.5,2.2-2,4.1c-1.9,0.8-2.4,2.4-2.2,3.6c0.2,1.5,1.5,2.6,3,2.6c0.1,0,5.7,0,9.1,0
		c2.3,0,3.4-1.6,3.5-3C69.3,171.3,68.5,169.7,66.7,169.2z"/>
</g>
<g id="text">
</g>
<g id="Layer_1_00000128471301276847758440000013624486506448816559_">
</g>
<g id="Layer_3">
</g>
<g id="Layer_4">
</g>
<g id="Layer_5">
</g>
<g id="Layer_6">
</g>
<g id="Layer_7">
</g>
</svg>
