<?xml version="1.0" encoding="utf-8"?>
<!-- Generator: Adobe Illustrator 28.0.0, SVG Export Plug-In . SVG Version: 6.00 Build 0)  -->
<svg version="1.1" id="Layer_1" xmlns="http://www.w3.org/2000/svg" xmlns:xlink="http://www.w3.org/1999/xlink" x="0px" y="0px"
	 viewBox="0 0 1400 1138.5" style="enable-background:new 0 0 1400 1138.5;" xml:space="preserve">
<style type="text/css">
	.st0{fill-rule:evenodd;clip-rule:evenodd;fill:#235899;}
	.st1{fill:#235899;}
	.st2{fill-rule:evenodd;clip-rule:evenodd;fill:#BA3C4F;}
	.st3{fill:#E6E6E6;}
	.st4{fill:#BA3C4F;}
	.st5{fill-rule:evenodd;clip-rule:evenodd;fill:#E6E6E6;}
</style>
<g>
	<g>
		<polygon class="st0" points="809.1,471.2 935.7,471.2 935.7,569.5 920.8,569.5 920.8,550.7 823.9,550.7 823.9,569.5 809.1,569.5 
					"/>
	</g>
	<g>
		<polygon class="st1" points="852,382.9 892.8,382.9 913.2,419.4 831.6,419.4 		"/>
	</g>
	<g>
		<rect x="830.7" y="423.8" class="st2" width="83.4" height="42.4"/>
	</g>
	<g>
		<rect x="852" y="345.9" class="st2" width="40.8" height="33.3"/>
	</g>
	<g>
		<polygon class="st1" points="864.8,307.5 880,307.5 893.2,344 851.6,344 		"/>
	</g>
	<g>
		<rect x="866.2" y="266.2" class="st2" width="12.3" height="39.8"/>
	</g>
	<g>
		<path class="st3" d="M887.4,498.9c-3.8-3.8-9.1-6.2-15-6.2s-11.2,2.4-15,6.2l0,0c-3.8,3.8-6.2,9.1-6.2,15c0,5.8,2.4,11.2,6.2,15
			s9.1,6.2,15,6.2s11.2-2.4,15-6.2s6.2-9.1,6.2-15c0-5.8-2.3-11.1-6.1-14.9L887.4,498.9z M872.4,488.1c7.1,0,13.6,2.9,18.3,7.6
			l0.1,0.1c4.6,4.7,7.4,11.1,7.4,18.1c0,7.1-2.9,13.6-7.6,18.3c-4.7,4.7-11.1,7.6-18.3,7.6c-7.1,0-13.6-2.9-18.3-7.6
			c-4.7-4.7-7.6-11.1-7.6-18.3c0-7.1,2.9-13.6,7.6-18.3l0,0l0,0C858.8,491,865.2,488.1,872.4,488.1z M883.7,500.9
			c1-0.8,2.4-0.8,3.3,0.2c0.8,1,0.8,2.4-0.2,3.3L874,515.7c-0.8,0.8-2.1,0.8-2.9,0.1l-8.8-6.8c-1-0.8-1.2-2.2-0.4-3.3
			c0.8-1,2.2-1.2,3.2-0.4l7.3,5.6L883.7,500.9z"/>
	</g>
	<g>
		<path class="st0" d="M917.1,705.5v152.3h-89.5V705.5H917.1z M917.1,582.4v87.5h-89.5v-87.5H917.1z"/>
	</g>
	<g>
		<rect x="813.6" y="862.8" class="st2" width="117.5" height="15.8"/>
	</g>
	<g>
		<rect x="827.6" y="555.3" class="st2" width="89.5" height="23.4"/>
	</g>
	<g>
		<path class="st3" d="M889.1,705.5v139.7h-4.4V705.5H889.1z M889.1,595v75h-4.4v-75H889.1z M874.6,705.5v139.7h-4.4V705.5H874.6z
			 M874.6,595v75h-4.4v-75H874.6z M860.1,705.5v139.7h-4.4V705.5H860.1z M860.1,595v75h-4.4v-75H860.1z M845.7,705.5v139.7h-4.4
			V705.5H845.7z M845.7,595v75h-4.4v-75H845.7z M903.5,705.5v139.7h-4.4V705.5H903.5z M903.5,595v75h-4.4v-75H903.5z"/>
	</g>
	<g>
		<path class="st0" d="M164.2,587.3c28.7-10.6,61-11.7,92-1.3l-8.3,20.9c-25.2-8.2-51.4-7.3-74.8,1L164.2,587.3z M86.5,659.1
			c13.7-29.7,36.7-52.4,64.1-66l8.9,20.6c-22.2,11.3-40.8,29.7-52.1,53.6L86.5,659.1z M82.3,764.9c-10.6-28.7-11.7-61-1.3-92
			l20.9,8.3c-8.2,25.2-7.3,51.4,1,74.8L82.3,764.9z M154.1,842.6c-29.7-13.7-52.4-36.7-65.9-64.1l20.6-8.9
			c11.3,22.2,29.7,40.8,53.6,52.1L154.1,842.6z M185.1,852.6c-5.4-1.2-11.8-2.8-17.2-4.5l8.3-20.9c3.9,1.1,8.5,2,12.4,2.8
			L185.1,852.6z M223.1,855c-8.2,0.8-14.3,0.8-22.6,0l3-22.3c6.1,0.6,10.7,0.6,16.7,0L223.1,855z M259.9,846.8
			c-6.8,2.4-15,4.7-21.9,6.1l-3.3-22.4c5.1-1.1,11.2-2.7,16.3-4.4L259.9,846.8z M296.2,826.8c-7.1,5.5-14.7,10.2-22.7,14.1
			l-8.9-20.6c17.8-9.1,33.4-22.8,44.7-40.2L296.2,826.8z M327.9,713.6c-0.4-12.2-2.7-24.2-6.7-35.5l18.9-8.1L327.9,713.6z
			 M270,591.5c29.7,13.7,52.4,36.7,65.9,64.1l-20.6,8.9c-11.3-22.2-29.7-40.8-53.6-52.1L270,591.5z"/>
	</g>
	<g>
		<path class="st4" d="M185.9,941.8h25.3h26l-25.1-192.4L185.9,941.8z M172.1,955.2l36.7-238.1c0.4-2.5,2.2-4,4-3.4
			c1.2,0.4,2.2,1.8,2.4,3.4l0,0l0,0l34.9,238.1H172.1z"/>
	</g>
	<g>
		<path class="st4" d="M157.5,578.6l54.4,126.2l50.8-127.7c-7.5-5.2-10.6-15.1-7.1-23.9c4.1-10.3,15.8-15.4,26.1-11.3
			c10.3,4.2,15.4,15.9,11.3,26.2c-3.5,8.8-12.6,13.8-21.6,12.5l-50.8,127.7L344.3,655l-3.2,11.6l-116.7,50.3l92.4,36.8l-2.5,9.1
			L221,725.7l54.4,126.2c4.7-0.8,9.4,0.1,13.4,2.3L278,891.8c-7.6-0.2-14.7-4.7-17.9-12.2c-3.8-8.7-0.9-18.6,6.4-24.1l-42.7-99.4
			l-5.8-39.5h-0.1v-0.1h0.1c-0.2-1.2-0.7-2.4-1.3-3.3c-0.7-1-1.7-1.8-2.9-2.2l0,0c-0.3-0.1-0.5-0.2-0.8-0.2l0,0
			c-1.5-0.3-2.9,0.2-4.1,1.1l0,0c-1,0.8-1.8,1.9-2.3,3.4l0,0c-0.1,0.4-0.3,0.9-0.3,1.3l0,0l-7.1,45.7l-37.7,94.6
			c7.4,5.2,10.6,15.1,7.1,23.9c-4.1,10.3-15.8,15.4-26.1,11.3c-10.3-4.1-15.4-15.8-11.3-26.1c3.5-8.8,12.6-13.8,21.6-12.5l-7.2,18.2
			l58.1-145.9L59.3,788l18-7.7c1.6,9-3.1,18.2-11.9,21.9c-10.2,4.4-22-0.3-26.4-10.5s0.3-22,10.5-26.4c8.7-3.8,18.6-0.9,24.1,6.4
			l126.2-54.4l-145.9-58l18.2,7.2c-5.2,7.4-15.1,10.6-23.9,7.1c-10.3-4.1-15.4-15.8-11.3-26.1s15.8-15.4,26.1-11.3
			c8.8,3.5,13.8,12.6,12.5,21.6l-18.2-7.2l145.9,58l-62.1-144.2l7.7,18c-9,1.6-18.2-3.1-21.9-11.9c-4.4-10.2,0.3-22,10.5-26.4
			s22,0.3,26.4,10.5C167.7,563.3,164.8,573.2,157.5,578.6"/>
	</g>
	<g>
		<path class="st2" class="sun__london" d="M459.9,96.8c25.2,0,45.6,20.4,45.6,45.6s-20.4,45.7-45.6,45.7s-45.6-20.4-45.6-45.6S434.7,96.8,459.9,96.8"/>
	</g>
	<g>
		<polygon class="st2" points="615.8,933.1 661.3,933.1 610.2,350.8 608.4,350.8 597.3,206.7 587,194.4 587,249.4 581.5,252 
			581.5,317.8 567.1,638.8 		"/>
	</g>
	<g>
		<polygon class="st0" points="666.9,933.1 701.1,933.1 622.3,239.5 622.3,350.8 615.8,350.8 		"/>
	</g>
	<g>
		<polygon class="st0" points="512.7,933.1 610,933.1 561.3,638.8 575.7,317.8 568,317.8 568,221.3 		"/>
	</g>
	<g>
		<rect x="496.3" y="939.5" class="st2" width="220.1" height="15.8"/>
	</g>
	<g>
		<polygon class="st0" points="721.9,932.8 814.6,932.8 814.6,931.5 814.6,925.5 721.9,925.5 		"/>
	</g>
	<g>
		<rect x="721.9" y="913" class="st2" width="92.7" height="7.3"/>
	</g>
	<g>
		<path class="st0" d="M721.9,907.7h92.7v-0.4v-5.4h-6c0,0,0,0-0.1,0H728h-6v5.8H721.9z"/>
	</g>
	<g>
		<path class="st2" d="M773.4,710.7h22.1v13.6h-22.1V710.7z M773.4,679.4h22.1V693h-22.1V679.4z M740.9,710.7H763v13.6h-22.1V710.7z
			 M773.4,742h22.1v13.6h-22.1V742z M740.9,742H763v13.6h-22.1V742z M773.4,773.2h22.1v13.6h-22.1V773.2z M740.9,773.2H763v13.6
			h-22.1V773.2z M773.4,804.5h22.1v13.6h-22.1V804.5z M740.9,804.5H763v13.6h-22.1V804.5z M773.4,835.8h22.1v13.6h-22.1V835.8z
			 M740.9,835.8H763v13.6h-22.1V835.8z M740.9,679.4H763V693h-22.1V679.4z M730.7,896.5h75.1V700.8v-26.1v-26.4h-23.1h-2.8
			c-0.1,0-0.3,0-0.4,0h-11.3H757c-0.1,0-0.3,0-0.4,0h-2.8h-11.5h-11.7v248.2H730.7z"/>
	</g>
	<g>
		<polygon class="st2" points="784.9,643 804.5,643 798.8,629.6 794.1,618.5 789.5,629.6 784.5,641.3 		"/>
	</g>
	<g>
		<polygon class="st0" points="782.7,640.7 774.4,612.5 768.2,591.4 762.1,612.5 753.8,640.7 755.1,643 781.3,643 		"/>
	</g>
	<g>
		<polygon class="st2" points="752,641.3 747,629.6 742.4,618.5 737.7,629.6 732,643 751.6,643 		"/>
	</g>
	<g>
		<rect x="811.3" y="677.3" class="st2" width="64.7" height="20.9"/>
	</g>
	<g>
		<rect x="881.5" y="677.3" class="st2" width="15.5" height="20.9"/>
	</g>
	<g>
		<rect x="902.5" y="677.3" class="st0" width="64.7" height="20.9"/>
	</g>
	<g>
		<path class="st2" d="M876,883.7h-64.7v12.9h6h0.1c1.5,0,2.7,1.2,2.7,2.6v5.4H876V883.7z"/>
	</g>
	<g>
		<rect x="881.5" y="883.7" class="st2" width="15.5" height="20.9"/>
	</g>
	<g>
		<rect x="902.5" y="883.7" class="st0" width="64.7" height="20.9"/>
	</g>
	<g>
		<polygon class="st2" points="878.8,909.8 820.1,909.8 820.1,923 820.1,928.4 936.7,909.8 899.7,909.8 		"/>
	</g>
	<g>
		<polygon class="st2" points="1217.8,932.8 1125.1,932.8 1125.1,931.5 1125.1,925.5 1217.8,925.5 		"/>
	</g>
	<g>
		<rect x="1125.1" y="913" class="st0" width="92.7" height="7.3"/>
	</g>
	<g>
		<path class="st2" d="M1217.8,907.7h-92.7v-0.4v-5.4h6c0,0,0,0,0.1,0h80.5h6L1217.8,907.7L1217.8,907.7z"/>
	</g>
	<g>
		<path class="st0" d="M1166.3,710.7h-22.1v13.6h22.1V710.7z M1166.3,679.4h-22.1V693h22.1V679.4z M1198.8,710.7h-22.1v13.6h22.1
			V710.7z M1166.3,742h-22.1v13.6h22.1V742z M1198.8,742h-22.1v13.6h22.1V742z M1166.3,773.2h-22.1v13.6h22.1V773.2z M1198.8,773.2
			h-22.1v13.6h22.1V773.2z M1166.3,804.5h-22.1v13.6h22.1V804.5z M1198.8,804.5h-22.1v13.6h22.1V804.5z M1166.3,835.8h-22.1v13.6
			h22.1V835.8z M1198.8,835.8h-22.1v13.6h22.1V835.8z M1198.8,679.4h-22.1V693h22.1V679.4z M1209,896.5h-75.1V700.8v-26.1v-26.4
			h23.1h2.8c0.1,0,0.3,0,0.4,0h11.3h11.2c0.1,0,0.3,0,0.4,0h2.8h11.5h11.7v248.2H1209z"/>
	</g>
	<g>
		<polygon class="st2" points="1154.8,643 1135.2,643 1140.9,629.6 1145.6,618.5 1150.2,629.6 1155.2,641.3 		"/>
	</g>
	<g>
		<polygon class="st2" points="1157,640.7 1165.3,612.5 1171.5,591.4 1177.6,612.5 1185.9,640.7 1184.6,643 1158.4,643 		"/>
	</g>
	<g>
		<polygon class="st2" points="1187.7,641.3 1192.7,629.6 1197.3,618.5 1202,629.6 1207.7,643 1188.1,643 		"/>
	</g>
	<g>
		<rect x="1063.7" y="677.3" class="st0" width="64.7" height="20.9"/>
	</g>
	<g>
		<rect x="1042.7" y="677.3" class="st2" width="15.5" height="20.9"/>
	</g>
	<g>
		<rect x="972.5" y="677.3" class="st2" width="64.7" height="20.9"/>
	</g>
	<g>
		<path class="st0" d="M1063.7,883.7h64.7v12.9h-6h-0.1c-1.5,0-2.7,1.2-2.7,2.6v5.4h-55.9V883.7z"/>
	</g>
	<g>
		<rect x="1042.7" y="883.7" class="st2" width="15.5" height="20.9"/>
	</g>
	<g>
		<rect x="972.5" y="883.7" class="st2" width="64.7" height="20.9"/>
	</g>
	<g>
		<polygon class="st0" points="1060.9,909.8 1119.6,909.8 1119.6,923 1119.6,928.4 1003,909.8 1040,909.8 		"/>
	</g>
	<g>
		<rect x="721.9" y="939.5" class="st2" width="92.7" height="15.8"/>
	</g>
	<g>
		<rect x="1125.1" y="939.5" class="st0" width="92.7" height="15.8"/>
	</g>
	<g>
		<path class="st0" d="M1304.1,519.1v16.6V551l24.2-21.3L1304.1,519.1z M1330.5,534.8l-27.3,24h-0.1l-33.1,29.1v347.2h60.5V534.8z"
			/>
	</g>
	<g>
		<path class="st2" d="M1235.7,506.8v428.3h29.1V586.8c0-0.7,0.3-1.5,0.9-2l35.2-31.2l0.6-41.2v-63.5l-12.3,10.8v-20.8l-1.7,1.6
			l0.2-26l-15.5-15.3l-0.1,55.1l-24,21.3v20.5L1235.7,506.8z"/>
	</g>
	<g>
		<polygon class="st2" points="1304.1,551 1328.3,529.7 1304.1,519.1 1304.1,535.7 		"/>
	</g>
	<g>
		<rect x="1225.1" y="939.5" class="st2" width="116.1" height="15.8"/>
	</g>
	<g>
		<path class="st5" d="M1245.4,903.8h9.3v5.1h-9.3V903.8z M1280.7,903.8h37.8v5.1h-37.8V903.8z M1280.7,890.8h37.8v5.1h-37.8V890.8z
			 M1280.7,877.9h37.8v5.1h-37.8V877.9z M1280.7,864.9h37.8v5.1h-37.8V864.9z M1280.7,851.9h37.8v5.1h-37.8V851.9z M1280.7,839h37.8
			v5.1h-37.8V839z M1280.7,826h37.8v5.1h-37.8V826z M1280.7,813h37.8v5.1h-37.8V813z M1280.7,800h37.8v5.1h-37.8V800z M1280.7,787.1
			h37.8v5.1h-37.8V787.1z M1280.7,774.1h37.8v5.1h-37.8V774.1z M1280.7,761.1h37.8v5.1h-37.8V761.1z M1280.7,748.2h37.8v5.1h-37.8
			V748.2z M1280.7,735.2h37.8v5.1h-37.8V735.2z M1280.7,722.2h37.8v5.1h-37.8V722.2z M1280.7,709.2h37.8v5.1h-37.8V709.2z
			 M1280.7,696.3h37.8v5.1h-37.8V696.3z M1280.7,683.3h37.8v5.1h-37.8V683.3z M1280.7,670.3h37.8v5.1h-37.8V670.3z M1280.7,657.3
			h37.8v5.1h-37.8V657.3z M1280.7,644.4h37.8v5.1h-37.8V644.4z M1280.7,631.4h37.8v5.1h-37.8V631.4z M1280.7,618.4h37.8v5.1h-37.8
			V618.4z M1280.7,605.5h37.8v5.1h-37.8V605.5z M1245.4,890.8h9.3v5.1h-9.3V890.8z M1245.4,877.9h9.3v5.1h-9.3V877.9z M1245.4,864.9
			h9.3v5.1h-9.3V864.9z M1245.4,851.9h9.3v5.1h-9.3V851.9z M1245.4,839h9.3v5.1h-9.3V839z M1245.4,826h9.3v5.1h-9.3V826z
			 M1245.4,813h9.3v5.1h-9.3V813z M1245.4,800h9.3v5.1h-9.3V800z M1245.4,787.1h9.3v5.1h-9.3V787.1z M1245.4,774.1h9.3v5.1h-9.3
			V774.1z M1245.4,761.1h9.3v5.1h-9.3V761.1z M1245.4,748.2h9.3v5.1h-9.3V748.2z M1245.4,735.2h9.3v5.1h-9.3V735.2z M1245.4,722.2
			h9.3v5.1h-9.3V722.2z M1245.4,709.2h9.3v5.1h-9.3V709.2z M1245.4,696.3h9.3v5.1h-9.3V696.3z M1245.4,683.3h9.3v5.1h-9.3V683.3z
			 M1245.4,670.3h9.3v5.1h-9.3V670.3z M1245.4,657.3h9.3v5.1h-9.3V657.3z M1245.4,644.4h9.3v5.1h-9.3V644.4z M1245.4,631.4h9.3v5.1
			h-9.3V631.4z M1245.4,618.4h9.3v5.1h-9.3V618.4z M1245.4,605.5h9.3v5.1h-9.3V605.5z M1245.4,592.5h9.3v5.1h-9.3V592.5z
			 M1245.4,525.2h46.7v5.1h-46.7V525.2z M1245.4,538.2h46.7v5.1h-46.7V538.2z M1245.4,551.2h46.7l-6,5.1h-40.7V551.2z M1245.4,564.2
			h31.4l-6,5.1h-25.3L1245.4,564.2L1245.4,564.2z M1245.4,577.1h16l-6,5.1h-10V577.1z M1245.4,512.3h46.7v5.1h-46.7V512.3z
			 M1280.7,592.5h37.8v5.1h-37.8V592.5z"/>
	</g>
	<g>
		<rect x="447.1" y="522.2" class="st0" width="26.9" height="413.5"/>
	</g>
	<g>
		<polygon class="st2" points="415.7,439.9 442.7,472.3 442.7,935.8 415.7,935.8 		"/>
	</g>
	<g>
		<polygon class="st0" points="410.2,472.3 410.2,935.8 274.7,935.8 		"/>
	</g>
	<g>
		<rect x="265.2" y="939.5" class="st2" width="217.8" height="15.8"/>
	</g>
	<g>
		<polygon class="st5" points="385.2,592.5 400.3,592.5 400.3,597.6 383.8,597.6 		"/>
	</g>
	<g>
		<polygon class="st5" points="381.6,605.5 400.3,605.5 400.3,610.6 380.2,610.6 		"/>
	</g>
	<g>
		<polygon class="st5" points="378,618.4 400.3,618.4 400.3,623.5 376.5,623.5 		"/>
	</g>
	<g>
		<polygon class="st5" points="374.3,631.4 400.3,631.4 400.3,636.5 372.9,636.5 		"/>
	</g>
	<g>
		<polygon class="st5" points="370.7,644.4 400.3,644.4 400.3,649.5 369.3,649.5 		"/>
	</g>
	<g>
		<polygon class="st5" points="367.1,657.3 400.3,657.3 400.3,662.5 365.6,662.5 		"/>
	</g>
	<g>
		<polygon class="st5" points="363.4,670.3 400.3,670.3 400.3,675.4 362,675.4 		"/>
	</g>
	<g>
		<polygon class="st5" points="359.8,683.3 400.3,683.3 400.3,688.4 358.4,688.4 		"/>
	</g>
	<g>
		<polygon class="st5" points="356.2,696.3 400.3,696.3 400.3,701.4 354.7,701.4 		"/>
	</g>
	<g>
		<polygon class="st5" points="352.5,709.2 400.3,709.2 400.3,714.3 351.1,714.3 		"/>
	</g>
	<g>
		<polygon class="st5" points="348.9,722.2 400.3,722.2 400.3,727.3 347.5,727.3 		"/>
	</g>
	<g>
		<polygon class="st5" points="345.3,735.2 400.3,735.2 400.3,740.3 343.9,740.3 		"/>
	</g>
	<g>
		<polygon class="st5" points="341.7,748.2 400.3,748.2 400.3,753.3 340.2,753.3 		"/>
	</g>
	<g>
		<polygon class="st5" points="338,761.1 400.3,761.1 400.3,766.2 336.6,766.2 		"/>
	</g>
	<g>
		<polygon class="st5" points="334.4,774.1 400.3,774.1 400.3,779.2 333,779.2 		"/>
	</g>
	<g>
		<polygon class="st5" points="330.8,787.1 400.3,787.1 400.3,792.2 329.3,792.2 		"/>
	</g>
	<g>
		<polygon class="st5" points="327.1,800 400.3,800 400.3,805.1 325.7,805.1 		"/>
	</g>
	<g>
		<polygon class="st5" points="323.5,813 400.3,813 400.3,818.1 322.1,818.1 		"/>
	</g>
	<g>
		<polygon class="st5" points="319.9,826 400.3,826 400.3,831.1 318.4,831.1 		"/>
	</g>
	<g>
		<polygon class="st5" points="316.2,839 400.3,839 400.3,844.1 314.8,844.1 		"/>
	</g>
	<g>
		<polygon class="st5" points="312.6,851.9 400.3,851.9 400.3,857 311.2,857 		"/>
	</g>
	<g>
		<polygon class="st5" points="309,864.9 400.3,864.9 400.3,870 307.6,870 		"/>
	</g>
	<g>
		<polygon class="st5" points="305.3,877.9 400.3,877.9 400.3,883 303.9,883 		"/>
	</g>
	<g>
		<polygon class="st5" points="301.7,890.8 400.3,890.8 400.3,896 300.3,896 		"/>
	</g>
	<g>
		<polygon class="st5" points="298.1,903.8 400.3,903.8 400.3,908.9 296.7,908.9 		"/>
	</g>
	<g>
		<path class="st1" d="M287.5,268.2H173.8c-1.5,0-2.8-1.3-2.8-2.8s1.3-2.8,2.8-2.8h113.8c1.5,0,2.8,1.3,2.8,2.8
			S289.1,268.2,287.5,268.2z"/>
	</g>
	<g>
		<path class="st1" d="M1075.9,421.3h-62.1c-1.5,0-2.8-1.3-2.8-2.8s1.3-2.8,2.8-2.8h62.1c1.5,0,2.8,1.3,2.8,2.8
			S1077.5,421.3,1075.9,421.3z"/>
	</g>
	<g>
		<path class="st1" d="M1210.7,421.3h-95.4c-1.5,0-2.8-1.3-2.8-2.8s1.3-2.8,2.8-2.8h95.4c1.5,0,2.8,1.3,2.8,2.8
			S1212.2,421.3,1210.7,421.3z"/>
	</g>
	<g>
		<path class="st1" d="M215.3,1020.6H120c-1.5,0-2.8-1.3-2.8-2.8s1.3-2.8,2.8-2.8h95.4c1.5,0,2.8,1.3,2.8,2.8
			C218.1,1019.3,216.9,1020.6,215.3,1020.6z"/>
	</g>
	<g>
		<rect x="166.6" y="939.5" class="st2" width="88.4" height="15.8"/>
	</g>
	<g>
		<path class="st1" d="M819.8,992.6h-565c-1.5,0-2.8-1.3-2.8-2.8s1.3-2.8,2.8-2.8h565c1.5,0,2.8,1.3,2.8,2.8
			S821.3,992.6,819.8,992.6z"/>
	</g>
	<g>
		<path class="st1" d="M1187.6,1055.3c-0.1,0-0.2,0-0.3,0c-10-1-98.2-10.7-106.3-35.2c-1.9-5.7,0.3-11.6,6.7-17.4
			c4.9-4.5,6.7-8.6,5.5-12.8c-5.5-18.9-67.9-34.3-91.5-38.6c-1.6-0.3-2.6-1.8-2.3-3.4s1.7-2.7,3.4-2.3c9.1,1.7,88.7,16.9,96.1,42.8
			c1.8,6.3-0.6,12.6-7.2,18.7c-6.7,6.2-5.5,10-5.1,11.2c5.9,17.7,75.2,28.5,101.4,31.2c1.6,0.2,2.8,1.6,2.6,3.2
			C1190.3,1054.2,1189.1,1055.3,1187.6,1055.3z"/>
	</g>
	<g>
		<path class="st1" d="M963.3,1056.4c-0.3,0-0.5,0-0.8-0.1c-10.3-2.9-61.6-18.5-61.6-36.8c0-7.9,8.6-14.2,26.4-19.3
			c16.4-4.7,25.3-10.6,25.6-17c0.7-12.9-29.9-28.3-41.7-33.2c-1.5-0.6-2.2-2.3-1.6-3.8c0.6-1.5,2.3-2.2,3.8-1.6
			c4.8,1.9,46.4,19.6,45.3,38.9c-0.5,9.4-10.3,16.7-29.9,22.3c-19.3,5.5-22.2,10.9-22.2,13.7c0,10.8,35.2,24.9,57.3,31.2
			c1.5,0.4,2.4,2.1,2,3.6C965.8,1055.6,964.6,1056.4,963.3,1056.4z"/>
	</g>
	<g>
		<path class="st4" d="M274.9,440.6c-6,0-12.2-3-18.3-9l0,0c-5.2-5.1-10.2-7.5-14.7-7.4c-4.2,0.1-8.4,2.6-12.6,7.2l0,0
			c-5.3,5.9-10.9,9-16.8,9.2c-6.2,0.1-12.6-2.8-19-9l0,0c-5.2-5-10.2-7.5-14.7-7.4c-4.2,0.1-8.4,2.6-12.6,7.2
			c-1.1,1.2-2.9,1.3-4.1,0.2c-1.2-1.1-1.3-2.9-0.2-4.1c5.3-5.9,10.9-9,16.8-9.2c6.3-0.1,12.6,2.8,19,9l0,0c5.2,5,10.1,7.5,14.7,7.4
			c4.2-0.1,8.5-2.6,12.6-7.2l0,0c5.3-5.9,10.9-9,16.7-9.2c6.4-0.1,12.6,2.8,19,9l0,0c5.2,5.1,10.4,7.7,14.7,7.4
			c4.2-0.1,8.4-2.6,12.6-7.2l0,0c5.3-5.9,10.9-9,16.8-9.2c6.3-0.1,12.6,2.8,19,9c1.2,1.1,1.2,3,0.1,4.1c-1.1,1.2-3,1.2-4.1,0.1
			c-5.2-5.1-10.1-7.6-14.7-7.4c-4.2,0.1-8.5,2.6-12.6,7.2l0,0c-5.3,5.9-10.9,9-16.7,9.2C275.3,440.6,275.1,440.6,274.9,440.6z"/>
	</g>
	<g>
		<path class="st4" d="M1294.4,1005.7c-6,0-12.2-3-18.3-9c-5.2-5-10.4-7.4-14.7-7.4c-4.2,0.1-8.4,2.6-12.6,7.2l0,0
			c-5.3,5.9-10.9,9-16.7,9.2c-5.8,0.2-12.6-2.8-19-9l0,0c-5.2-5-10.4-7.5-14.7-7.4c-4.2,0.1-8.5,2.6-12.6,7.2
			c-1.1,1.2-2.9,1.3-4.1,0.2c-1.2-1.1-1.3-2.9-0.2-4.1c5.3-5.9,10.9-9,16.8-9.2c6.3-0.3,12.6,2.8,18.9,9l0,0
			c5.2,5,10.1,7.4,14.7,7.4c4.2-0.1,8.5-2.6,12.6-7.2l0,0c5.3-5.9,10.9-9,16.8-9.2c6.2-0.4,12.6,2.8,19,9c5.2,5,10.1,7.4,14.7,7.4
			c4.2-0.1,8.5-2.6,12.6-7.2l0,0c5.3-5.9,10.9-9,16.8-9.2c6.3-0.4,12.6,2.8,19,9c1.2,1.1,1.2,3,0,4.1c-1.1,1.1-3,1.2-4.1,0
			c-5.2-5-10.4-7.4-14.7-7.4c-4.2,0.1-8.4,2.6-12.6,7.2l0,0c-5.3,5.9-10.9,9-16.7,9.2C1294.8,1005.7,1294.6,1005.7,1294.4,1005.7z"
			/>
	</g>
	<g>
		<path class="st4" d="M845.3,113.8h-95.4c-1.5,0-2.8-1.3-2.8-2.8s1.3-2.8,2.8-2.8h95.4c1.5,0,2.8,1.3,2.8,2.8
			S846.8,113.8,845.3,113.8z"/>
	</g>
	<g>
		<path class="st4" d="M559.2,1070.4c-6,0-12.2-3-18.3-9c-5.2-5-10.2-7.5-14.7-7.4c-4.2,0.1-8.4,2.6-12.6,7.2l0,0
			c-5.3,5.9-10.9,9-16.8,9.2c-6.3,0.4-12.6-2.8-18.9-9c-5.2-5-10.2-7.5-14.7-7.4c-4.2,0.1-8.5,2.6-12.6,7.2
			c-1.1,1.2-2.9,1.3-4.1,0.2c-1.2-1.1-1.3-2.9-0.2-4.1c5.3-5.9,10.9-9,16.8-9.2c6.1,0,12.6,2.8,19,9c5.2,5,10,7.3,14.7,7.4
			c4.2-0.1,8.5-2.6,12.6-7.2l0,0c5.2-5.9,10.9-9,16.7-9.2c6.2,0,12.6,2.8,19,9c5.2,5,10,7.3,14.7,7.4c4.2-0.1,8.5-2.6,12.6-7.2l0,0
			c5.2-5.9,10.9-9,16.7-9.2c6.2,0,12.6,2.8,19,9c1.2,1.1,1.2,3,0.1,4.1c-1.1,1.2-3,1.2-4.1,0c-5.2-5-10.2-7.5-14.7-7.4
			c-4.2,0.1-8.4,2.6-12.6,7.2l0,0c-5.3,5.9-10.9,9-16.8,9.2C559.6,1070.4,559.4,1070.4,559.2,1070.4z"/>
	</g>
	<g>
		<path class="st4" d="M385.3,147.9c-2.6,0-5.2-1.1-7.8-3.2l0,0c-3.3-2.8-5.4-2.1-7.5-0.1c-1.1,1.1-3,1.1-4.1-0.1
			c-1.1-1.2-1.1-3,0.1-4.1c4.6-4.4,10-4.5,15.2-0.1l0,0c3.4,2.8,5.4,2.1,7.5,0.1c1.2-1.1,3-1.1,4.1,0.1c1.1,1.2,1.1,3-0.1,4.1
			C390.5,146.8,387.9,147.9,385.3,147.9z"/>
	</g>
	<g>
		<path class="st4" d="M397.5,111.2c-4.6,0-8.1-2.7-10-7.9l0,0c-1.5-4.1-3.7-4.5-6.4-3.8c-1.6,0.4-3.2-0.6-3.5-2.1
			c-0.4-1.6,0.6-3.1,2.1-3.5c6.2-1.5,10.9,1.1,13.3,7.5l0,0c1.5,4.1,3.7,4.5,6.4,3.9c1.6-0.4,3.1,0.6,3.5,2.1
			c0.4,1.6-0.6,3.1-2.1,3.5C399.6,111,398.5,111.2,397.5,111.2z"/>
	</g>
	<g>
		<path class="st4" d="M425.3,85.6c-0.3,0-0.5,0-0.8-0.1c-6.1-1.8-8.9-6.5-7.7-13.1l0,0c0.8-4.3-0.9-5.8-3.6-6.5
			c-1.5-0.5-2.4-2.1-2-3.6s2.1-2.4,3.6-2c6.2,1.8,8.9,6.4,7.7,13.1l0,0c-0.8,4.3,0.9,5.7,3.6,6.5c1.5,0.5,2.4,2.1,2,3.6
			C427.8,84.7,426.6,85.6,425.3,85.6z"/>
	</g>
	<g>
		<path class="st4" d="M459.9,76.3c-0.8,0-1.5-0.3-2.1-0.9c-4.4-4.6-4.5-10-0.1-15.2l0,0c2.8-3.4,2.1-5.4,0.1-7.5
			c-1.1-1.2-1.1-3,0.1-4.1s3-1.1,4.1,0.1c4.4,4.6,4.5,10,0.1,15.2l0,0c-2.8,3.4-2.1,5.4-0.1,7.5c1.1,1.2,1.1,3-0.1,4.1
			C461.3,76.1,460.6,76.3,459.9,76.3z"/>
	</g>
	<g>
		<path class="st4" d="M494.4,85.6c-1.3,0-2.5-0.9-2.8-2.2c-1.5-6.2,1.1-10.9,7.5-13.3l0,0c4.1-1.5,4.5-3.7,3.9-6.4
			c-0.4-1.6,0.6-3.1,2.1-3.5c1.6-0.4,3.1,0.6,3.5,2.1c1.5,6.2-1.1,10.9-7.5,13.3l0,0c-4.1,1.5-4.5,3.7-3.9,6.4
			c0.4,1.6-0.6,3.1-2.1,3.5C494.8,85.5,494.6,85.6,494.4,85.6z"/>
	</g>
	<g>
		<path class="st4" d="M519.7,110.8c-0.3,0-0.5,0-0.8-0.1c-1.5-0.5-2.4-2.1-2-3.6c1.8-6.2,6.5-8.9,13.1-7.7l0,0
			c4.3,0.8,5.7-0.9,6.5-3.6c0.4-1.5,2.1-2.5,3.6-2s2.4,2.1,2,3.6c-1.8,6.2-6.4,8.9-13.1,7.7l0,0c-4.3-0.7-5.8,0.9-6.5,3.6
			C522.1,110,520.9,110.8,519.7,110.8z"/>
	</g>
	<g>
		<path class="st4" d="M546.2,147.9c-2.6,0-5.2-1.1-7.8-3.2l0,0c-3.4-2.8-5.4-2.1-7.5-0.1c-1.2,1.1-3,1.1-4.1-0.1
			c-1.1-1.2-1.1-3,0.1-4.1c4.6-4.5,10-4.5,15.2-0.1l0,0c3.4,2.8,5.4,2.1,7.5,0.1c1.2-1.1,3-1.1,4.1,0.1c1.1,1.2,1.1,3-0.1,4.1
			C551.3,146.8,548.8,147.9,546.2,147.9z"/>
	</g>
	<g>
		<path class="st4" d="M536.8,191.6c-4.6,0-8.1-2.7-10-7.9l0,0c-1.5-4.1-3.7-4.5-6.4-3.9c-1.6,0.4-3.1-0.6-3.5-2.1
			c-0.4-1.6,0.6-3.1,2.1-3.5c6.2-1.5,10.9,1.1,13.3,7.5l0,0c1.5,4.1,3.7,4.5,6.4,3.9c1.6-0.4,3.1,0.6,3.5,2.1
			c0.4,1.6-0.6,3.1-2.1,3.5C538.9,191.5,537.8,191.6,536.8,191.6z"/>
	</g>
	<g>
		<path class="st4" d="M505.8,224.9c-0.3,0-0.5,0-0.8-0.1c-6.2-1.8-8.9-6.4-7.7-13.1l0,0c0.8-4.3-0.9-5.7-3.6-6.5
			c-1.5-0.5-2.4-2.1-2-3.6s2.1-2.5,3.6-2c6.2,1.8,8.9,6.4,7.7,13.1l0,0c-0.8,4.3,0.9,5.7,3.6,6.5c1.5,0.5,2.4,2.1,2,3.6
			C508.2,224,507,224.9,505.8,224.9z"/>
	</g>
	<g>
		<path class="st4" d="M459.9,237.2c-0.8,0-1.5-0.3-2.1-0.9c-4.4-4.6-4.5-10-0.1-15.2l0,0c2.8-3.4,2.1-5.4,0.1-7.5
			c-1.1-1.2-1.1-3,0.1-4.1s3-1.1,4.1,0.1c4.4,4.6,4.5,10,0.1,15.2l0,0c-2.8,3.4-2.1,5.4-0.1,7.5c1.1,1.2,1.1,3-0.1,4.1
			C461.3,236.9,460.6,237.2,459.9,237.2z"/>
	</g>
	<g>
		<path class="st4" d="M414,224.9c-1.3,0-2.5-0.9-2.8-2.2c-1.5-6.2,1.1-10.9,7.5-13.3c4.1-1.5,4.5-3.7,3.9-6.4
			c-0.4-1.6,0.6-3.1,2.1-3.5c1.6-0.4,3.1,0.6,3.5,2.1c1.5,6.2-1.1,10.9-7.5,13.3c-4.1,1.5-4.5,3.7-3.9,6.4c0.4,1.6-0.6,3.1-2.1,3.5
			C414.4,224.8,414.2,224.9,414,224.9z"/>
	</g>
	<g>
		<path class="st4" d="M380.4,191.3c-0.3,0-0.5,0-0.8-0.1c-1.5-0.5-2.4-2.1-2-3.6c1.8-6.2,6.5-8.9,13.1-7.7l0,0
			c4.3,0.7,5.8-0.9,6.5-3.6c0.5-1.5,2-2.5,3.6-2c1.5,0.5,2.4,2.1,2,3.6c-1.8,6.1-6.4,8.9-13.1,7.7l0,0c-4.3-0.7-5.7,0.9-6.5,3.6
			C382.8,190.4,381.6,191.3,380.4,191.3z"/>
	</g>
</g>
</svg>
