<?xml version="1.0" encoding="UTF-8"?>
<svg id="Layer_1" width="50px" height="50px"
    xmlns="http://www.w3.org/2000/svg" viewBox="0 0 500 500">
    <defs>
        <style>.cls-1{fill:#3a9ec1;}.cls-1,.cls-2,.cls-3{fill-rule:evenodd;stroke-width:0px;}.cls-2{fill:#6f50ef;}</style>
    </defs>
    <path class="cls-1" d="m285.33,323.42c2.11-15.62-10.59-36.87-17.53-48.3-3.86-6.36-8.11-12.8-12.98-19.93-14.06-20.52-31.51-40.49-49.16-58.07-7.98-7.94-18.43-18.58-26.61-26.32-13.11-12.4-25.24-20.05-39.46-31.19-17.32-13.55-58.48-30.13-80.64-22.76-5,1.66-14.32,3.81-18.04,7.81-9.23,9.94-.25,23.13,7.87,29.82,10.76,8.86,15.79,16.16,25.72,24.95,5.52,4.89,9.51,11.05,13.89,16.87,7.76,10.3,11.72,20.81,12.81,33.46,1.48,17.43-5.55,37.4,12.54,48.67,29.38,18.3,71.82,13.65,105.11,25.72,12.45,4.51,23.91,12.25,34.69,19.63,6.08,4.17,12.65,10.37,20.43,11.01,5.39.45,10.47-4.68,11.37-11.36"/>
    <path class="cls-1" d="m275.28,267.34c5.93,16.51,26.67,49.69,27.83,47.56,4.26-7.81,9.56-21.26,12.77-26.97,6.39-11.36,31.4-31.23,36.98-36.18,33.96-30.15,86.4-38.47,108.36-82.42,12.71-25.43,11.51-60.3-18.58-72.29-14.1-5.63-29.11,12.22-40.6,17.96-6.18,3.08-18.53,8.94-25.21,10.37-31.03,6.63-65.53-18.05-91.57-.71-41.98,27.94-23.59,104.85-9.98,142.69"/>
    <path class="cls-2" d="m280.38,341.88c0-5.18-16.06,2.1-21.38,2.99-8.84,1.47-23.77,1.7-32.83,1.7-10.78,0-19.12-1.14-29.77-1.14-6.99,0-17,1.24-23.48,4.26-10.66,4.97-15.63,17.04-7.78,26.98,5.22,6.62,11.41,12.07,24.22,14.2,19.21,3.19,33.84-1.03,51.94-7.81,7.38-2.76,15.89-9,22.04-14.2,4.52-3.82,17.06-19.17,17.05-26.98"/>
    <path class="cls-2" d="m345.14,334.8c5.49-.9,13.27-9.01,14.93-12.8,4.96-11.36,4.23-25.56-12.86-31.24-14.36-4.77-23.18,1.45-29.87,13.49-7.09,12.78-5.66,22.01,6.45,27.68,4.1,1.93,12.82,4.26,21.36,2.87"/>
    <path class="cls-3" d="m265.34,267.92c-6.87-8.62-14.62-17.56-22.58-26.78-34-39.37-79.08-79.45-117.86-99.34-13.84-7.1-26.92-11.65-38.44-12.8-10.54-1.05-19.84.71-27.41,5.74-1.67,1.11-2.74,2.82-3.14,5.12-.43,2.42-.01,5.74,1.1,9.63,3.51,12.26,14.08,31.33,17.14,44.07,6.14,25.6,2.37,48.21,1.73,66.25-.43,11.94.54,22,5.77,29.86,5.87,8.85,17.21,15.19,38.86,17.81,54.12,6.55,99.07,30.09,132.26,34.51-20.91,3.02-46.83,3.09-64.18,9.07-10.79,3.71-18.39,9.69-20.51,19.3-3.69,16.78,8.76,25.43,26.29,28.37,21.22,3.55,49.66-1.25,60.22-7.17,4.98-2.79,10.67-6.58,16.2-10.96,4.66-3.68,9.2-7.78,13.14-12.04,4.9,3.37,10.93,6.38,16.14,9.67,6.49,4.11,10.2,8.69,12.47,13.46,3.39,7.17,3.64,14.76,5.08,21.82,1.52,7.44,4.27,14.35,12.56,19.83.73.48,1.72.28,2.2-.44.48-.73.28-1.72-.45-2.2-9-6.02-10.57-13.95-11.81-22.27-.89-6.02-1.62-12.25-4.37-18.23-2.45-5.33-6.5-10.48-13.66-15.12-4.99-3.23-10.78-6.18-15.5-9.45,3.36-3.63,5.96-5.97,7.12-8.31,1.05-2.11,1.24-4.25.1-7.03-1.89-4.64-8.16-7.41-13.13-6.38-2.24.46-4.22,1.64-5.5,3.62-1.3,2.01-1.93,4.94-1.05,8.98.76,3.49,2.96,6.51,6.08,9.22l.06.06c-3.73,3.94-8.02,7.72-12.39,11.12-5.35,4.16-10.84,7.77-15.65,10.41-10.03,5.51-36.95,9.67-56.96,6.16-13.95-2.44-24.74-8.53-21.7-21.88,2.06-9.12,10.64-13.64,21.79-16.5,21.9-5.62,53.61-4.34,73.85-10.22,4.7-1.37,8.8-3.13,12.13-5.39,2.91-1.19,5.67-2.73,8.27-4.66,4.93-3.65,9.48-7.73,13.79-12.15,2.17,1.91,4.51,3.8,6.94,5.62-.25,2.32-.36,4.73-.3,7.24.23,10.83,3.52,23.44,12.11,37.19,5.75,9.19,12.75,16.8,20.3,23.23,12.53,10.65,26.6,18.07,39.05,24.14.87.42,1.91.07,2.34-.8s.06-1.91-.8-2.34c-10.26-5.09-21.66-11.1-32.31-19.18-9.44-7.16-18.29-15.94-25.2-27.15-8.03-13.03-11.13-24.94-11.29-35.17-.02-1.47.02-2.92.11-4.32,5.6,3.78,11.61,7.03,17.47,9.06,13,4.49,25.26,3.14,31.82-10.05,6.22-12.54,1.38-24.25-7.47-30.95-9.05-6.86-22.29-8.38-31.92-.2-4.94,4.19-10.56,12.44-12.99,23.66-1.53-1.2-2.99-2.44-4.39-3.67l.78-.86c19.15-21.32,34.16-49.43,59.55-74.8,14.66-14.65,59.79-61.55,77.6-100.92,10.06-22.23,11.21-42.17-4.2-53.67-10.11-7.55-23.78-9.14-39.95-6.86-16.67,2.36-36.11,8.82-56.94,16.41-10.61,3.87-19.72,6.04-27.65,7.1-18.06,2.4-29.96-1.04-39.47-3.26-10.74-2.5-18.77-3.45-28.39,4.57-23.27,19.43-24.94,50.84-16.08,84.45,6.82,25.88,19.82,53.06,33.21,76.74Zm17.64,94.93c2.55-2.69,4.66-4.59,6.01-6.35,1.1-1.43,1.5-2.72.76-4.58-1.16-2.9-5.14-4.47-8.25-3.86-2.64.52-4.34,2.91-3.37,7.59.56,2.69,2.33,4.96,4.71,7.07l.15.12Zm32.05-37.32c5.81,4.18,12.19,7.83,18.41,10.01,10.5,3.68,20.57,3.12,25.91-7.51,5.11-10.16,1.18-19.67-5.97-25.15-7.43-5.69-18.31-7.17-26.28-.48-4.74,3.98-10.08,12.09-12.06,23.14Zm-35.68,7.77c2.64-2.17,4.45-4.86,5.08-8.31,1.93-10.6-2.56-22.04-10.34-34.36-8.92-14.14-22.21-29.29-36.12-45.36-28.13-32.52-63.91-65.55-97.27-86.91-16.58-10.61-32.53-18.34-46.62-21.57-12.31-2.82-23.12-2.22-31.44,3.32-.25.17-.3.49-.35.84-.13.74-.09,1.6.04,2.58.34,2.64,1.36,5.91,2.72,9.54,4.53,12.1,12.75,27.89,15.42,38.96,6.31,26.27,2.57,49.48,1.91,68-.38,10.39.14,19.19,4.68,26.03,5.13,7.73,15.31,12.66,34.22,14.95,54.92,6.66,100.39,30.82,133.71,34.73,9.11,1.07,17.26.59,24.36-2.45Zm9.01-27.99c2.47,7.13,3.34,13.99,2.2,20.52,2.82-2.37,5.51-4.9,8.11-7.57-3.23-3.23-5.88-6.35-7.7-9.03-.85-1.27-1.73-2.58-2.62-3.93Zm13.81,9.25l.67-.74c19.23-21.39,34.32-49.58,59.81-75.03,14.41-14.38,58.84-60.34,76.36-98.99,4.01-8.85,6.6-17.3,6.96-24.85.4-8.58-2.18-15.93-9.14-21.14-8.92-6.67-21.03-7.71-35.28-5.71-16.31,2.29-35.32,8.63-55.7,16.03-15.88,5.77-28.56,7.9-39,8.19-15.8.45-26.45-3.3-35.33-5.08-7-1.4-12.76-1.45-19.45,4.1-21.63,17.94-22.47,47.19-14.36,78.38,11.06,42.6,39.06,88.83,57.6,116.64,1.63,2.44,4,5.26,6.89,8.2"/>
</svg>