<?xml version="1.0" encoding="utf-8"?>
<!-- Generator: Adobe Illustrator 28.0.0, SVG Export Plug-In . SVG Version: 6.00 Build 0)  -->
<svg version="1.1" id="Layer_1" xmlns="http://www.w3.org/2000/svg" xmlns:xlink="http://www.w3.org/1999/xlink" x="0px" y="0px"
	 viewBox="0 0 5000 1500" style="enable-background:new 0 0 5000 1500;" xml:space="preserve">
<style type="text/css">
	.st0{fill-rule:evenodd;clip-rule:evenodd;fill:#FF94B2;}
	.st1{fill-rule:evenodd;clip-rule:evenodd;fill:#854B49;}
	.st2{fill-rule:evenodd;clip-rule:evenodd;}
	.st3{fill-rule:evenodd;clip-rule:evenodd;fill:#B0D2EE;}
	.st4{fill-rule:evenodd;clip-rule:evenodd;fill:#FB81B0;}
	.st5{fill-rule:evenodd;clip-rule:evenodd;fill:#FFD641;}
	.st6{fill-rule:evenodd;clip-rule:evenodd;fill:#9D8CC7;}
	.st7{fill-rule:evenodd;clip-rule:evenodd;fill:#FFD55E;}
	.st8{fill-rule:evenodd;clip-rule:evenodd;fill:#B1D3D9;}
	.st9{fill-rule:evenodd;clip-rule:evenodd;fill:#FFAE26;}
	.st10{fill-rule:evenodd;clip-rule:evenodd;fill:#7CBDCA;}
	.st11{fill-rule:evenodd;clip-rule:evenodd;fill:#A496E0;}
	.st12{fill-rule:evenodd;clip-rule:evenodd;fill:#A17571;}
	.st13{fill-rule:evenodd;clip-rule:evenodd;fill:#FA98CB;}
	.st14{fill-rule:evenodd;clip-rule:evenodd;fill:#93566D;}
	.st15{fill-rule:evenodd;clip-rule:evenodd;fill:#FF8987;}
</style>
<path class="st0" d="M539.9,705.1c14.8,2.5,10.2-75.2,6.1-88.6c-15.3-51-54.3-136.2-103.6-160.9c-8.2-4.1-18.2-7.6-27.1-9.8
	c-80.2-20-42,58.3-84.4,77.6c-28.2,12.8-83.8,13.9-99.5,45.2c-13.6,27.3,22.7,34.5,18.1,50.5c-8.6,30.1-87.5,80.3-33.9,113.8
	c24.5,15.3,124.1-19.1,150.5-25.2C413.8,696.7,493.6,697.3,539.9,705.1"/>
<path class="st0" d="M523.1,757.7c8-14.4-18.4-15.8-33.5-6.7c-35.4,21.3-154.1,28-185.9,53.5c-38.5,30.8-7.8,31.5-17.6,54.1
	c-11.6,26.9-34.6,16.4-41.3,46.5c-10.3,46.2,33.4,60.3,69.4,57c28.4-2.6,76.3-30.5,97.2-51.5C438.4,883.9,505.2,789.9,523.1,757.7"
	/>
<path class="st1" d="M550,833.2c4.8-41.2,5.7-79.9,3.9-80.7c-11.1-5.5-14.9,25.2-21.2,42.1c-18.3,49.5-33.5,117.8-35.9,153.6
	c-1.1,17,7.9,69.3,36.9,62.4c21.8-5.2,15.4-57.4,16.3-70.3C552.7,900.2,544.3,882,550,833.2"/>
<path class="st1" d="M620.7,677.9c-17.7-1-31.9-20.6-26.3-36.9c5.7-16.6,27.9-32.9,45.7-21.9C669.8,637.5,650.5,679.6,620.7,677.9"
	/>
<path class="st2" d="M206.4,776.9c-11.6,7.1-24.5,17.4-33.1,28.9c-10.4,13.8-14.4,29.2-4.7,43c5.1,7.2,13.7,12.1,23.5,16
	c12.5,5.1,26.8,8.5,35.7,14.6c3.8,2.6,6.5,5.8,6.8,10.2c1.4,19.2,19.3,36.5,41.6,46.7c20.9,9.5,45.5,12.7,62.5,6.1
	c25.4-9.9,46.4-23.7,66.1-40.6c26.4-22.6,50.5-50.8,80.3-82.5c16.2-17.2,37.7-47.8,52.1-77.4l0.7-1.4c1.3,1.4,2.4,3,3.5,4.6
	c-7.6,10.4-15.5,23.3-23.3,38.4c-15.9,31-31,72-40.4,122.6c-2.4,13.1-6,51.9,0,78.5c3.4,15,10.3,26.1,21,28.5
	c9.3,2,16.5,1.1,22.2-1.7c6.8-3.3,11.4-9.4,14.5-17.1c7.5-18.4,5.5-46.5,5.8-61.2c0.5-24.2,1-48.3,2.5-69.6
	c1.2-17.7,3.1-33.4,6.2-45.3c6.3-24.3,7.9-41.7,6.3-54.7c-1-8.2-3.2-14.8-6.4-20.3c9-11.9,17.2-19.9,23.4-24.1
	c20.4-13.7,34.5-14.7,46.4-9.4c10.1,4.5,18.6,13.3,27.9,22.1c18.2,17.3,39.3,34.8,79.1,24.7c1.1-0.3,1.8-1.4,1.5-2.5
	c-0.3-1.1-1.4-1.8-2.5-1.5c-37.9,9.3-57.7-7.6-74.9-24.1c-9.7-9.3-18.5-18.4-29.1-23.2c-13.1-6-28.8-5.6-51.5,9.4
	c-6.3,4.2-14.6,12.1-23.7,23.6c-1.5-2.1-3.2-4-5-5.8c3-6.9,5.6-13.7,7.5-20.2c11.5-6,20.2-13.5,27.1-22.6c6.9-9.2,11.9-20.1,16-32.7
	c1.2-3.8,2.6-7.5,4.1-11c0.4,1.5,0.9,2.9,1.4,4.3c4.6,12.9,13,22.4,25.7,26.8c19.1,6.6,34.6-4.2,41.5-18.8
	c7.3-15.6,4.5-35.3-13.9-42.8c-18.3-7.5-32.1-5.1-42.5,2.9c-3.6,2.7-6.7,6.2-9.6,10.1c-0.7-9.9,0-20.8,1.9-32.1
	c7.3-43.7,32.5-93.2,62.7-114.1c1-0.7,1.3-2.1,0.6-3.2c-0.7-1-2.1-1.3-3.2-0.6c-31.2,21.3-57.5,72-65.3,116.9
	c-2.5,14.4-3.1,28.2-1.3,40.3c-3.1,5.7-5.8,12.2-8,19.1c-3.9,11.9-8.6,22.1-15.1,30.8c-5.2,6.9-11.5,12.7-19.5,17.6
	c1.8-8.4,2.4-16.1,1.4-22.6c-9.8-62.3-52.3-132.2-101.7-181.2c-21.9-21.7-45.2-39.3-67.6-50.4c-19.8-9.8-38.9-14.4-55.8-12.4
	c-8.6,1-15.1,4.4-20.3,9.2c-9.5,8.8-14.5,22.8-20.8,35.7c-5.5,11-12.1,21.1-25.3,24.6c-21.5,5.6-37.4,13.4-49.8,22.7
	c-16.2,12.1-26.2,26.7-34.4,42.6c-3,5.9-4.8,11.7-5.8,17.5c-1.5,9-1.3,18.2-1.6,28.1c-0.4,11.4-1.5,24-7.7,39
	c-4.1,9.8-11.9,19.1-19.8,28.5c-8.3,9.8-16.7,19.7-21.6,30.1c-5,10.5-6.5,21.4-1.5,33.2c6.1,14.1,21.4,22.2,40.9,26
	C174.2,776.7,190.4,777.3,206.4,776.9z M544.4,750.8c-6.8,9.8-13.9,21.7-20.9,35.6c-15.4,30.7-30.1,71.2-39,121.1
	c-2,11-4.7,40.6-1.5,65c1.2,9.3,3.3,17.8,6.8,24.1c2.6,4.8,6,8.2,10.6,9.2c7.2,1.6,12.8,1,17.2-1.2c5.1-2.6,8.4-7.3,10.8-13.1
	c7.1-17.6,4.8-44.4,5-58.5c0.5-24.3,0.9-48.6,2.4-70c1.2-18.3,3.2-34.4,6.4-46.8c5.9-22.9,7.5-39.4,6-51.7
	C547.4,759.3,546.2,754.8,544.4,750.8z M514.5,727.3c-23.8,8.8-49.3,15.6-75.5,20.9c-57,11.7-117.1,16.8-169.3,23
	c-9.9,1.2-24.8,3.1-41.5,4.4l-1.1,0.3c-11.6,3.5-34.5,17.8-47.2,34.7c-8,10.7-12,22.5-4.5,33.1c5.3,7.4,15.4,11.6,25.8,15.4
	c11.5,4.2,23.4,7.7,31.3,13.2c6,4.2,9.9,9.5,10.4,16.5c1.2,16.6,17.5,30.9,36.7,39.6c18.8,8.5,40.7,11.8,55.9,5.9
	c24.5-9.5,44.7-22.8,63.6-39.1c26.2-22.4,50.1-50.4,79.7-81.8c15.8-16.7,36.6-46.5,50.7-75.3c0.6-1.3,1.2-2.6,1.8-3.9
	C526.7,730.8,521.2,728.6,514.5,727.3z M541.5,708.6c2.9-10,4.2-19.1,3-26.6c-7.9-50.7-38.2-106.5-76-151.3
	c-23.8-28.3-50.6-52.2-76.7-67.6c-22.4-13.2-44.2-20.3-63-18.1c-6.6,0.8-11.6,3.3-15.6,7c-8.8,8.2-13.1,21.4-19.1,33.3
	c-6.5,13.1-14.8,24.8-30.6,28.9c-20.3,5.3-35.3,12.5-47,21.3c-15.1,11.3-24.4,25-32.1,39.8c-4.8,9.2-5.8,18.1-6.1,27.5
	c-0.4,9.5,0,19.4-1.6,30.6c-1.1,7.9-3.2,16.5-7.1,25.9c-4.4,10.5-12.7,20.6-21.2,30.6c-7.9,9.3-15.9,18.6-20.6,28.3
	c-4,8.4-5.4,17.2-1.4,26.6c2.8,6.7,8.4,11.5,15.5,15.1c9.4,4.7,21.5,7.3,34.6,8.5c15.2,1.4,31.8,1,47.2,0c0.3-0.1,0.6-0.2,0.9-0.3
	c39.5-12,72.1-20.7,101.3-27.1c37.7-8.4,69.8-13.2,103.6-17.1c34.8-4.1,59-7,76.6-5.7c3.6,0.2,7,0.7,10.2,1.3
	C525,716,533.4,712.5,541.5,708.6z M497.5,726c-16.4,0-37.9,2.6-66.9,6c-33.5,3.9-65.3,8.7-102.7,17c-17.8,4-36.9,8.7-58,14.6
	c51.7-6,111.2-10.9,167.7-22.3C458.1,737.2,478.3,732.2,497.5,726z M538.6,717.4c-3.8,1.8-7.7,3.4-11.6,5.1c2.8,1.2,5.5,2.6,7.9,4.4
	C536.2,723.6,537.5,720.5,538.6,717.4z M599.9,638.2c0.7,3.6,1.6,7,2.8,10.2c4.1,11.2,11.3,19.6,22.4,23.3
	c15.9,5.4,28.7-3.8,34.3-15.9c5.9-12.6,4-28.7-10.9-34.7c-15.7-6.3-27.5-4.7-36.4,2.2C607.2,626.9,603.3,632.1,599.9,638.2"/>
<path class="st3" d="M948.1,754.2c-3-3.7-0.1-19.9,0.9-24.5c4.6-20.7,10.6-35.1,16.9-55.3c19.3-61.9,71.3-137.4,121.7-177.9
	c20-16.1,44.9-27.2,70.3-30.4c18.8-2.4,33.2,11.9,29.3,31.4c-5,25.3-45.9,70.1-62.1,89.7c-20.4,24.6-42.6,48.2-65.7,70.1
	c-21.9,20.8-40.6,42.5-62.6,62.9C984,732.1,964.4,748.7,948.1,754.2"/>
<path class="st3" d="M992,791.7c-4.9,0.3,2.2-13.1,5.7-18.2c13.7-20.2,27.8-40.8,46.4-56.6c43.2-36.8,86.7-79.6,141.3-98
	c20-6.7,51.4-16.4,71.7-10.5c11.3,3.3,26.6,10.9,21.3,25.8c-9.5,26.4-69.7,51.6-92.9,64.7c-26.4,14.9-52.3,29.9-79.4,43.6
	C1071.5,759.8,1031.3,789.2,992,791.7"/>
<path class="st4" d="M970,867.3c-2.5-15.8-0.9-45,1-44.6c15.5,3.9,19.8,7,39.7,19.4c28.1,17.4,52.9,33.7,70.7,59.1
	c6.2,8.9,31.8,43.4,35.8,52.3c7.3,16.1,25.9,47.2,4.9,60.1c-12.6,7.8-62.5-14.9-90.1-40.7C1002,944.8,973.9,891.5,970,867.3"/>
<path class="st4" d="M918.2,724.6c0.5,22.5,1.4,43.8-21.8,44.8c-10.2,0.4-60.3-9.4-66.8-17.4c-4.7-5.8-13.9-11.9-15.5-19.4
	c-4.8-23.3,3.8-40,18.9-52.2c23.4-18.8,68.7-12.6,80.3,17.1C916.8,706.4,918,715.1,918.2,724.6"/>
<path class="st2" d="M940.3,759.5c-6.2,1.9-12.3,3.4-18.4,4.5c-2,0.3-4.1,0.6-6.4,0.9c0.2-0.4,0.3-0.9,0.5-1.3
	c10.8-30.6,8-63.9-21.2-97.9c-19.3-22.4-49-23.2-71.4-11.5c-23.4,12.2-38.5,37.8-26,66.2c5.5,12.5,11.6,20.8,17.9,26.8
	c9.1,8.7,18.7,12.5,27.4,16.6c10.3,4.9,25.1,7.6,39.9,8.6c8.1,0.6,16.2,0.6,23.6,0.3c-19.6,42.2-64.2,78.1-95.3,100.8
	c-10.7,7.8-28.7,25.3-46,34.5c-7.9,4.2-15.5,6.7-22.2,5.4c-1.2-0.2-2.3,0.5-2.6,1.7c-0.2,1.2,0.5,2.3,1.7,2.6
	c7.6,1.5,16.3-1,25.2-5.7c17.5-9.2,35.8-26.7,46.7-34.6c32.4-23.4,79.1-61,98.7-105.1c3.9-0.3,7.6-0.8,10.7-1.3
	c5.3-0.9,10.8-2.2,16.2-3.7c-0.2,4.1,0,7.8,0.8,10.9c1.1,4.3,3.1,7.6,6.1,9.9c6.8,5.2,16.9,8.1,29.3,8.7l0.4,0
	c-2.5,4.1-4.8,8.3-6.9,12.5c-0.9,1.8-1.7,3.6-2.4,5.4c-7.5,0.6-14.8,2.5-21.9,5.7c-13.1,5.9-24.3,23.6-31.7,45.9
	c-8.5,25.4-12.2,56.8-9,82.6c0.1,1.1,1.1,1.9,2.2,1.7c1.1-0.1,1.9-1.1,1.7-2.2c-3-25.3,0.9-55.9,9.3-80.7
	c7.1-20.7,17.2-37.4,29.4-42.8c5.9-2.6,11.9-4.2,18.1-4.9c-4.1,14.6-2.9,30.7,2.4,47.1c7.9,24.6,25,50.1,46.3,72.1
	c24.5,25.5,54.5,46.5,81.9,56.7c15.7,5.9,30.7,8.2,43.3,6.1c6.4-1.1,10.6-3.9,13.2-7.6c2.7-3.9,3.7-8.9,3.2-14.6
	c-1.3-18.8-18.3-45.8-25.7-55.6c-20.9-27.7-58-68-97.8-91.3c-18.7-10.9-37.9-18-56.5-18.6c0.3-0.6,0.5-1.1,0.8-1.7
	c2.7-5.4,5.8-10.7,9.2-16c16.4-0.5,36.1-3.9,57.4-9.3c76.8-19.3,174.1-63.7,207.3-82.5c14.1-8,47.2-32.6,64.8-54.2
	c5.8-7.1,10-13.9,11.6-19.8c1.9-7,0.6-12.9-4.8-17.2c-14.3-11.5-37.4-11.2-61.8-5.3c-31.5,7.7-65.6,24.5-84.8,34.1
	c-41.6,20.8-93.3,49.8-136,85c-22.8,18.7-43,39.2-57.8,61.1c-12.9,0-23.3-2-30-7.1c-2.2-1.7-3.2-4.5-3.6-8c-0.3-2.7-0.3-5.8,0.1-9.1
	c27.2-9.1,55.8-25.2,83.5-44.5c52.7-36.6,102.6-84.5,134.9-116.8c10.3-10.2,47.5-54.1,60.9-89.4c7.7-20.2,7.2-37.8-7.1-46.4
	c-12.1-7.3-27.1-7.1-43.6-1.1c-16.7,6-35.1,18-54,33.6c-66.3,54.8-137.9,154.2-154.8,188.1c-8,16.1-21.5,44.7-26.3,67.1
	C940.8,756.6,940.5,758.1,940.3,759.5z M973.2,819.7c-4.6,13.9-3.5,29.3,1.5,45.1c7.6,23.6,24.1,48,44.4,69.2
	c23.6,24.7,52.5,45.1,79,55.1c14.3,5.4,27.9,7.8,39.5,5.9c3.2-0.5,5.6-1.6,7.3-3.2c4.4-4.2,4-11.3,1.9-19.2
	c-4.2-16.6-16.8-36.3-22.7-44.2c-20.3-27.3-56.5-67.2-95.4-90.3C1010.5,827.2,991.5,820,973.2,819.7z M991,788.4
	c22.6-1.6,50.7-8.2,80.1-17.3c69.6-21.5,146.3-56.9,174.9-73.1c11.8-6.7,37.1-25.2,54.8-43.7c8.8-9.1,15.7-18.1,17.8-25.5
	c1-3.5,0.7-6.6-2-8.7c-12.7-10.2-33.2-9-54.9-3.7c-30.9,7.5-64.2,24.1-83.2,33.5c-41.1,20.5-92.3,49.2-134.6,84
	C1023.5,750.7,1005.1,769,991,788.4z M909.3,765.4c0.5-1.2,0.9-2.5,1.4-3.7c10-28.9,7.1-60.3-20.5-92.1c-17.3-20-43.9-20.4-63.8-9.9
	c-20.4,10.8-34,33.1-22.9,57.9c5.1,11.4,10.7,19.1,16.5,24.6c8.6,8.1,17.5,11.5,25.7,15.3c9.7,4.6,23.6,6.9,37.4,7.8
	C892.3,766,901.4,765.9,909.3,765.4z M949,756.5c25.5-9.2,52-24.5,77.9-42.5c52.2-36.4,101.7-84.1,133.7-116.2
	c9.9-10,46.1-52.5,59.1-86.8c2.9-7.5,4.6-14.7,4.5-20.9c-0.1-6.8-2.5-12.5-8.4-16c-10.3-6.2-22.9-5.5-36.9-0.4
	c-23.5,8.5-50.5,29.5-77.2,55.3c-57.2,55.4-112.6,133.5-127.2,162.6c-6.7,13.4-17.3,35.8-23.1,55.6
	C950.5,750.5,949.7,753.6,949,756.5"/>
<path class="st5" d="M2704.6,876.3c-3.4-24.7,16.6-58.2,27.6-76.3c6.1-10,12.8-20.2,20.5-31.5c22.2-32.4,49.7-63.9,77.5-91.7
	c12.6-12.5,29.1-29.3,42-41.6c20.7-19.6,39.8-31.7,62.2-49.2c27.3-21.4,92.3-47.6,127.3-35.9c7.9,2.6,22.6,6,28.5,12.3
	c14.6,15.7,0.5,36.5-12.4,47.1c-17,14-24.9,25.5-40.6,39.4c-8.7,7.7-15,17.4-21.9,26.6c-12.2,16.3-18.5,32.8-20.1,52.8
	c-2.3,27.5,8.9,59-19.7,76.8c-46.4,28.9-113.4,21.6-165.9,40.6c-19.6,7.1-37.7,19.3-54.7,31c-9.6,6.6-19.9,16.4-32.2,17.4
	C2714.1,894.9,2706,886.8,2704.6,876.3"/>
<path class="st5" d="M2720.3,787.7c-9.3,26.1-42,78.4-43.8,75.1c-6.7-12.3-15.1-33.6-20.2-42.6c-10.1-17.9-49.7-49.3-58.5-57.1
	c-53.7-47.6-136.5-60.7-171.3-130.1c-20.1-40.1-18.3-95.2,29.2-114.1c22.3-8.9,46,19.3,64.2,28.4c9.8,4.9,29.3,14.1,39.8,16.4
	c49,10.5,103.4-28.5,144.6-1.1C2770.6,606.6,2741.7,728,2720.3,787.7"/>
<path class="st6" d="M2712.5,905.4c0-8.2,25.4,3.3,33.8,4.7c14,2.3,37.6,2.7,51.9,2.7c17,0,30.2-1.8,47-1.8c11,0,26.9,2,37.1,6.7
	c16.9,7.8,24.7,26.9,12.4,42.6c-8.2,10.4-18,19.1-38.2,22.4c-30.3,5-53.4-1.6-82.1-12.3c-11.7-4.4-25.1-14.2-34.8-22.4
	C2732.3,942,2712.5,917.7,2712.5,905.4"/>
<path class="st6" d="M2610.2,894.2c-8.7-1.4-21-14.2-23.6-20.2c-7.9-17.9-6.7-40.3,20.2-49.3c22.7-7.5,36.6,2.3,47.2,21.3
	c11.2,20.2,9,34.7-10.1,43.7C2637.4,892.8,2623.7,896.4,2610.2,894.2"/>
<path class="st2" d="M2671.5,869.2c-2.6,2.3-5.3,4.6-8.1,6.8c-3.7-18-12.7-31.3-20.6-37.9c-15-12.7-35.7-10.4-49.8,0.3
	c-13.8,10.4-21.3,28.7-11.6,48.2c10.2,20.5,29.4,22.6,49.6,15.6c9.5-3.3,19.2-8.6,28.2-14.8c0.2,2.5,0.3,5.1,0.2,7.8
	c-0.2,16.2-5.1,35.1-17.8,55.8c-10.9,17.7-24.9,31.6-39.9,43c-16.8,12.8-34.8,22.3-51.1,30.3c-1.2,0.6-1.7,2-1.1,3.2
	c0.6,1.2,2,1.7,3.2,1.1c19.6-9.6,41.8-21.3,61.5-38.1c11.9-10.1,22.9-22.1,31.9-36.6c13.5-21.6,18.6-41.5,18.9-58.5
	c0.1-4.1-0.1-8-0.6-11.7c4.1-3.1,8-6.2,11.6-9.4c6.9,7.1,14.2,13.6,22.1,19.5c4,3,8.3,5.4,12.8,7.2c5.2,3.6,11.7,6.4,19.2,8.5
	c32,9.3,82.1,7.3,116.6,16.2c17.9,4.6,31.6,11.9,34.9,26.5c4.9,21.5-12.3,31.4-34.8,35.3c-31.7,5.5-74.4-1.1-90.3-9.8
	c-7.6-4.2-16.3-9.9-24.8-16.5c-7.1-5.5-14-11.6-20-18l0.5-0.4c4.8-4.2,8.3-8.9,9.4-14.3c1.3-6.2,0.4-10.7-1.6-13.8
	c-2-3-5-4.8-8.4-5.5c-7.7-1.6-17.3,2.7-20.2,9.8c-1.7,4.2-1.4,7.5,0.2,10.7c1.9,3.8,6.1,7.5,11.5,13.4c-7.6,5.3-16.9,10-25,15.2
	c-11.2,7.3-17.6,15.3-21.4,23.7c-4.3,9.4-5.4,19.2-6.9,28.7c-2,13.2-4.5,25.8-18.8,35.4c-1,0.7-1.3,2-0.6,3c0.7,1,2,1.3,3,0.6
	c13-8.6,17.3-19.4,19.6-31.1c2.3-11.2,2.6-23.2,8-34.5c3.6-7.6,9.5-14.9,19.8-21.4c8.3-5.3,18-10.1,25.8-15.5
	c6.3,6.8,13.5,13.3,21,19.2c8.7,6.9,17.7,12.8,25.5,17.2c16.6,9.3,61.4,16.8,94.7,11.2c27.3-4.6,46.8-17.9,41-44.1
	c-3.3-15-15.2-24.2-32-30c-28.8-9.9-72.6-9.5-106.4-15.1c0.9-0.1,1.9-0.2,2.8-0.3c52.6-6.2,124.4-44.3,211.2-54.8
	c33.9-4.1,51.6-14,60.8-27.8c8.1-12.3,9.6-28,8.9-46.7c-1.1-28.5-7.1-64.3,2.6-104.8c4.8-20.1,21.5-50.2,27-69.6
	c1.7-6,2.4-11.1,1.7-14.9c-0.6-3.4-2.2-5.9-4.7-7.6c-15.1-10-34.7-11.7-57-6.6c-23.1,5.3-49.3,17.9-76.6,35.3
	c-53.3,34.2-110.5,87-155.4,139.1c-14.8,17.1-29,33.6-41.1,49.4c22.6-39.1,45.2-85.2,56.7-128.9c13.8-52.8,11.2-102.1-25.4-132.6
	c-15-12.5-27.5-11-44.2-7.1c-15.1,3.5-33.9,9-62.6,5.2c-12.6-1.7-27-5.1-43.8-11.2c-32.8-12-63.5-22.1-89.8-25.9
	c-25.3-3.6-46.8-1.1-62.6,10.7c-24.1,18-22,49.2-6.3,83.9c28.2,62.1,99.5,136,122.6,159.1c40.2,40.1,63.9,84.4,94.2,118.1
	L2671.5,869.2z M2708.3,939.2l0.6-0.5c3.8-3.4,6.7-7.1,7.6-11.4c1.6-7.8-1.3-11.7-5.7-12.5c-5.1-1-11.7,1.6-13.6,6.4
	c-0.9,2.3-0.8,4.1,0,5.8C2699,930.3,2703.1,933.7,2708.3,939.2z M2658.2,879.9c-3.1-17.8-11.7-30.8-19.3-37.2
	c-12.8-10.7-30.2-8.4-42.1,0.7c-11.5,8.8-17.8,24.1-9.6,40.4c8.6,17.1,24.7,18.1,41.6,12.2C2638.8,892.5,2649,886.6,2658.2,879.9z
	 M2713.8,892.5c11.3,4.8,24.3,5.6,38.8,3.9c52.6-6.2,124.4-44.3,211.1-54.8c30.2-3.7,46.4-11.6,54.5-23.9c7.2-10.9,8.1-25,7.5-41.5
	c-1.1-29.2-7.1-65.8,2.8-107.1c4.8-20.2,21.5-50.5,27.1-70c1.1-3.8,1.7-7,1.6-9.7c-0.1-1.4-0.1-2.5-1-3.1
	c-13.3-8.8-30.6-9.9-50.2-5.4c-22.3,5.1-47.6,17.3-73.8,34.1c-52.7,33.7-109.2,86-153.6,137.4c-22,25.4-42.9,49.4-57,71.7
	c-12.4,19.6-19.4,37.8-16.3,54.7C2706.4,884.6,2709.4,889,2713.8,892.5z M2702.4,842.5c-2.5,3.8-5,7.5-7.3,11
	c-2.9,4.4-7.3,9.4-12.6,14.7c4.7,4.9,9.6,9.4,14.8,13.7c-0.1-0.5-0.2-1-0.3-1.5C2694.9,868.4,2697,855.8,2702.4,842.5z
	 M2677.9,863.2c4.8-4.8,8.8-9.5,11.4-13.6c29.3-43.9,73.5-117,90.9-184.4c12.8-49.5,11.3-95.9-23.1-124.4c-10.8-8.9-20-8.9-31.3-6.6
	c-14,2.8-30.8,8.7-55.7,8c-16.4-0.5-36.4-3.8-61.4-12.9c-32.2-11.7-62.3-21.7-88.1-25.3c-22.7-3.2-42.1-1.5-56.3,9.1
	c-11.2,8.4-15.3,20.2-14.7,34c0.6,12,4.7,25.4,11.1,39.5c27.8,61.1,98.1,133.7,121,156.4c40.3,40.2,64.2,84.7,94.6,118.4
	L2677.9,863.2"/>
<path class="st7" d="M3903.6,864.7c14.7-42.2,31.5-66,43.6-80.4c7.8-9.2,10.2-10.8,15.7-18.5c5.7-8,51.6-68.1,97.8-76.9
	c12.4-2.4,42.4,2,58.2,9.9c32.9,16.5,50.5,39.5,57.1,68.1c4.8,20.6-6.6,53.8-22,73.6c-25.4,32.7-69,62.6-108.8,82.4
	c-7,3.5-50.5,16.5-70.3,16.5c-26.5,0-53.1-1.7-73.6-15.4C3890.4,916.6,3896.3,885.7,3903.6,864.7"/>
<path class="st8" d="M3981.6,747.1c-13.2,8.8-45.1,7.9-53.8,6.6c-13.1-2-44-3.3-58.2-8.8c-28.4-10.9-82-53.2-46.1-93.4
	c55.5-62.2,144.4,66.2,142.8,61.5c-5.5-16.5-23.7-40.3-28.6-61.5c-10.7-46.4-12.9-91.2,23-101.7c39.6-11.6,66,20.7,68.1,56.9
	c2.6,44.2,1.4,88.2-23.6,120.8C3998.7,736,3991.7,740.4,3981.6,747.1"/>
<path class="st2" d="M3894.2,613.9c-15.4-7.4-34.2-11.3-58-8.6c-10.7,1.2-24.1,6.1-36,14c-11,7.3-20.7,17.1-25.9,28.7
	c-8.6,19.1-10.5,34.9-5.1,50c4.7,13,14.8,25.5,31.4,39.2c9,7.4,26.1,12.8,47.5,16.2c21.5,3.4,47.5,4.8,73.9,4.6
	c5.6,0,11.3-0.2,16.9-0.3c-16.6,11-32.5,29.2-44.1,50.7c-11.3,20.9-18.5,45-18.5,68.3c0,10-0.6,23.1,2.9,33.7
	c2.7,8.1,7.5,14.8,16.1,18.5c13.5,5.8,27.7,8.7,42.1,9.5c-20.6,2.6-44.4,7.1-64.1,17.3c-21.6,11.2-38.4,29.2-41.1,59.3
	c-0.1,1.1,0.7,2.1,1.9,2.2c1.1,0.1,2.1-0.7,2.2-1.8c2.8-28.3,18.7-45.2,39.1-55.5c23-11.6,51.5-15.1,73.7-17.3
	c15-1.5,27.3-2.5,33.4-4.8c1-0.4,2-0.9,2.9-1.4c5.5-1.2,11.8-3,17.9-5.2c11.7-4.1,23-9.4,28.4-13.7l0.1,0
	c41.4-19,82.6-46.5,109.2-78.5c21.6-26,33.6-55.1,29.1-85c-1.3-8.8-5.2-20.7-10.9-31.9c-5.5-10.7-12.8-20.6-21.2-26.7
	c-8.6-6.2-17.4-11.5-26.3-15.6c-9.6-4.4-19.3-7.6-29.3-9.4c-6.8-1.2-13.6-1.8-20.6-1.6c-6.7,0.1-13.6,0.9-20.5,2.3
	c-2.4,0.5-4.9,1.1-7.4,1.8l-0.3,0.1c1.6-6.4,2.6-11.9,2.9-15.6c2-29.5,2.9-58.6-5.7-82.1c-6.3-17.3-17.6-31.8-37.2-41.5
	c-3.4-1.7-12.6-3.4-22.2-4.1c-8.2-0.6-16.8-0.6-22.2,0.5c-15.3,3.1-28.1,9.4-37.6,19.6c-8.8,9.4-14.8,22.1-17.2,38.7
	C3893.3,596.8,3893.3,605.4,3894.2,613.9z M3890,841.9c-3.4,11.4-5.3,23.2-5.3,34.9c0,9.2-0.7,21.3,2.5,31.1
	c1.9,5.8,5.3,10.8,11.4,13.4c17.4,7.4,36,9.8,54.7,8.7c-2.4-1.5-4.9-3.2-7.4-5.1c-14.8-11.2-30.8-28.5-42-47.1
	C3896.9,865.9,3891.8,853.6,3890,841.9z M3987.6,924.5c1.3-4.4,0.9-10.3-0.8-17c-3-12.2-10.4-27-21-42.1c-6.3-9-24-26.9-40.4-38.4
	c-6.9-4.8-13.6-8.6-18.9-9.7c-2.4-0.5-4.5-0.6-6,0.5c-0.9,0.6-1.6,1.7-2,3.1c-6.4,19.3,4.5,43.9,20.1,64.9
	c15.1,20.3,34.8,37.5,49.1,42.8C3974.3,927.6,3980.9,926.2,3987.6,924.5z M4028.5,909.9c3.7-3.4,6.8-7.2,9.3-11.4
	c2.7-4.5,4.8-9.4,6.1-14.6c3.1-12.2,2.4-26.2-2.6-41.4c-4-12-10.6-24.8-20.1-38c-7.7-10.6-25.6-25.1-42.8-34.3
	c-8.4-4.5-16.7-7.8-23.4-8.6c-3.4-0.4-6.3-0.2-8.5,1.1c-16,9.6-31.4,26.7-42.8,47.1c4.8,0,11,2.3,17.6,6.2
	c18.9,11,42.3,34.8,49.9,45.7c13.6,19.5,21.8,38.7,23,52.8c0.3,3,0.2,5.8-0.2,8.3C4005.9,919.3,4017.6,914.9,4028.5,909.9z
	 M4024.4,676c2.2-7.9,3.7-14.9,4-19.3c1.9-28.3,3-56.2-5.2-78.8c-5.6-15.4-15.7-28.3-33.1-37.1c-2.9-1.5-10.9-2.7-19.2-3.3
	c-7.4-0.6-15.1-0.6-19.9,0.3c-13.5,2.7-24.9,8.2-33.3,17.2c-7.8,8.3-13,19.7-15.1,34.4c-1.4,9.7-1.1,19.5,0.4,29.2
	c1.2,0.7,2.3,1.5,3.5,2.2c21.2,14.3,35.3,35.4,48.9,52.5c9.8,12.3,22.8,35.7,27.3,51.9c1.5,5.4,2.1,10.1,1.5,13.5
	c-0.5,3.3-2,5.6-4.2,7c-2.3,1.4-5.6,2-10.3,0.6c-4.8-1.4-11.4-7.6-18.5-16.5c-9.9-12.5-21.1-30.3-29.9-44.4
	c-8.7-14.1-16.5-29.7-21.6-46.1c-1.7-5.6-3.1-11.2-4.2-16.9c-15.1-8.4-33.9-13.1-58.4-10.4c-9.9,1.1-22.1,5.6-33.1,12.8
	c-10,6.6-18.9,15.3-23.7,25.8c-7.9,17.3-10,31.6-5.1,45.3c4.3,12.2,13.9,23.9,29.4,36.8c8.4,7,24.5,11.9,44.6,15.1
	c21.2,3.4,46.9,5,73,4.9c18.2,0,36.7-0.8,53.9-2.3c20.1-1.7,38.6-4.2,53.3-7.5c1.2-0.3,2.4,0.5,2.7,1.7s-0.5,2.4-1.7,2.7
	c-14.9,3.4-33.6,6.1-53.9,7.9c-3,0.3-6.1,0.5-9.2,0.8c4.8,1.7,9.9,4,15,6.7c18.4,9.9,37.4,25.5,45.6,36.8
	c12.4,17.2,20.1,33.8,23.7,49.1c3.2,13.5,3.1,26,0.2,37.1c-1.5,5.7-3.7,11-6.5,15.9c34.4-17.8,67.3-41.3,89.6-68.2
	c20-24.1,31.5-50.7,27.3-78.4c-1.2-8.1-4.8-19-10.1-29.3c-4.9-9.5-11.2-18.4-18.7-23.8c-8.2-5.9-16.4-10.9-24.9-14.8
	c-8.9-4.1-18-7.1-27.3-8.8c-6.2-1.1-12.6-1.6-19-1.5c-6.2,0.1-12.6,0.8-19,2.1c-2.3,0.5-4.6,1-6.9,1.7c-1.7,0.5-3.4,1-5.1,1.5
	c-3.3,10.9-7.8,22.8-12.6,31.8c-4,7.4-8.4,12.9-12.4,15.2c-4,2.2-7.9,2.1-11.6-1c-6-5.1-5.9-13.3-1.3-22.2
	C3999.6,693.9,4014.4,680.6,4024.4,676z M3904.8,628.5c0.7,2.9,1.5,5.8,2.4,8.6c4.8,15.7,12.3,30.7,20.7,44.3
	c8.6,13.9,19.5,31.4,29.3,43.7c3.7,4.6,7.1,8.5,10.2,11.2c1.6,1.4,3.1,2.4,4.4,2.8c1.1,0.3,2,0.5,2.8,0.5c0.5,0,1,0,1.3-0.3
	c0.5-0.4,0.6-1.2,0.7-2.1c0.5-4.1-1.2-10.4-3.8-17.4c-5.5-14.5-15.5-32-23.3-41.9C3936.9,662,3923.9,642.4,3904.8,628.5z
	 M4020.8,687.7c-6.1,4.4-12.7,10.9-17.2,17.4c-2.8,4-4.9,8-5.4,11.6c-0.3,2.1,0.1,3.9,1.7,5.3c0.9,0.7,1.8,0.5,2.7-0.2
	c1.6-1,3.1-2.8,4.6-4.9c2.6-3.6,5.2-8.5,7.6-13.8C4016.9,698.2,4018.9,693,4020.8,687.7"/>
<path class="st9" d="M1587,872.8c-13.9-39.9-29.8-62.4-41.2-76c-7.3-8.7-9.7-10.2-14.9-17.5c-5.4-7.6-48.8-64.4-92.5-72.7
	c-11.7-2.2-40.1,1.9-55.1,9.4c-31.2,15.6-47.8,37.4-54,64.4c-4.5,19.5,6.2,50.9,20.8,69.6c24.1,31,65.3,59.2,102.9,77.9
	c6.6,3.3,47.8,15.6,66.5,15.6c25,0,50.2-1.6,69.6-14.5C1599.5,922,1593.9,892.7,1587,872.8"/>
<path class="st10" d="M1513.2,761.6c12.5,8.3,42.6,7.5,50.9,6.2c12.3-1.9,41.6-3.1,55.1-8.3c26.8-10.3,77.6-50.4,43.6-88.3
	c-52.5-58.8-136.6,62.6-135.1,58.2c5.2-15.6,22.4-38.1,27-58.2c10.2-43.9,12.2-86.2-21.8-96.2c-37.4-11-62.4,19.6-64.5,53.8
	c-2.5,41.8-1.3,83.4,22.3,114.2C1497,751.1,1503.6,755.3,1513.2,761.6"/>
<path class="st2" d="M1463.5,691.1c-16.8-4.6-32.9-5-48.4-1.8c-17.4,3.5-34,11.5-50.2,23.2c-8,5.8-14.9,15.2-20.1,25.4
	c-5.4,10.6-9.1,21.9-10.3,30.2c-4.3,28.4,7.1,55.9,27.6,80.6c25.2,30.3,64.1,56.4,103.4,74.3l0.1,0c5.1,4,15.9,9,26.9,12.9
	c5.9,2.1,11.9,3.8,17.2,5c0.8,0.5,1.7,0.9,2.6,1.2c5.8,2.2,17.4,3.1,31.6,4.5c21,2.1,48,5.4,69.7,16.3c19.3,9.7,34.4,25.6,37,52.4
	c0.1,1.1,1.1,2,2.2,1.9s2-1.1,1.9-2.2c-2.5-28.5-18.4-45.6-38.9-56.2c-17.9-9.3-39.4-13.5-58.4-16.1c12.9-0.9,25.6-3.7,37.7-8.8
	c8.2-3.5,12.8-10,15.3-17.6c3.3-10.1,2.8-22.4,2.8-31.9c0-22.2-6.8-44.9-17.5-64.8c-8.2-15.3-18.8-28.9-30.2-39.1
	c13.7-0.5,27.5-1.7,40.6-3.4c34.7-4.6,64.9-13.2,78.6-24.5c15.7-13,25.3-24.9,29.7-37.2c5.1-14.3,3.3-29.3-4.8-47.4
	c-4.9-11-14.1-20.3-24.6-27.2c-11.2-7.4-23.9-12.1-34.1-13.3c-22.4-2.5-40,1-54.6,7.9c0.8-8,0.8-16-0.4-23.9
	c-2.2-15.7-8-27.8-16.3-36.8c-9-9.7-21.2-15.7-35.7-18.6c-5.1-1-13.2-1.1-21-0.5c-9.2,0.7-17.9,2.3-21.1,3.9
	c-18.6,9.3-29.3,23-35.3,39.4c-8.1,22.3-7.3,49.8-5.4,77.8C1461.1,680.1,1462.1,685.2,1463.5,691.1z M1599.9,852.4
	c-1.8,10.8-6.6,22.1-13,32.9c-10.6,17.7-25.8,34.1-39.8,44.7c-2.1,1.6-4.3,3.1-6.3,4.5c17.4,0.9,34.7-1.4,50.8-8.3
	c5.8-2.5,8.9-7.1,10.7-12.5c3-9.2,2.4-20.6,2.4-29.3C1604.6,873.6,1602.9,862.9,1599.9,852.4z M1526.4,933c3.8-1.5,8.1-3.9,12.6-7
	c11.2-7.7,23.5-19.8,33.7-33.4c14.7-19.8,25-42.9,19-61.1c-0.4-1.3-1-2.2-1.8-2.8c-1.4-1-3.3-0.9-5.5-0.4
	c-5.1,1.1-11.3,4.6-17.8,9.1c-15.5,10.8-32.2,27.8-38.2,36.3c-10.1,14.2-17,28.2-19.9,39.7c-1.5,6.2-1.9,11.7-0.8,15.8
	C1513.9,930.8,1520.1,932.1,1526.4,933z M1523.8,780c-2.4,1.1-4.9,2.3-7.4,3.6c-16.3,8.7-33.2,22.4-40.4,32.4
	c-9,12.4-15.2,24.5-19,35.8c-4.7,14.3-5.4,27.6-2.5,39c1.3,4.9,3.2,9.5,5.8,13.8c2.4,3.9,5.3,7.5,8.7,10.7
	c10.2,4.7,21.1,8.8,32.3,12.1c-0.3-2.3-0.3-4.8-0.1-7.5c1.1-13.3,8.9-31.5,21.8-50c7.2-10.4,29.4-32.9,47.3-43.3
	c6.1-3.6,11.8-5.7,16.3-5.9c-9.3-16.5-21.4-30.7-34.1-40C1542.7,780.8,1533.1,780.6,1523.8,780z M1587.5,640.1
	c1.4-9.1,1.7-18.4,0.4-27.5c-2-13.8-6.9-24.5-14.3-32.4c-7.9-8.5-18.7-13.6-31.4-16.2c-4.6-0.9-11.8-0.9-18.8-0.3
	c-7.8,0.6-15.3,1.7-18.1,3.1c-16.4,8.2-25.9,20.4-31.2,34.9c-7.8,21.4-6.7,47.7-4.9,74.4c0.3,4.1,1.6,10.6,3.7,18
	c9.6,4.4,23.5,17,29.6,28.5c4.4,8.5,4.5,16.4-1.3,21.3c-3.6,3-7.4,3.1-11.3,1c-3.9-2.1-8.1-7.4-11.8-14.4c-4.6-8.5-8.8-19.7-11.9-30
	c-17.2-5.5-33.6-6.3-49.3-3.1c-16.2,3.3-31.8,10.8-47,21.8c-7,5.1-13,13.5-17.6,22.4c-5,9.7-8.3,20-9.5,27.6
	c-4,26.1,6.9,51.3,25.7,73.9c20.9,25.2,51.6,47.2,83.9,64c-2.5-4.4-4.4-9.2-5.8-14.3c-2.7-10.5-2.8-22.4,0.2-35.2
	c3.4-14.5,10.7-30.2,22.5-46.5c7.1-9.8,22.9-23.1,39-32.5c-8.9-1-17.4-2.3-25-4.1c-1.2-0.3-2-1.5-1.7-2.7c0.3-1.2,1.5-2,2.7-1.7
	c9.4,2.1,20.1,3.6,31.5,4.4c7.9-3.9,15.5-6.6,21.8-7.3c5.2-0.6,9.7,0.1,13.1,2.2c2.9,1.8,5.9,3.8,8.8,6c8.6-0.3,17.1-0.8,25.6-1.6
	c41.5-3.7,80-12.8,95.7-26c14.6-12.2,23.6-23.2,27.7-34.7c4.6-13,2.6-26.4-4.9-42.8c-4.5-9.9-12.9-18.2-22.3-24.4
	c-10.3-6.8-21.9-11-31.2-12c-23.1-2.5-40.8,1.8-55,9.8c-1,5.4-2.3,10.7-3.9,16c-4.8,15.4-12.2,30.3-20.5,43.6
	c-8.3,13.3-18.9,30.2-28.3,42c-6.7,8.4-13.1,14.3-17.6,15.7c-4.5,1.3-7.7,0.8-9.9-0.6c-2.2-1.3-3.6-3.6-4.1-6.7
	c-0.5-3.2,0-7.7,1.5-12.9c4.3-15.4,16.6-37.5,25.9-49.2c12.8-16.2,26.2-36.2,46.3-49.7C1585.3,641.4,1586.4,640.7,1587.5,640.1z
	 M1544.2,775.8c-1.9-0.5-4.1-0.4-6.6-0.1C1539.8,775.7,1542,775.8,1544.2,775.8z M1585.5,649.9c-17.8,13.1-29.9,31.5-41.7,46.4
	c-7.4,9.4-16.8,25.9-22,39.6c-2.5,6.6-4.1,12.4-3.6,16.3c0.1,0.8,0.2,1.5,0.6,1.8c0.3,0.2,0.6,0.2,1.1,0.2c0.8,0,1.6-0.2,2.6-0.5
	c1.2-0.4,2.6-1.3,4.1-2.6c2.9-2.5,6.2-6.2,9.6-10.5c9.2-11.7,19.6-28.2,27.7-41.4c7.9-12.8,15-27,19.5-41.8
	C1584.2,655,1584.9,652.5,1585.5,649.9z M1476.7,706.1c1.6,4.7,3.5,9.4,5.4,13.7c3.4,7.5,7,13.9,10.6,17c1.1,0.9,2.1,1.7,3.1,0.8
	c1.4-1.2,1.7-2.9,1.5-4.7c-0.4-3.3-2.4-7.1-5-10.8C1488.1,716.1,1482.2,710.2,1476.7,706.1"/>
<path class="st11" d="M4491.2,883.9c-2.4-0.4,72.7-118.2,76.4-131.9c11.2-41.1,38.1-151.1,43.4-162.9c17.9-40.3,54-64.3,73.3-50.8
	c26.6,18.6,17.9,41.8,32.9,77.7c10.5,25.3,28.7,33,55.3,31.4c23.9-1.5,96,28.1,103.2,82.2c3,22.4-22.4,53.8-70.3,56.8
	c-34.8,2.2-74.6-10.6-104.7,7.5c-48.9,29.3-92.1,59.4-144.5,82.3C4539.8,883.3,4503,901.6,4491.2,883.9"/>
<path class="st11" d="M4471.5,871c-24.1-3-64.6-30.2-86.5-40.4c-46.6-21.9-95.5-42.9-128-84.7c-14.5-18.6-22.1-58.7-7-78.9
	c26.5-35.3,69.1-24.6,92.4-53.7c8.2-10.3,8.4-24.6,15.8-35c15-21.4,42.4-44.4,67.2-53.2c21.9-7.7,71.9-7.4,90.6,7
	c5.6,4.3,8.6,11,12.9,16.4c4.8,6,10.8,8.3,14,15.8c17.9,40.8-15.1,126.3-23.4,169.4C4511,777.4,4500.3,835,4471.5,871"/>
<path class="st12" d="M4567.8,914.3c3.4-10.4,78.4-45.4,83.1-47.6c45.4-20.4,116.4-53,164.3-61.3c20.2-3.5,56.7,7.2,60.2,31.5
	c2.9,20.3-22.5,41.7-38,50.8c-35.8,21.1-81.4,29.6-121.6,36.8c-21,3.7-63.6,6.2-85.1,4.8C4610.3,928,4564.5,924.8,4567.8,914.3"/>
<path class="st12" d="M4451,881.4c23.2,31.9-54.4,50.6-58.4,48.4c-19.7-10.7-25.4-35.3-8.8-51.9c13.1-13.1,28.3-10.7,43.8-6.4
	C4437,874,4445,873,4451,881.4"/>
<path class="st2" d="M4440.4,866.9c-2.8,0.6-5.6,1.4-8.3,2.4c-14.1,4.9-27.5,14.1-33.6,23.8c-3.1,4.9-4.3,10.1-3.2,14.9
	c1,4.3,3.8,8.5,9.2,12.1c4.4,3,10.6,5,16.9,5.9c6.2,0.9,12.5,0.7,17.8-0.6c14.6-3.6,25-11.6,32.9-22.2c-5,17.5-25,37-49.3,54.5
	c-36.8,26.7-83.9,48.7-107.1,51.5c-4.1,0.5-8.7,0.4-13.4-0.1c-7.1-0.7-14.3-2-20.4-3.2c-1.2-0.2-2.3,0.6-2.6,1.8
	c-0.2,1.2,0.6,2.3,1.8,2.6c6.2,1.2,13.6,2.6,20.8,3.3c5.1,0.5,10,0.6,14.4,0.1c23.7-2.7,71.9-24.8,109.6-51.8
	c27.5-19.7,49.3-42.3,52.6-61.6c0.5-2.9,0.8-5.6,0.8-8.1c0.3-0.6,0.7-1.3,1-1.9c4.2,1.6,8.3,2.8,12.2,3.6c0.6,1.2,1.3,2.2,2.1,3
	c5.8,5.8,13.4,10.6,22.4,14.7c-5.2,5-9.3,10.2-12,15.7c-3.8,7.6-9.8,17.6-13.8,27c-1.9,4.5-3.4,9-3.9,12.9
	c-3.7,26.8-0.8,38.8-6,51.9c-3,7.7-8.9,15.6-20.6,27.3c-0.8,0.8-0.8,2.1,0,2.8s2,0.8,2.8,0c12.3-12.2,18.4-20.6,21.6-28.6
	c5.4-13.3,2.7-25.5,6.7-52.8c0.7-4.7,2.8-10.1,5.4-15.6c3.9-8.1,8.8-16.3,12.1-22.8c2.8-5.5,7.1-10.8,12.6-15.7
	c21.2,8.4,49,12.9,78.7,14.4c61.8,3.2,131.7-6.2,164.5-17.8c9.4-3.3,50.1-15.8,71.6-31.3c13.8-10,19.7-21.4,10.3-32.4
	c-8-9.3-22.4-14-39.4-15.6c-32.7-3-75.1,5.3-95.2,8.9c-7.8,1.4-17.9,3.4-29.5,5.9c27.7-13.9,53.6-28.4,75.7-40
	c22.9-12,45.2-23.6,64-36.9c14.4-10.2,26.9-21.4,36.1-34.6c13.1-18.7,9.5-38.4-3.8-57.5c-14.1-20.3-39.4-39.8-65.6-56.3
	c-10.4-6.5-16.6-13.2-20.9-20.2c-5.1-8.4-7.3-17.1-10.2-26.2c-3.9-12.3-9.1-25.3-22.8-39c-14.1-14.1-32.9-20.7-50.8-18
	c-16.3,2.5-32.1,12.7-42.8,32.6c-28.9,53.4-54.5,89.7-79.6,135l-0.5,1c2.3-7.2,4.5-14.3,6.5-21.4c12.7-44.6,18.6-86.2,10.5-114.7
	c-5.2-18.3-14.3-36.1-28-47.5c-9.5-7.9-21.2-12.9-35.4-12.9c-16.5-0.1-27.7,3.4-36,8.4c-9.1,5.4-14.6,12.8-19.7,19.7
	c-5,6.9-9.3,13.3-17.4,15.8c-8.8,2.6-22.8,7.7-36.1,10.7c-8.8,2.1-17.3,3.3-23.4,2.1c-28.8-5.8-59.1,3.1-82.4,22
	c-21.8,17.6-37.5,44-40.4,75.3c-2.1,22.9,6.6,42.8,19.8,60.8c18.6,25.3,46.4,46.9,64.4,68.5c17.1,20.6,48.8,55.7,81.4,82.9
	C4430.6,859.3,4435.5,863.2,4440.4,866.9z M4529,908c19.8,7.1,45.2,10.8,72.1,12.2c60.7,3.2,129.3-5.8,161.6-17.1
	c9.2-3.2,48.8-15.1,69.8-30.1c9.6-6.9,15.6-14.1,9.1-21.7c-9-10.6-27.5-13.7-47.9-14c-29.5-0.4-63,6-80.1,8.9
	c-13.2,2.3-33.1,6.2-55.6,11.6c-16.9,7.9-34.4,15.2-51.8,21.3c-17.4,6.1-34.8,10.9-52,13.8C4544.7,897.6,4536.2,902.6,4529,908z
	 M4446.8,871.5l-0.5,0.1c-14.7,2.1-31.2,10.7-39.9,20.7c-4.2,4.8-6.5,9.9-5.2,14.7c0.8,2.9,3,5.6,6.6,8c3.8,2.5,9,4.2,14.5,4.9
	c5.3,0.8,10.9,0.6,15.4-0.5c16.9-4.2,27.4-15.2,35.2-28.9c0.2-0.4,0.5-0.9,0.7-1.3l0-0.6c0-0.3-0.1-0.5-0.1-0.8l-0.1-0.4
	C4465,883.4,4456,878,4446.8,871.5z M4539.4,895c-11.7,1.2-23.1,1.5-34.3,0.5c5.1,4,11.4,7.4,18.4,10.3
	C4528.2,902.1,4533.6,898.5,4539.4,895z M4644.6,855c40.7-18.1,79.2-40.1,110.2-56.4c22.6-11.9,44.5-23.2,63-36.3
	c13.6-9.6,25.4-20.2,34.1-32.7c11-15.7,7.3-32.1-3.8-48.1c-13.6-19.5-38.1-38.2-63.2-54c-11.7-7.4-18.7-15-23.5-22.9
	c-5.4-9-7.9-18.2-11-27.9c-3.6-11.3-8.2-23.2-20.8-35.7c-12.2-12.2-28.3-18.1-43.8-15.7c-14.1,2.1-27.5,11.2-36.8,28.4
	c-28.9,53.4-54.5,89.8-79.7,135c-10,18-19.9,37.3-29.8,59.8c-4.7,10.5-25.3,62.1-35.4,101.5c-3.1,12.1-5.3,23-5.6,31.1
	c-0.1,2.1-0.1,4.1,0.2,5.8c20.2,2.8,41.7,1.1,63.6-3.5c5.8-2.6,11.7-5.1,17.9-7.6C4600.9,867.5,4623.5,860.6,4644.6,855z
	 M4495.2,852.2c-3.5,10.4-7.1,21-11.4,30.8c2.3,0.8,4.5,1.6,6.7,2.1C4490.1,877.2,4492,865.5,4495.2,852.2z M4536.9,734.7
	c9.3-24,17.8-48.6,24.5-72.4c12.1-43.1,18.1-83.2,10.2-110.7c-4-13.9-10.4-27.6-19.6-37.9c-9.2-10.2-21.2-16.9-36.6-16.9
	c-14.7,0-24.6,2.9-32,7.3c-10,6-15.1,14.7-20.6,22c-4.9,6.5-10.2,11.9-18.2,14.3c-10.4,3.1-27.8,9.4-42.9,12.2
	c-7.7,1.4-14.8,1.9-20.3,0.8c-26.6-5.3-54.4,3-75.9,20.4c-20.2,16.4-34.8,40.9-37.4,69.9c-1.9,20.9,6.2,38.9,18.3,55.3
	c18.5,25.1,46.2,46.6,64.1,68.1c16.9,20.3,48.2,55,80.4,81.9c7.1,6,14.3,11.6,21.4,16.5c8.3,0,15.7,2.2,20.6,7.3
	c1.9,2,3.5,4.6,4.7,7.6l0.4,0.2c8.5-18.9,13.6-40.9,21.8-58.8c5.9-12.9,12.2-26.9,18.6-41.7c6.2-16.8,11.7-30.2,13.8-35
	C4533.8,741.5,4535.3,738.1,4536.9,734.7z M4465.4,874l1,0.6c-0.6-0.4-1.2-0.8-1.9-1.1L4465.4,874"/>
<path class="st13" d="M2014.5,819.6c-11.3-60.4-90.5-76.3-138.1-104.8c-28.3-17-62.1-42.5-65.9-77.8c-3.4-31.6,13.7-59,60.8-45.3
	c26.6,7.7,44.5-5,59.4-26.5c15.4-22.2,45.4-1.3,56.1-1.7c25.1-0.9,24.8-28.2,56.5-29c34.2-0.8,28.6,68.9,29.1,80.3
	c2.1,46.2-11.9,74.1-24,122.3C2045.9,747.2,2028.5,819.6,2014.5,819.6"/>
<path class="st13" d="M2026.3,820.7c-7.3-16.9,28.5-101.5,36.3-117.9c25-53.1,67.5-107.1,118.5-141.1c22.9-15.2,59.2-43.4,77.9-15.4
	c18.5,27.7-25.4,55.4-15.1,76.1c10.3,20.6,36.9,7.5,57.9,6.9c27.9-0.9,42.8,7.5,47,35.9c6,40.2-17.1,28.2-23.1,51.3
	c-4.7,18.1,7.8,30.1,17.1,52.2c9.4,22.2,7.7,60.7-30.8,37.6c-20.8-12.5-83-13.7-117.2,5.1C2165.7,827.4,2073.3,832,2026.3,820.7"/>
<path class="st13" d="M2028.3,822c-2.1-5.4,39.4-9.7,72.3,4.9c24,10.6,78.1,11.5,101.8,10.2c34.2-1.8,97.2,30.4,61.6,42.7
	c-39.4,13.7-8.6,47-36.8,66.7c-35,24.4-18.8,70.1-41.9,57.3c-19.6-10.9-24.2-42.2-34.9-59.4c-8.3-13.3-16.9-33.8-28.4-44.1
	c-10.3-9.1-37.7-35.1-59.8-55.6C2056.1,839.1,2032.6,832.7,2028.3,822"/>
<path class="st14" d="M2017.6,839.7c4.2-13.2,26.5,29.2,31.7,36.8c30,44.5,52.7,118.2,13.3,163.8c-16.3,18.8-42.9,6.5-50.9-21.8
	c-5-17.6,7.3-36.9,11.1-53.9C2035,909.6,2013.2,853.6,2017.6,839.7"/>
<path class="st14" d="M1997.9,832.9c-4.4,16-22.2,19.7-40.2,18.8c-30.8-1.5-36.7-35.9-10.3-51.3
	C1973.9,784.9,2003.1,814,1997.9,832.9"/>
<path class="st2" d="M2015.3,821.8c-1.7,1.4-3.5,2.8-5.2,4.1c-0.8-5.1-2-9.1-3.3-11.8c-3.5-6.9-8.4-14-15.4-18.6
	c-6.2-4.1-14-6.4-24-5c-10.5,1.4-18.3,6.1-22.9,12.6c-5.1,7.2-6.2,16.7-2.3,26.2c3.1,7.5,8.3,12.6,14.6,15.6
	c-12.3,8.5-22.2,19.5-25.5,32.1c-0.3,1.1,0.4,2.2,1.5,2.5c1.1,0.3,2.2-0.4,2.5-1.5c3.3-12.6,13.9-23.2,26.6-31.3
	c0.8,0.2,1.6,0.4,2.5,0.6c8.8,1.8,18.8,0.4,28.1-3.7c4.5-2,8.9-4.4,13.2-7.1c0.1,1.1,0.1,2.2,0.2,3.4c1,25.6-4.2,64.4-22.1,95
	c-13.3,22.8-33.7,41-63.9,45.8c-1.2,0.2-2.1,1.4-1.9,2.6c0.2,1.2,1.3,2.1,2.6,1.9c31.8-4.9,53.4-23.9,67.5-47.8
	c18.6-31.5,24.2-71.4,23.3-97.8c-0.1-2.3-0.2-4.6-0.4-6.7l0.6-0.4c0.4-0.3,0.9-0.6,1.3-0.9l0.9-0.6h0l0.2,0
	c-0.1,0.8-0.2,1.7-0.3,2.5c-0.6,4.9,0.6,12.6,2.6,21.5c3.6,15.8,9.9,35.2,11.8,45.8c2.7,15.4,3.9,27.4,4.1,38.4
	c0.4,18.7-1.8,34.4-3.9,58.2c-0.9,10,2.3,19.7,7.1,27.5c6.5,10.6,16,17.6,22.3,18.4c16.4,2,27-4.9,33.8-15.4
	c9.9-15.3,11.3-39,11.1-53.5c-0.1-7.6-1.4-15.2-4.3-24.6c-3.8-12.6-10.5-28.6-21.1-52.7c-7.4-16.8-17.8-33.2-29.3-46.1
	c-8.3-9.4-17.1-16.9-25.6-21.6l0.1-0.4l0.1-0.4c1.1,0.7,2.2,1.4,3.5,2c12.1,5.9,35.7,24.5,58,44.2c22.8,20.2,44.3,41.6,50.4,52.3
	c16.8,29.5,39,53.1,56.7,66c6.4,4.6,12.1,7.9,17,9.6c6.3,2.3,11.4,2,14.5-0.2c2.7-1.8,4.5-5.1,4.4-10.1
	c-0.3-21.7,9.9-33.3,18.4-42.2c6.8-7.1,12.5-12.9,13.6-19.6c0.9-5.5-0.7-11.7-7.6-19.7c-5.5-6.4-3.8-13.7-1.7-21.1
	c1.5-5.3,3.4-10.6,4.2-15.7c0.7-4.3,0.7-8.4-0.5-12.4c-1.5-5.1-5-9.9-12-14.1c-6.3-3.8-15.9-7.2-30-9.8c13.1-2.4,33.8-4.1,50.2-3.4
	c13.3,0.5,31.5,2.8,46.2,0c7.8-1.5,14.6-4.3,19.6-9.2c5.2-5,5.5-12.9,3.3-22.7c-2.7-12-8.9-27.5-7.5-44c0.7-7.9,3.2-16.1,8.8-24.1
	c5.7-8.1,12.6-18.4,16.7-30c2.7-7.3,4.3-15.2,4-23.4c-0.1-3.4-1.3-7-3.5-10.5c-3.4-5.5-9.2-11.1-16.1-16
	c-13.8-9.7-32.2-16.6-44.8-15.6c-3.7,0.3-4.6-3.4-3.9-8.6c0.6-4.4,2.5-9.8,5.9-15.9c5.5-9.9,5.1-22.7-0.7-33.1
	c-5.1-9.3-14.4-16.7-27.2-18.5c-5.8-0.8-27.1,0.3-52.5,8.9c-15,5.1-31.4,12.7-46.9,23.9c-15.5,11.2-24.9,16.6-34.8,24.9
	c-4.2,3.5-8.6,7.6-13.5,12.9c1.3-6.6,2.4-13.1,3.3-19.1c2.8-18.6,3.1-45.9-3.7-69.2c-4.8-16.3-13.1-30.6-26.2-39.2
	c-13-8.4-23.2-11.3-32.9-11.4c-14.7-0.1-28.2,6.7-49.1,10.7c-5.1,1-11.1,0.5-17.6,0c-9-0.7-19-1.7-28.9-0.3
	c-10.3,1.4-20.5,5.4-29.9,14.4c-2.8,2.7-4.6,6.2-6.2,10c-1.2,3-2.3,6.1-4,8.8c-1.1,1.9-2.6,3.7-4.6,5c-2.2,1.4-4.9,2.3-7.9,2.9
	c-7.6,1.7-16.5,2-23.1,4.1c-17.9,5.8-31.6,16.4-39.9,30.9c-7.6,13.5-10.5,30.3-7.1,49.9c2.6,15.4,11.3,29.2,23.2,41.9
	c24.1,25.6,61.6,46.5,85.7,66.2c6.3,5.1,11.5,9.7,17.2,15c6.8,6.4,14.1,13.7,24.6,24.2c17.9,17.9,20.3,32.8,27.1,42.6
	C2014.9,821.2,2015.1,821.5,2015.3,821.8z M2021.5,834.7c-0.5,4.2,0.7,11,2.4,18.8c3.6,16,9.9,35.6,11.7,46.2
	c2.7,15.8,3.8,28.2,4,39.5c0.3,19-2,34.9-4.2,59c-0.8,8.4,1.9,16.5,5.9,23.1c5.1,8.4,12.1,14.6,17.1,15.2
	c13.2,1.7,21.8-3.7,27.4-12.2c9.3-14.2,10.5-36.3,10.4-49.8c-0.1-9-2-17.9-6.3-30.4c-3.9-11.3-9.7-25.3-18-44.6
	c-5.8-13.5-13.6-26.8-22.4-38.1C2040.7,849.9,2031,840.5,2021.5,834.7z M2026.1,820.9c1,0.8,2.2,1.5,3.5,2.1
	c12.5,6.1,36.9,25.1,59.9,45.4c23.7,21,45.8,43.4,52.1,54.4c13.3,23.3,30.1,42.8,45.1,55.9c10.7,9.4,20.4,15.4,27.1,16.8
	c1.6,0.3,3,0.5,3.9-0.1c0.8-0.5,0.8-1.6,0.8-3c-0.3-24.7,11-38,20.8-48.2c3.2-3.3,6.2-6.3,8.5-9.3c1.5-1.9,2.6-3.9,2.9-5.9
	c0.6-3.6-1.1-7.5-5.7-12.8c-7.6-8.7-6.3-18.8-3.4-28.9c1.2-4.2,2.6-8.4,3.6-12.4c0.9-3.8,1.3-7.5,0.2-10.9c-1-3.4-3.6-6.5-8.2-9.3
	c-6.7-4-17.3-7.3-33.7-9.8c-4.6-0.7-7.2-1.8-8.3-2.6c-1.1-0.9-1.7-1.9-1.9-2.8c-0.4-1.4-0.3-2.9,0.8-4.4c0.5-0.6,1.2-1.3,2.4-2
	c1.3-0.7,3.3-1.5,6-2.2c12.1-3.2,39.1-6,59.7-5.2c11,0.5,25.5,2.2,38.3,0.9c8.4-0.8,16.1-2.8,21.3-7.8c1.6-1.5,2.1-3.6,2.1-6
	c0-2.6-0.5-5.6-1.2-8.8c-2.9-12.7-9.1-29.1-7.6-46.5c0.8-9.3,3.7-18.9,10.3-28.3c5.4-7.6,11.8-17.2,15.7-28
	c2.3-6.4,3.7-13.1,3.5-20.2c-0.1-3.5-2.3-7.1-5.5-10.7c-4.2-4.7-10.1-9.3-16.7-13.2c-11.1-6.5-23.9-10.9-33.3-10.2
	c-3.3,0.3-6-0.6-8.1-2.2c-2-1.5-3.6-3.9-4.4-6.9c-1.6-6.1-0.1-15.9,6.5-27.8c4.1-7.5,3.7-17.1-0.7-25c-3.9-7.2-11.1-12.9-21-14.3
	c-5.4-0.8-25.1,0.6-48.7,8.5c-14.3,4.8-29.9,12-44.8,22.8c-15.3,11.1-24.6,16.3-34.3,24.5c-5.8,4.9-11.8,10.8-19.4,19.6
	c-1,1.1-1.9,2.3-2.9,3.5c-8.8,37.7-23.5,80.5-44.1,116.9C2055.4,787.7,2041.7,806.4,2026.1,820.9z M2002,831.4
	c-9.3,1.3-20.8,5-31.6,10.5c6.3,0.3,13.1-1.1,19.5-4C1994,836.1,1998.1,833.9,2002,831.4z M2004.5,826.3c-0.7-4.1-1.7-7.4-2.8-9.6
	c-3.1-6.1-7.4-12.3-13.6-16.4c-5.2-3.4-11.7-5.2-20.1-4c-8.6,1.2-15.1,4.9-18.8,10.2c-4,5.6-4.7,13-1.5,20.4
	c3.1,7.4,8.8,11.9,15.5,13.8c1.3-0.8,2.6-1.5,3.9-2.2c12-6.5,25-10.7,35.3-12.1C2003.2,826.5,2003.9,826.4,2004.5,826.3z
	 M2100.4,663.5c-15.4,20.5-31.2,45.5-44.6,71.6c-13.2,25.7-24.2,52.6-30.2,77.2c13.4-13.5,25.3-30.3,35.6-48.8
	C2078.7,732.4,2091.7,696.6,2100.4,663.5z M2105.1,644.4c2.4-11,4.4-21.6,5.8-31.3c2.6-17.8,2.9-43.8-3.6-65.9
	c-4.3-14.4-11.5-27.3-23.1-34.8c-11.4-7.3-20.3-10-28.8-10.1c-14.2-0.1-27.3,6.7-47.6,10.7c-5.7,1.1-12.4,0.8-19.8,0.2
	c-8.5-0.7-17.8-1.6-27.2-0.3c-8.8,1.2-17.5,4.6-25.4,12.3c-2.1,2-3.3,4.6-4.4,7.4c-1.4,3.3-2.6,6.7-4.5,9.8c-1.8,3-4,5.6-7.2,7.7
	c-2.9,1.9-6.6,3.2-10.5,4c-7.4,1.6-16,1.9-22.3,3.9c-15.8,5.1-28,14.4-35.3,27.2c-6.8,12-9.2,27.1-6.1,44.5
	c2.4,13.8,10.4,26.2,21.1,37.7c23.8,25.4,61,45.9,84.9,65.4c6.5,5.2,11.8,10,17.6,15.4c6.9,6.4,14.3,13.8,24.8,24.3
	c15.1,15.1,19.5,28,24.6,37.7c6.2-25.2,17.2-52.5,30.7-78.8C2065.5,698.5,2086,667.3,2105.1,644.4"/>
<path class="st15" d="M3456.5,864.7c2.9-21.6-14.7-51.1-24.3-66.9c-5.4-8.8-11.2-17.7-18-27.6c-19.5-28.4-43.7-56.1-68.1-80.4
	c-11.1-11-25.5-25.7-36.9-36.5c-18.2-17.2-35-27.8-54.7-43.2c-24-18.8-81-41.7-111.7-31.5c-6.9,2.3-19.8,5.3-25,10.8
	c-12.8,13.8-0.3,32,10.9,41.3c14.9,12.3,21.9,22.4,35.6,34.6c7.6,6.8,13.2,15.3,19.2,23.4c10.8,14.3,16.2,28.8,17.7,46.4
	c2,24.1-7.7,51.8,17.4,67.4c40.7,25.4,99.5,18.9,145.6,35.6c17.2,6.2,33.1,17,48.1,27.2c8.4,5.8,17.5,14.4,28.3,15.3
	C3448.2,881.1,3455.3,874,3456.5,864.7"/>
<path class="st15" d="M3442.6,787c8.2,22.9,36.9,68.8,38.6,65.9c5.9-10.8,13.2-29.5,17.7-37.4c8.8-15.7,43.5-43.3,51.2-50.1
	c47.1-41.8,119.7-53.3,150.1-114.2c17.6-35.2,15.9-83.5-25.7-100.1c-19.5-7.8-40.3,16.9-56.2,24.9c-8.6,4.3-25.7,12.4-34.9,14.4
	c-43,9.2-90.8-25-126.9-1C3398.3,628.1,3423.8,734.6,3442.6,787"/>
<path class="st6" d="M3449.7,890.3c0-7.2-22.2,2.9-29.6,4.1c-12.2,2-32.9,2.4-45.5,2.4c-14.9,0-26.5-1.6-41.2-1.6
	c-9.7,0-23.5,1.7-32.5,5.9c-14.8,6.9-21.7,23.6-10.8,37.4c7.2,9.2,15.8,16.7,33.6,19.7c26.6,4.4,46.9-1.4,72-10.8
	c10.2-3.8,22-12.5,30.5-19.7C3432.3,922.4,3449.7,901.1,3449.7,890.3"/>
<path class="st6" d="M3539.4,880.5c7.6-1.2,18.4-12.5,20.7-17.7c6.9-15.7,5.9-35.4-17.8-43.3c-19.9-6.6-32.1,2-41.4,18.7
	c-9.8,17.7-7.8,30.5,8.9,38.4C3515.5,879.2,3527.6,882.4,3539.4,880.5"/>
<path class="st2" d="M3428.8,787.8c-9.5-11.9-20.2-24.3-31.3-37.1c-47.1-54.5-109.6-110.1-163.3-137.6
	c-19.2-9.8-37.3-16.1-53.2-17.7c-14.6-1.5-27.5,1-38,8c-2.3,1.5-3.8,3.9-4.4,7.1c-0.6,3.4,0,8,1.5,13.3c4.9,17,19.5,43.4,23.7,61.1
	c8.5,35.5,3.3,66.8,2.4,91.8c-0.6,16.5,0.8,30.5,8,41.4c8.1,12.3,23.8,21,53.8,24.7c75,9.1,137.2,41.7,183.2,47.8
	c-29,4.2-64.9,4.3-88.9,12.6c-14.9,5.1-25.5,13.4-28.4,26.7c-5.1,23.2,12.1,35.2,36.4,39.3c29.4,4.9,68.8-1.7,83.4-9.9
	c6.9-3.9,14.8-9.1,22.4-15.2c6.4-5.1,12.8-10.8,18.2-16.7c6.8,4.7,15.1,8.8,22.4,13.4c9,5.7,14.1,12,17.3,18.7
	c4.7,9.9,5,20.4,7,30.2c2.1,10.3,5.9,19.9,17.4,27.5c1,0.7,2.4,0.4,3.1-0.6c0.7-1,0.4-2.4-0.6-3.1c-12.5-8.3-14.6-19.3-16.4-30.9
	c-1.2-8.3-2.2-17-6.1-25.3c-3.4-7.4-9-14.5-18.9-20.9c-6.9-4.5-14.9-8.6-21.5-13.1c4.7-5,8.2-8.3,9.9-11.5c1.4-2.9,1.7-5.9,0.1-9.7
	c-2.6-6.4-11.3-10.3-18.2-8.8c-3.1,0.6-5.8,2.3-7.6,5c-1.8,2.8-2.7,6.8-1.4,12.4c1,4.8,4.1,9,8.4,12.8l0.1,0.1
	c-5.2,5.5-11.1,10.7-17.2,15.4c-7.4,5.8-15,10.8-21.7,14.4c-13.9,7.6-51.2,13.4-78.9,8.5c-19.3-3.4-34.3-11.8-30.1-30.3
	c2.9-12.6,14.7-18.9,30.2-22.9c30.3-7.8,74.3-6,102.3-14.2c6.5-1.9,12.2-4.3,16.8-7.5c4-1.6,7.9-3.8,11.5-6.4
	c6.8-5.1,13.1-10.7,19.1-16.8c3,2.6,6.2,5.3,9.6,7.8c-0.3,3.2-0.5,6.6-0.4,10c0.3,15,4.9,32.5,16.8,51.5c8,12.7,17.7,23.3,28.1,32.2
	c17.4,14.8,36.9,25,54.1,33.4c1.2,0.6,2.6,0.1,3.2-1.1s0.1-2.6-1.1-3.2c-14.2-7-30-15.4-44.8-26.6c-13.1-9.9-25.3-22.1-34.9-37.6
	c-11.1-18.1-15.4-34.6-15.6-48.7c0-2,0-4,0.2-6c7.8,5.2,16.1,9.7,24.2,12.6c18,6.2,35,4.3,44.1-13.9c8.6-17.4,1.9-33.6-10.4-42.9
	c-12.5-9.5-30.9-11.6-44.2-0.3c-6.8,5.8-14.6,17.2-18,32.8c-2.1-1.7-4.1-3.4-6.1-5.1l1.1-1.2c26.5-29.5,47.3-68.5,82.5-103.6
	c20.3-20.3,82.8-85.3,107.5-139.8c13.9-30.8,15.5-58.4-5.8-74.4c-14-10.5-32.9-12.7-55.3-9.5c-23.1,3.3-50,12.2-78.9,22.7
	c-14.7,5.4-27.3,8.4-38.3,9.8c-25,3.3-41.5-1.4-54.7-4.5c-14.9-3.5-26-4.8-39.3,6.3c-32.2,26.9-34.6,70.4-22.3,117
	C3392.3,717.4,3410.3,755,3428.8,787.8z M3453.3,919.3c3.5-3.7,6.5-6.4,8.3-8.8c1.5-2,2.1-3.8,1.1-6.3c-1.6-4-7.1-6.2-11.4-5.4
	c-3.7,0.7-6,4-4.7,10.5c0.8,3.7,3.2,6.9,6.5,9.8L3453.3,919.3z M3497.7,867.6c8.1,5.8,16.9,10.8,25.5,13.9
	c14.5,5.1,28.5,4.3,35.9-10.4c7.1-14.1,1.6-27.2-8.3-34.8c-10.3-7.9-25.4-9.9-36.4-0.7C3507.8,841.1,3500.4,852.3,3497.7,867.6z
	 M3448.2,878.4c3.7-3,6.2-6.7,7-11.5c2.7-14.7-3.6-30.5-14.3-47.6c-12.4-19.6-30.8-40.6-50-62.8c-39-45.1-88.5-90.8-134.8-120.4
	c-23-14.7-45.1-25.4-64.6-29.9c-17.1-3.9-32-3.1-43.6,4.6c-0.3,0.2-0.4,0.7-0.5,1.2c-0.2,1-0.1,2.2,0.1,3.6
	c0.5,3.7,1.9,8.2,3.8,13.2c6.3,16.8,17.7,38.6,21.4,54c8.7,36.4,3.6,68.5,2.6,94.2c-0.5,14.4,0.2,26.6,6.5,36.1
	c7.1,10.7,21.2,17.5,47.4,20.7c76.1,9.2,139.1,42.7,185.2,48.1C3427.1,883.3,3438.4,882.6,3448.2,878.4z M3460.7,839.6
	c3.4,9.9,4.6,19.4,3.1,28.4c3.9-3.3,7.6-6.8,11.2-10.5c-4.5-4.5-8.1-8.8-10.7-12.5C3463.2,843.3,3462,841.5,3460.7,839.6z
	 M3479.9,852.4l0.9-1c26.6-29.6,47.5-68.7,82.9-103.9c20-19.9,81.5-83.6,105.8-137.1c5.6-12.3,9.1-24,9.6-34.4
	c0.6-11.9-3-22.1-12.7-29.3c-12.4-9.2-29.1-10.7-48.9-7.9c-22.6,3.2-48.9,12-77.2,22.2c-22,8-39.6,10.9-54,11.3
	c-21.9,0.6-36.6-4.6-48.9-7c-9.7-1.9-17.7-2-26.9,5.7c-30,24.9-31.1,65.4-19.9,108.6c15.3,59,54.1,123.1,79.8,161.6
	C3472.6,844.5,3475.9,848.4,3479.9,852.4"/>
</svg>
