<?xml version="1.0" encoding="UTF-8"?>
<svg id="Layer_1" width="50px" height="50px"
    xmlns="http://www.w3.org/2000/svg" viewBox="0 0 500 500">
    <defs>
        <style>.cls-1{fill:#6f50ef;}.cls-1,.cls-2{fill-rule:evenodd;stroke-width:0px;}.cls-2{fill:#fff;}</style>
    </defs>
    <path class="cls-1" d="m285.33,323.42c2.11-15.62-10.59-36.87-17.53-48.3-3.86-6.36-8.11-12.8-12.98-19.93-14.06-20.52-31.51-40.49-49.16-58.07-7.98-7.94-18.43-18.58-26.61-26.32-13.11-12.4-25.24-20.05-39.46-31.19-17.32-13.55-58.48-30.13-80.64-22.76-5,1.66-14.32,3.81-18.04,7.81-9.23,9.94-.25,23.13,7.87,29.82,10.76,8.86,15.79,16.16,25.72,24.95,5.52,4.89,9.51,11.05,13.89,16.87,7.76,10.3,11.72,20.81,12.81,33.46,1.48,17.43-5.55,37.4,12.54,48.67,29.38,18.3,71.82,13.65,105.11,25.72,12.45,4.51,23.91,12.25,34.69,19.63,6.08,4.17,12.65,10.37,20.43,11.01,5.39.45,10.47-4.68,11.37-11.36"/>
    <path class="cls-1" d="m275.28,267.34c5.93,16.51,26.67,49.69,27.83,47.56,4.26-7.81,9.56-21.26,12.77-26.97,6.39-11.36,31.4-31.23,36.98-36.18,33.96-30.15,86.4-38.47,108.36-82.42,12.71-25.43,11.51-60.3-18.58-72.29-14.1-5.63-29.11,12.22-40.6,17.96-6.18,3.08-18.53,8.94-25.21,10.37-31.03,6.63-65.53-18.05-91.57-.71-41.98,27.94-23.59,104.85-9.98,142.69"/>
    <path class="cls-2" d="m280.38,341.88c0-5.18-16.06,2.1-21.38,2.99-8.84,1.47-23.77,1.7-32.83,1.7-10.78,0-19.12-1.14-29.77-1.14-6.99,0-17,1.24-23.48,4.26-10.66,4.97-15.63,17.04-7.78,26.98,5.22,6.62,11.41,12.07,24.22,14.2,19.21,3.19,33.84-1.03,51.94-7.81,7.38-2.76,15.89-9,22.04-14.2,4.52-3.82,17.06-19.17,17.05-26.98"/>
    <path class="cls-2" d="m345.14,334.8c5.49-.9,13.27-9.01,14.93-12.8,4.96-11.36,4.23-25.56-12.86-31.24-14.36-4.77-23.18,1.45-29.87,13.49-7.09,12.78-5.66,22.01,6.45,27.68,4.1,1.93,12.82,4.26,21.36,2.87"/>
</svg>